<?xml version="1.0" encoding="iso-8859-1"?>
<svg>
  <symbol viewBox="0 0 448 512" id="facebook" xmlns="http://www.w3.org/2000/svg"><path d="M400 32H48A48 48 0 0 0 0 80v352a48 48 0 0 0 48 48h137.25V327.69h-63V256h63v-54.64c0-62.15 37-96.48 93.67-96.48 27.14 0 55.52 4.84 55.52 4.84v61h-31.27c-30.81 0-40.42 19.12-40.42 38.73V256h68.78l-11 71.69h-57.78V480H400a48 48 0 0 0 48-48V80a48 48 0 0 0-48-48z"/></symbol>
  <symbol viewBox="0 0 448 512" id="instagram" xmlns="http://www.w3.org/2000/svg"><path d="M224.1 141c-63.6 0-114.9 51.3-114.9 114.9s51.3 114.9 114.9 114.9S339 319.5 339 255.9 287.7 141 224.1 141zm0 189.6c-41.1 0-74.7-33.5-74.7-74.7s33.5-74.7 74.7-74.7 74.7 33.5 74.7 74.7-33.6 74.7-74.7 74.7zm146.4-194.3c0 14.9-12 26.8-26.8 26.8-14.9 0-26.8-12-26.8-26.8s12-26.8 26.8-26.8 26.8 12 26.8 26.8zm76.1 27.2c-1.7-35.9-9.9-67.7-36.2-93.9-26.2-26.2-58-34.4-93.9-36.2-37-2.1-147.9-2.1-184.9 0-35.8 1.7-67.6 9.9-93.9 36.1s-34.4 58-36.2 93.9c-2.1 37-2.1 147.9 0 184.9 1.7 35.9 9.9 67.7 36.2 93.9s58 34.4 93.9 36.2c37 2.1 147.9 2.1 184.9 0 35.9-1.7 67.7-9.9 93.9-36.2 26.2-26.2 34.4-58 36.2-93.9 2.1-37 2.1-147.8 0-184.8zM398.8 388c-7.8 19.6-22.9 34.7-42.6 42.6-29.5 11.7-99.5 9-132.1 9s-102.7 2.6-132.1-9c-19.6-7.8-34.7-22.9-42.6-42.6-11.7-29.5-9-99.5-9-132.1s-2.6-102.7 9-132.1c7.8-19.6 22.9-34.7 42.6-42.6 29.5-11.7 99.5-9 132.1-9s102.7-2.6 132.1 9c19.6 7.8 34.7 22.9 42.6 42.6 11.7 29.5 9 99.5 9 132.1s2.7 102.7-9 132.1z"/></symbol>
  <symbol viewBox="0 0 448 512" id="pinterest" xmlns="http://www.w3.org/2000/svg"><path d="M448 80v352c0 26.5-21.5 48-48 48H154.4c9.8-16.4 22.4-40 27.4-59.3 3-11.5 15.3-58.4 15.3-58.4 8 15.3 31.4 28.2 56.3 28.2 74.1 0 127.4-68.1 127.4-152.7 0-81.1-66.2-141.8-151.4-141.8-106 0-162.2 71.1-162.2 148.6 0 36 19.2 80.8 49.8 95.1 4.7 2.2 7.1 1.2 8.2-3.3.8-3.4 5-20.1 6.8-27.8.6-2.5.3-4.6-1.7-7-10.1-12.3-18.3-34.9-18.3-56 0-54.2 41-106.6 110.9-106.6 60.3 0 102.6 41.1 102.6 99.9 0 66.4-33.5 112.4-77.2 112.4-24.1 0-42.1-19.9-36.4-44.4 6.9-29.2 20.3-60.7 20.3-81.8 0-53-75.5-45.7-75.5 25 0 21.7 7.3 36.5 7.3 36.5-31.4 132.8-36.1 134.5-29.6 192.6l2.2.8H48c-26.5 0-48-21.5-48-48V80c0-26.5 21.5-48 48-48h352c26.5 0 48 21.5 48 48z"/></symbol><symbol viewBox="0 0 512 512" id="search" xmlns="http://www.w3.org/2000/svg"><path d="M505 442.7L405.3 343c-4.5-4.5-10.6-7-17-7H372c27.6-35.3 44-79.7 44-128C416 93.1 322.9 0 208 0S0 93.1 0 208s93.1 208 208 208c48.3 0 92.7-16.4 128-44v16.3c0 6.4 2.5 12.5 7 17l99.7 99.7c9.4 9.4 24.6 9.4 33.9 0l28.3-28.3c9.4-9.4 9.4-24.6.1-34zM208 336c-70.7 0-128-57.2-128-128 0-70.7 57.2-128 128-128 70.7 0 128 57.2 128 128 0 70.7-57.2 128-128 128z"/></symbol>
  <symbol viewBox="0 0 576 512" id="youtube" xmlns="http://www.w3.org/2000/svg"><path d="M549.655 124.083c-6.281-23.65-24.787-42.276-48.284-48.597C458.781 64 288 64 288 64S117.22 64 74.629 75.486c-23.497 6.322-42.003 24.947-48.284 48.597-11.412 42.867-11.412 132.305-11.412 132.305s0 89.438 11.412 132.305c6.281 23.65 24.787 41.5 48.284 47.821C117.22 448 288 448 288 448s170.78 0 213.371-11.486c23.497-6.321 42.003-24.171 48.284-47.821 11.412-42.867 11.412-132.305 11.412-132.305s0-89.438-11.412-132.305zm-317.51 213.508V175.185l142.739 81.205-142.739 81.201z"/>
  </symbol>

  <symbol id='bookmark' xmlns="http://www.w3.org/2000/svg" viewBox="0 0 384 512"><path d="M336 0H48C21.49 0 0 21.49 0 48v464l192-112 192 112V48c0-26.51-21.49-48-48-48zm0 428.43l-144-84-144 84V54a6 6 0 0 1 6-6h276c3.314 0 6 2.683 6 5.996V428.43z"/></symbol>

  <symbol id="basket" xmlns="http://www.w3.org/2000/svg" viewBox="0 0 576 512"><path d="M576 216v16c0 13.255-10.745 24-24 24h-8l-26.113 182.788C514.509 462.435 494.257 480 470.37 480H105.63c-23.887 0-44.139-17.565-47.518-41.212L32 256h-8c-13.255 0-24-10.745-24-24v-16c0-13.255 10.745-24 24-24h67.341l106.78-146.821c10.395-14.292 30.407-17.453 44.701-7.058 14.293 10.395 17.453 30.408 7.058 44.701L170.477 192h235.046L326.12 82.821c-10.395-14.292-7.234-34.306 7.059-44.701 14.291-10.395 34.306-7.235 44.701 7.058L484.659 192H552c13.255 0 24 10.745 24 24zM312 392V280c0-13.255-10.745-24-24-24s-24 10.745-24 24v112c0 13.255 10.745 24 24 24s24-10.745 24-24zm112 0V280c0-13.255-10.745-24-24-24s-24 10.745-24 24v112c0 13.255 10.745 24 24 24s24-10.745 24-24zm-224 0V280c0-13.255-10.745-24-24-24s-24 10.745-24 24v112c0 13.255 10.745 24 24 24s24-10.745 24-24z"/></symbol>

  <symbol id="chevron-left" xmlns="http://www.w3.org/2000/svg" viewBox="0 0 320 512"><path d="M34.52 239.03L228.87 44.69c9.37-9.37 24.57-9.37 33.94 0l22.67 22.67c9.36 9.36 9.37 24.52.04 33.9L131.49 256l154.02 154.75c9.34 9.38 9.32 24.54-.04 33.9l-22.67 22.67c-9.37 9.37-24.57 9.37-33.94 0L34.52 272.97c-9.37-9.37-9.37-24.57 0-33.94z"/></symbol>

  <symbol id="chevron-right" xmlns="http://www.w3.org/2000/svg" viewBox="0 0 320 512"><path d="M285.476 272.971L91.132 467.314c-9.373 9.373-24.569 9.373-33.941 0l-22.667-22.667c-9.357-9.357-9.375-24.522-.04-33.901L188.505 256 34.484 101.255c-9.335-9.379-9.317-24.544.04-33.901l22.667-22.667c9.373-9.373 24.569-9.373 33.941 0L285.475 239.03c9.373 9.372 9.373 24.568.001 33.941z"/></symbol>

  <symbol id="location" xmlns="http://www.w3.org/2000/svg" viewBox="0 0 36 51">
    <g fill-rule="evenodd">
        <path d="M26.347 35.015a2.501 2.501 0 0 0 3.432-1.036c3.22-6.228 5.888-12.647 5.888-16.479 0-9.66-7.84-17.5-17.5-17.5C8.506 0 .667 7.84.667 17.5c0 7.51 10.87 24.97 15.709 31.49a2.758 2.758 0 0 0 2.23 1.12c.851 0 1.71-.39 2.261-1.18 1.073-1.529 2.444-3.642 3.925-6.081a2.5 2.5 0 0 0-.925-3.485 2.495 2.495 0 0 0-3.336.895 124.366 124.366 0 0 1-1.985 3.161C12.836 35.13 5.667 22.2 5.667 17.5c0-6.89 5.609-12.5 12.5-12.5 6.89 0 12.5 5.61 12.5 12.5 0 2.771-2.317 8.357-5.326 14.182a2.499 2.499 0 0 0 1.006 3.333"/>
        <path d="M18.167 9a8.5 8.5 0 1 0 0 17 8.5 8.5 0 0 0 0-17zm0 5c1.929 0 3.5 1.57 3.5 3.5s-1.571 3.5-3.5 3.5c-1.93 0-3.5-1.57-3.5-3.5s1.57-3.5 3.5-3.5z"/>
    </g>
</symbol>

<symbol id="camera" xmlns="http://www.w3.org/2000/svg" viewBox="0 0 51 50">
    <g fill-rule="evenodd">
        <path d="M45.667 41.92A3.08 3.08 0 0 1 42.586 45H8.747a3.08 3.08 0 0 1-3.08-3.08V17.08A3.08 3.08 0 0 1 8.747 14h5.163a3.083 3.083 0 0 0 2.99-2.335l1.289-5.155A1.994 1.994 0 0 1 20.123 5H31.21c.915 0 1.712.623 1.934 1.51l1.289 5.155A3.083 3.083 0 0 0 37.423 14h5.163a3.08 3.08 0 0 1 3.081 3.08v24.84zM42.586 9h-3.669l-.996-3.98A6.627 6.627 0 0 0 31.492 0H19.841a6.627 6.627 0 0 0-6.429 5.02L12.417 9h-3.67a8.08 8.08 0 0 0-8.08 8.08v24.84A8.08 8.08 0 0 0 8.747 50h33.839a8.08 8.08 0 0 0 8.081-8.08V17.08A8.08 8.08 0 0 0 42.586 9z"/>
        <path d="M40.167 17a2.5 2.5 0 1 0 0 5 2.5 2.5 0 0 0 0-5M25.667 17c-6.628 0-12 5.373-12 12s5.372 12 12 12c6.627 0 12-5.373 12-12s-5.373-12-12-12zm0 5c3.859 0 7 3.14 7 7s-3.141 7-7 7c-3.86 0-7-3.14-7-7s3.14-7 7-7z"/>
    </g>
</symbol>
<symbol id="shape-rectangle" xmlns="http://www.w3.org/2000/svg" viewBox="0 0 73 40">
    <path fill-rule="nonzero" d="M39.984 20c0 1.897-1.563 3.441-3.484 3.441-1.92 0-3.484-1.544-3.484-3.441 0-1.897 1.563-3.441 3.484-3.441 1.92 0 3.484 1.544 3.484 3.441zm-4.645 0c0 .632.52 1.147 1.161 1.147.64 0 1.161-.515 1.161-1.147s-.52-1.147-1.161-1.147c-.64 0-1.161.515-1.161 1.147zm27.87 17.206V39.5H9.79v-2.294H5.145v-2.294H9.79v-2.294H5.145v-2.294H9.79v-2.295H5.145v-2.294H9.79v-2.294H5.145v-2.294H9.79v-2.294H5.145v-2.294H9.79v-2.294H5.145V11.97H9.79V9.676H5.145V7.382H9.79V5.088H5.145V2.794H9.79V.5h53.42v2.294h4.645v2.294H63.21v2.294h4.645v2.294H63.21v2.295h4.645v2.294H63.21v2.294h4.645v2.294H63.21v2.294h4.645v2.294H63.21v2.294h4.645v2.294H63.21v2.295h4.645v2.294H63.21v2.294h4.645v2.294H63.21zm-23.225-1.147c0 .404-.083.787-.214 1.147h5.317L36.5 29.572l-8.587 7.634h5.317a3.357 3.357 0 0 1-.214-1.147c0-1.897 1.563-3.441 3.484-3.441 1.92 0 3.484 1.544 3.484 3.44zM36.5 37.206c.64 0 1.161-.515 1.161-1.147s-.52-1.147-1.161-1.147c-.64 0-1.161.515-1.161 1.147s.52 1.147 1.161 1.147zM33.016 3.94c0-.404.083-.787.215-1.147h-5.318l8.587 7.634 8.587-7.634H39.77c.13.36.214.743.214 1.147 0 1.897-1.563 3.441-3.484 3.441-1.92 0-3.484-1.544-3.484-3.44zM36.5 2.794c-.64 0-1.161.515-1.161 1.147s.52 1.147 1.161 1.147c.64 0 1.161-.515 1.161-1.147s-.52-1.147-1.161-1.147zm-.09 23.773l.09-.08.09.08L46.088 20l-9.496-6.567-.091.08-.09-.08L26.912 20l9.496 6.567zm12.864-9.539v5.928l3.002-2.965-3.002-2.963zm-2.322.769V4.222l-8.59 7.636 8.59 5.939zm2.322-9.942v5.93l3.003-2.965-3.003-2.965zm-14.637 4.003l-8.589-7.636v13.575l8.59-5.939zm-10.911 1.926V7.855l-3.003 2.965 3.003 2.964zm0 9.172v-5.928l-3.002 2.964 3.002 2.964zm2.322-.753v13.575l8.59-7.636-8.59-5.939zm-2.322 9.932v-5.937l-3.003 2.966 3.003 2.97zm14.637-3.993l8.589 7.636V22.203l-8.59 5.939zm10.911-1.944v5.937l3.003-2.97-3.003-2.967zm0 11.008h1.844l-1.844-1.824v1.824zm1.641-3.447l3.004 2.97v-5.941l-3.004 2.971zm.001-9.182l3.003 2.965v-5.93l-3.003 2.965zm.001-9.17l3.002 2.962v-5.928l-3.002 2.965zm0-9.173l3.002 2.964V3.27l-3.003 2.965zm-1.643-1.622l1.84-1.818h-1.84v1.818zM23.726 2.794h-1.84l1.84 1.818V2.794zm-1.642 3.44L19.08 3.27V9.2l3.003-2.965zm-.001 9.172l-3.002-2.965v5.928l3.002-2.963zm0 9.171l-3.002-2.965v5.93l3.003-2.965zm.002 9.182l-3.004-2.971v5.942l3.004-2.97zm1.64 1.623l-1.843 1.824h1.844v-1.824zm37.162 1.824V2.794h-4.645v34.412h4.645zM12.113 2.794v34.412h4.645V2.794h-4.645zm60.387 0v2.294h-2.323V2.794H72.5zm0 4.588v2.294h-2.323V7.382H72.5zm0 4.589v2.294h-2.323V11.97H72.5zm0 4.588v2.294h-2.323v-2.294H72.5zm0 4.588v2.294h-2.323v-2.294H72.5zm0 4.588v2.294h-2.323v-2.294H72.5zm0 4.589v2.294h-2.323v-2.294H72.5zm0 4.588v2.294h-2.323v-2.294H72.5zM2.823 2.794v2.294H.5V2.794h2.323zm0 4.588v2.294H.5V7.382h2.323zm0 4.589v2.294H.5V11.97h2.323zm0 4.588v2.294H.5v-2.294h2.323zm0 4.588v2.294H.5v-2.294h2.323zm0 4.588v2.294H.5v-2.294h2.323zm0 4.589v2.294H.5v-2.294h2.323zm0 4.588v2.294H.5v-2.294h2.323z"/>
</symbol>
<symbol id="shape-square" xmlns="http://www.w3.org/2000/svg" viewBox="0 0 72 72">
    <path fill="#BE1D24" fill-rule="nonzero" d="M10.56 14.779H9a1.406 1.406 0 1 1 0-2.813h1.56a1.407 1.407 0 0 1 0 2.813zm7.186 0h-1.56a1.406 1.406 0 1 1 0-2.813h1.56a1.407 1.407 0 0 1 0 2.813zm-4.373 4.372c-.777 0-1.406-.63-1.406-1.406v-1.56a1.406 1.406 0 1 1 2.812 0v1.56c0 .776-.63 1.406-1.406 1.406zm0-7.185c-.777 0-1.406-.63-1.406-1.406V9a1.406 1.406 0 1 1 2.812 0v1.56c0 .777-.63 1.406-1.406 1.406zm19.815 2.813h-1.56a1.407 1.407 0 0 1 0-2.813h1.56a1.406 1.406 0 1 1 0 2.813zm7.186 0h-1.56a1.406 1.406 0 1 1 0-2.813h1.56a1.407 1.407 0 0 1 0 2.813zM36 19.15c-.777 0-1.406-.63-1.406-1.406v-1.56a1.406 1.406 0 1 1 2.812 0v1.56c0 .776-.63 1.406-1.406 1.406zm0-7.185c-.777 0-1.406-.63-1.406-1.406V9a1.406 1.406 0 1 1 2.812 0v1.56c0 .777-.63 1.406-1.406 1.406zm19.816 2.813h-1.56a1.407 1.407 0 0 1 0-2.813h1.56a1.406 1.406 0 1 1 0 2.813zm7.185 0h-1.56a1.407 1.407 0 0 1 0-2.813h1.56a1.406 1.406 0 1 1 0 2.813zm-4.373 4.372c-.776 0-1.406-.63-1.406-1.406v-1.56a1.407 1.407 0 0 1 2.812 0v1.56c0 .776-.63 1.406-1.406 1.406zm0-7.185c-.776 0-1.406-.63-1.406-1.406V9a1.407 1.407 0 0 1 2.812 0v1.56c0 .777-.63 1.406-1.406 1.406zM10.56 37.406H9a1.406 1.406 0 1 1 0-2.812h1.56a1.407 1.407 0 0 1 0 2.812zm7.186 0h-1.56a1.406 1.406 0 1 1 0-2.812h1.56a1.407 1.407 0 0 1 0 2.812zm-4.373 4.373c-.777 0-1.406-.63-1.406-1.406v-1.56a1.406 1.406 0 1 1 2.812 0v1.56c0 .776-.63 1.406-1.406 1.406zm0-7.185c-.777 0-1.406-.63-1.406-1.407v-1.56a1.406 1.406 0 1 1 2.812 0v1.56c0 .777-.63 1.407-1.406 1.407zm19.815 2.812h-1.56a1.407 1.407 0 0 1 0-2.812h1.56a1.406 1.406 0 1 1 0 2.812zm7.186 0h-1.56a1.406 1.406 0 1 1 0-2.812h1.56a1.407 1.407 0 0 1 0 2.812zM36 41.78c-.777 0-1.406-.63-1.406-1.406v-1.56a1.406 1.406 0 1 1 2.812 0v1.56c0 .776-.63 1.406-1.406 1.406zm0-7.185c-.777 0-1.406-.63-1.406-1.407v-1.56a1.406 1.406 0 1 1 2.812 0v1.56c0 .777-.63 1.407-1.406 1.407zm19.816 2.812h-1.56a1.407 1.407 0 0 1 0-2.812h1.56a1.406 1.406 0 1 1 0 2.812zm7.185 0h-1.56a1.407 1.407 0 0 1 0-2.812h1.56a1.406 1.406 0 1 1 0 2.812zm-4.373 4.373c-.776 0-1.406-.63-1.406-1.406v-1.56a1.407 1.407 0 0 1 2.812 0v1.56c0 .776-.63 1.406-1.406 1.406zm0-7.185c-.776 0-1.406-.63-1.406-1.407v-1.56a1.407 1.407 0 0 1 2.812 0v1.56c0 .777-.63 1.407-1.406 1.407zM10.56 60.034H9a1.406 1.406 0 1 1 0-2.813h1.56a1.407 1.407 0 0 1 0 2.813zm7.186 0h-1.56a1.406 1.406 0 1 1 0-2.813h1.56a1.407 1.407 0 0 1 0 2.813zm-4.373 4.372c-.777 0-1.406-.63-1.406-1.406v-1.56a1.406 1.406 0 1 1 2.812 0V63c0 .777-.63 1.406-1.406 1.406zm0-7.185c-.777 0-1.406-.63-1.406-1.406v-1.56a1.406 1.406 0 1 1 2.812 0v1.56c0 .777-.63 1.406-1.406 1.406zm8.501-31.128h-1.56a1.407 1.407 0 0 1 0-2.813h1.56a1.407 1.407 0 0 1 0 2.813zm7.186 0H27.5a1.406 1.406 0 1 1 0-2.813h1.56a1.407 1.407 0 0 1 0 2.813zm-4.373 4.372c-.777 0-1.406-.63-1.406-1.406v-1.56a1.406 1.406 0 1 1 2.812 0v1.56c0 .776-.63 1.406-1.406 1.406zm0-7.185c-.777 0-1.406-.63-1.406-1.406v-1.56a1.406 1.406 0 1 1 2.812 0v1.56c0 .777-.63 1.406-1.406 1.406zm-2.813 25.44h-1.56a1.407 1.407 0 0 1 0-2.813h1.56a1.407 1.407 0 0 1 0 2.813zm7.186 0H27.5a1.406 1.406 0 1 1 0-2.813h1.56a1.407 1.407 0 0 1 0 2.813zm-4.373 4.373c-.777 0-1.406-.63-1.406-1.407v-1.56a1.406 1.406 0 1 1 2.812 0v1.56c0 .777-.63 1.407-1.406 1.407zm0-7.186c-.777 0-1.406-.629-1.406-1.406v-1.56a1.406 1.406 0 1 1 2.812 0v1.56c0 .777-.63 1.406-1.406 1.406zm27-19.814h-1.56a1.407 1.407 0 0 1 0-2.813h1.56a1.407 1.407 0 0 1 0 2.813zm-7.184 0h-1.56a1.407 1.407 0 0 1 0-2.813h1.56a1.406 1.406 0 1 1 0 2.813zm2.812 4.372c-.776 0-1.406-.63-1.406-1.406v-1.56a1.407 1.407 0 0 1 2.812 0v1.56c0 .776-.63 1.406-1.406 1.406zm0-7.185c-.776 0-1.406-.63-1.406-1.406v-1.56a1.407 1.407 0 0 1 2.812 0v1.56c0 .777-.63 1.406-1.406 1.406zm4.373 25.44h-1.56a1.407 1.407 0 0 1 0-2.813h1.56a1.407 1.407 0 0 1 0 2.813zm-7.185 0h-1.56a1.407 1.407 0 0 1 0-2.813h1.56a1.406 1.406 0 1 1 0 2.813zm2.812 4.373c-.776 0-1.406-.63-1.406-1.407v-1.56a1.407 1.407 0 0 1 2.812 0v1.56c0 .777-.63 1.407-1.406 1.407zm0-7.186c-.776 0-1.406-.629-1.406-1.406v-1.56a1.407 1.407 0 0 1 2.812 0v1.56c0 .777-.63 1.406-1.406 1.406zM33.188 60.034h-1.56a1.407 1.407 0 0 1 0-2.813h1.56a1.406 1.406 0 1 1 0 2.813zm7.186 0h-1.56a1.406 1.406 0 1 1 0-2.813h1.56a1.407 1.407 0 0 1 0 2.813zM36 64.406c-.777 0-1.406-.63-1.406-1.406v-1.56a1.406 1.406 0 1 1 2.812 0V63c0 .777-.63 1.406-1.406 1.406zm0-7.185c-.777 0-1.406-.63-1.406-1.406v-1.56a1.406 1.406 0 1 1 2.812 0v1.56c0 .777-.63 1.406-1.406 1.406zm19.816 2.813h-1.56a1.407 1.407 0 0 1 0-2.813h1.56a1.406 1.406 0 1 1 0 2.813zm7.185 0h-1.56a1.407 1.407 0 0 1 0-2.813h1.56a1.406 1.406 0 1 1 0 2.813zm-4.373 4.372c-.776 0-1.406-.63-1.406-1.406v-1.56a1.407 1.407 0 0 1 2.812 0V63c0 .777-.63 1.406-1.406 1.406zm0-7.185c-.776 0-1.406-.63-1.406-1.406v-1.56a1.407 1.407 0 0 1 2.812 0v1.56c0 .777-.63 1.406-1.406 1.406zM66.93 72c-1.335 0-2.59-.52-3.534-1.463l-.077-.077a2.186 2.186 0 0 0-3.089 0l-.077.077A4.963 4.963 0 0 1 56.619 72a4.964 4.964 0 0 1-3.533-1.463l-.077-.077a2.187 2.187 0 0 0-3.089 0l-.076.076A4.964 4.964 0 0 1 46.31 72a4.964 4.964 0 0 1-3.533-1.463l-.077-.078a2.187 2.187 0 0 0-3.089 0l-.078.078A4.963 4.963 0 0 1 36.001 72c-1.335 0-2.59-.52-3.533-1.463l-.077-.077a2.186 2.186 0 0 0-3.089 0l-.077.076A4.962 4.962 0 0 1 25.692 72c-1.335 0-2.59-.52-3.534-1.463l-.077-.078a2.169 2.169 0 0 0-1.544-.64 2.17 2.17 0 0 0-1.544.64l-.077.077A4.964 4.964 0 0 1 15.382 72a4.964 4.964 0 0 1-3.532-1.463l-.077-.077a2.186 2.186 0 0 0-3.09 0l-.077.077A4.961 4.961 0 0 1 5.074 72c-1.335 0-2.59-.52-3.534-1.463l-.077-.078a5.002 5.002 0 0 1 0-7.066l.077-.076a2.17 2.17 0 0 0 .64-1.545c0-.583-.227-1.132-.64-1.544l-.077-.078a5.002 5.002 0 0 1 0-7.065l.077-.077a2.17 2.17 0 0 0 .64-1.545c0-.583-.227-1.131-.64-1.544l-.077-.078a5.002 5.002 0 0 1 0-7.065l.077-.077a2.17 2.17 0 0 0 .64-1.545c0-.583-.227-1.131-.64-1.543l-.077-.078a5.002 5.002 0 0 1 0-7.066l.077-.077a2.17 2.17 0 0 0 .64-1.544c0-.584-.227-1.132-.64-1.544l-.077-.078A4.963 4.963 0 0 1 0 25.692c0-1.335.52-2.59 1.463-3.534l.077-.077c.413-.412.64-.96.64-1.544a2.17 2.17 0 0 0-.64-1.544l-.077-.078a5.002 5.002 0 0 1 0-7.065l.077-.077a2.17 2.17 0 0 0 .64-1.545c0-.583-.227-1.131-.64-1.544l-.078-.078a5.002 5.002 0 0 1 .001-7.065l.077-.077A4.963 4.963 0 0 1 5.074 0c1.335 0 2.59.52 3.533 1.463l.077.077a2.186 2.186 0 0 0 3.089 0l.077-.077A4.963 4.963 0 0 1 15.383 0c1.334 0 2.59.52 3.533 1.463l.078.078c.412.412.96.64 1.543.64a2.17 2.17 0 0 0 1.545-.64l.076-.077A4.964 4.964 0 0 1 25.692 0c1.335 0 2.59.52 3.533 1.463l.077.077c.413.413.961.64 1.545.64.583 0 1.131-.227 1.543-.64l.078-.077A4.965 4.965 0 0 1 36.001 0c1.334 0 2.59.52 3.533 1.463l.077.077a2.186 2.186 0 0 0 3.09 0l.076-.076A4.964 4.964 0 0 1 46.31 0c1.335 0 2.59.52 3.533 1.463l.078.078c.851.851 2.236.851 3.088 0l.078-.078A4.963 4.963 0 0 1 56.619 0c1.335 0 2.59.52 3.533 1.463l.077.077a2.186 2.186 0 0 0 3.089 0l.078-.077A4.963 4.963 0 0 1 66.928 0c1.335 0 2.59.52 3.534 1.463l.077.078a5.002 5.002 0 0 1 0 7.066l-.077.076a2.17 2.17 0 0 0-.64 1.545c0 .583.227 1.132.64 1.544l.077.078a5.002 5.002 0 0 1 0 7.065l-.077.077a2.17 2.17 0 0 0-.64 1.545c0 .583.227 1.131.64 1.544l.077.078a5.002 5.002 0 0 1 0 7.065l-.077.077a2.17 2.17 0 0 0-.64 1.545c0 .583.227 1.131.64 1.544l.077.077a5.002 5.002 0 0 1 0 7.066l-.077.077a2.17 2.17 0 0 0-.64 1.544c0 .584.227 1.132.64 1.544l.077.078a5.002 5.002 0 0 1 0 7.066l-.077.077a2.17 2.17 0 0 0-.64 1.544c0 .583.227 1.132.64 1.544l.077.078a5.002 5.002 0 0 1 0 7.065l-.077.077a2.17 2.17 0 0 0-.64 1.545c0 .583.227 1.131.64 1.544l.077.078a5.001 5.001 0 0 1 0 7.065l-.077.077A4.963 4.963 0 0 1 66.928 72zm-5.155-4.993c1.334 0 2.59.52 3.533 1.464l.077.077c.413.413.961.64 1.544.64.584 0 1.132-.227 1.545-.64l.077-.077a2.185 2.185 0 0 0 0-3.089l-.078-.078a4.963 4.963 0 0 1-1.463-3.532c0-1.335.52-2.59 1.464-3.533l.077-.077a2.186 2.186 0 0 0 0-3.089l-.078-.078a4.963 4.963 0 0 1-1.463-3.532c0-1.335.52-2.59 1.464-3.533l.077-.077a2.186 2.186 0 0 0 0-3.089l-.078-.077a4.963 4.963 0 0 1-1.463-3.533c0-1.335.52-2.59 1.464-3.533l.077-.076a2.186 2.186 0 0 0 0-3.09l-.078-.077a4.963 4.963 0 0 1-1.463-3.533c0-1.334.52-2.589 1.464-3.532l.077-.077a2.186 2.186 0 0 0 0-3.09l-.078-.077a4.963 4.963 0 0 1-1.463-3.533c0-1.334.52-2.589 1.464-3.532l.077-.077a2.186 2.186 0 0 0 0-3.09l-.078-.077a4.965 4.965 0 0 1-1.463-3.532c0-1.335.52-2.59 1.464-3.533l.077-.077a2.186 2.186 0 0 0 0-3.09l-.078-.077a2.17 2.17 0 0 0-1.544-.639c-.583 0-1.132.227-1.544.64l-.078.077a4.963 4.963 0 0 1-3.532 1.463A4.964 4.964 0 0 1 58.24 3.53l-.077-.077a2.17 2.17 0 0 0-1.545-.64c-.583 0-1.131.227-1.544.64l-.077.078a5.002 5.002 0 0 1-7.066 0l-.078-.078a2.168 2.168 0 0 0-1.544-.64 2.17 2.17 0 0 0-1.544.64l-.077.077a5.003 5.003 0 0 1-7.066 0l-.077-.077A2.17 2.17 0 0 0 36 2.812c-.583 0-1.132.227-1.544.64l-.078.078a5.003 5.003 0 0 1-7.066 0l-.077-.078a2.169 2.169 0 0 0-1.544-.64 2.17 2.17 0 0 0-1.544.64l-.077.077a5.003 5.003 0 0 1-7.067 0l-.077-.078a2.169 2.169 0 0 0-1.544-.639c-.583 0-1.132.227-1.544.64l-.078.078a4.963 4.963 0 0 1-3.533 1.463 4.964 4.964 0 0 1-3.533-1.464l-.077-.077a2.169 2.169 0 0 0-1.544-.64c-.584 0-1.132.227-1.545.64l-.076.077a2.186 2.186 0 0 0 0 3.089l.076.077a4.964 4.964 0 0 1 1.464 3.533c0 1.335-.52 2.59-1.464 3.533l-.076.077a2.186 2.186 0 0 0 0 3.089l.077.078a4.963 4.963 0 0 1 1.463 3.532c0 1.335-.52 2.59-1.464 3.533l-.076.077a2.186 2.186 0 0 0 0 3.089l.077.077a4.963 4.963 0 0 1 1.463 3.533c0 1.335-.52 2.59-1.464 3.533l-.076.076a2.186 2.186 0 0 0 0 3.09l.077.077a4.963 4.963 0 0 1 1.463 3.533c0 1.334-.52 2.589-1.464 3.532l-.076.077a2.186 2.186 0 0 0 0 3.09l.077.077a4.963 4.963 0 0 1 1.463 3.533c0 1.334-.52 2.589-1.464 3.532l-.076.077a2.186 2.186 0 0 0 0 3.09l.077.077a4.965 4.965 0 0 1 1.463 3.532c0 1.335-.52 2.59-1.464 3.533l-.076.077a2.186 2.186 0 0 0 0 3.09l.077.077c.412.412.96.639 1.544.639.583 0 1.132-.227 1.544-.64l.078-.077a4.963 4.963 0 0 1 3.533-1.463c1.334 0 2.589.52 3.532 1.463l.077.077c.413.413.962.64 1.545.64a2.17 2.17 0 0 0 1.544-.64l.077-.077a5.002 5.002 0 0 1 7.067 0l.077.078c.412.412.96.639 1.544.639a2.17 2.17 0 0 0 1.544-.64l.077-.076a5.003 5.003 0 0 1 7.066 0l.077.076c.413.413.962.64 1.545.64s1.132-.227 1.544-.64l.078-.077a5.003 5.003 0 0 1 7.066 0l.077.078c.412.412.961.639 1.544.639a2.17 2.17 0 0 0 1.545-.64l.076-.076a5.003 5.003 0 0 1 7.067 0l.077.076c.413.413.961.64 1.544.64.584 0 1.132-.227 1.544-.64l.078-.077a4.962 4.962 0 0 1 3.533-1.464z"/>
</symbol>

<symbol id="shape-circle" xmlns="http://www.w3.org/2000/svg" viewBox="0 0 72 72">
    <path fill="#BE1D24" fill-rule="nonzero" d="M61.456 10.544C68.256 17.344 72 26.384 72 36s-3.745 18.656-10.544 25.456C54.656 68.256 45.616 72 36 72s-18.656-3.745-25.456-10.544C3.744 54.656 0 45.616 0 36s3.745-18.656 10.544-25.456C17.344 3.744 26.384 0 36 0s18.656 3.745 25.456 10.544zM36 69.496c18.47 0 33.496-15.026 33.496-33.496C69.496 17.53 54.47 2.504 36 2.504 17.53 2.504 2.504 17.53 2.504 36 2.504 54.47 17.53 69.496 36 69.496zm25.527-50.71A30.635 30.635 0 0 1 66.786 36c0 16.975-13.81 30.785-30.786 30.785-2.088 0-4.175-.21-6.203-.625a1.252 1.252 0 1 1 .502-2.453c1.863.381 3.781.575 5.701.575 15.595 0 28.282-12.688 28.282-28.282 0-5.668-1.67-11.135-4.83-15.812a1.252 1.252 0 1 1 2.075-1.401zm-3.758-4.554a1.252 1.252 0 1 1-1.771 1.77C50.657 10.66 43.554 7.718 36 7.718 20.405 7.718 7.718 20.405 7.718 36c0 12.096 7.684 22.852 19.12 26.765a1.252 1.252 0 1 1-.81 2.37C13.578 60.875 5.214 49.166 5.214 36 5.214 19.025 19.024 5.215 36 5.215c8.223 0 15.954 3.202 21.769 9.017zM59.863 36l2.606 5.225a1.252 1.252 0 0 1-.352 1.548l-4.613 3.582.072 5.838a1.252 1.252 0 0 1-.99 1.24l-5.708 1.224-2.46 5.296c-.252.54-.85.83-1.43.689l-5.676-1.374-4.52 3.696a1.25 1.25 0 0 1-1.584 0l-4.52-3.696-5.675 1.374a1.252 1.252 0 0 1-1.43-.69l-2.46-5.295-5.71-1.224a1.252 1.252 0 0 1-.989-1.24l.072-5.838-4.612-3.582a1.252 1.252 0 0 1-.353-1.548L12.138 36 9.53 30.774a1.252 1.252 0 0 1 .353-1.547l4.612-3.582-.072-5.838a1.252 1.252 0 0 1 .99-1.24l5.709-1.225 2.46-5.295c.251-.54.849-.83 1.43-.689l5.675 1.374 4.52-3.696a1.252 1.252 0 0 1 1.585 0l4.52 3.696 5.675-1.374c.58-.14 1.178.148 1.43.69l2.46 5.294 5.709 1.225c.582.125.996.644.989 1.24l-.072 5.838 4.613 3.582c.47.366.618 1.014.352 1.548L59.863 36zm-4.386-8.759a1.251 1.251 0 0 1-.484-1.004l.047-3.82-5.481 4.372a16.35 16.35 0 0 1 2.103 4.353l6.832-1.559-3.017-2.342zm-8.216-11.74l-3.041 6.316a16.507 16.507 0 0 1 3.775 3.016l5.482-4.372-3.734-.801a1.253 1.253 0 0 1-.873-.697l-1.609-3.462zm-10.009-2.855v7.005c1.651.125 3.234.496 4.714 1.076l3.04-6.313-3.71.898c-.38.092-.783 0-1.087-.248l-2.957-2.418zm-6.548 2.666l-3.71-.899 3.04 6.314c1.48-.58 3.063-.952 4.715-1.077v-7.005l-2.958 2.419c-.304.248-.707.34-1.087.248zm-8.447 4.348l-3.734.8 5.482 4.373c1.1-1.18 2.371-2.2 3.775-3.016L24.738 15.5l-1.608 3.462a1.253 1.253 0 0 1-.873.697zm-5.734 7.581l-3.016 2.342 6.83 1.559a16.34 16.34 0 0 1 2.104-4.353l-5.481-4.372.047 3.82c.005.392-.174.764-.484 1.004zm-1.866 8.2c.175.352.175.766 0 1.117l-1.704 3.416 6.829-1.557a16.462 16.462 0 0 1 0-4.834l-6.83-1.558 1.705 3.416zm1.866 9.318c.31.24.489.612.484 1.004l-.047 3.821 5.482-4.372a16.346 16.346 0 0 1-2.105-4.354l-6.83 1.558 3.016 2.343zm8.215 11.74l3.041-6.316a16.501 16.501 0 0 1-3.773-3.015l-5.482 4.372 3.733.8c.384.083.707.34.873.697l1.608 3.461zm10.01 2.855V52.35a16.273 16.273 0 0 1-4.715-1.076l-3.04 6.313 3.71-.898a1.257 1.257 0 0 1 1.088.248l2.957 2.418zM36 49.894c7.66 0 13.893-6.233 13.893-13.894 0-7.66-6.232-13.893-13.893-13.893-7.66 0-13.893 6.232-13.893 13.893 0 7.66 6.232 13.893 13.893 13.893zm5.296 6.794l3.712.899-3.041-6.314c-1.48.58-3.064.951-4.715 1.076v7.005l2.957-2.418c.304-.248.706-.34 1.087-.248zm8.447-4.348l3.734-.8-5.482-4.373a16.511 16.511 0 0 1-3.774 3.015l3.041 6.315 1.608-3.46c.166-.356.489-.614.873-.697zm5.734-7.581l3.017-2.343-6.831-1.558a16.346 16.346 0 0 1-2.105 4.354l5.482 4.371-.047-3.82a1.251 1.251 0 0 1 .484-1.004zm1.866-8.2a1.251 1.251 0 0 1 0-1.117l1.704-3.416-6.828 1.557a16.462 16.462 0 0 1 0 4.834l6.828 1.557-1.704-3.415zM36 26.243c5.38 0 9.757 4.377 9.757 9.757 0 1.979-.59 3.884-1.705 5.511a1.252 1.252 0 0 1-2.065-1.415A7.213 7.213 0 0 0 43.253 36c0-4-3.253-7.253-7.253-7.253S28.747 32 28.747 36 32 43.253 36 43.253c1.199 0 2.387-.298 3.434-.863a1.252 1.252 0 0 1 1.188 2.205A9.775 9.775 0 0 1 36 45.757c-5.38 0-9.757-4.377-9.757-9.757S30.62 26.243 36 26.243zm4.04 12.027a1.252 1.252 0 1 1-1.77 1.77L36 37.77l-2.27 2.27a1.248 1.248 0 0 1-1.77 0 1.252 1.252 0 0 1 0-1.77L34.23 36l-2.27-2.27a1.252 1.252 0 1 1 1.77-1.77L36 34.23l2.27-2.27a1.252 1.252 0 0 1 1.77 1.77L37.77 36l2.27 2.27z"/>
</symbol>

<symbol id="shape-oval" xmlns="http://www.w3.org/2000/svg"  viewBox="0 0 73 60">
    <path fill="#BE1D24" fill-rule="nonzero" d="M.521 30.403a3.45 3.45 0 0 1 0-.763c.092-6.258 2.573-12.053 6.728-16.8.047-.066.1-.126.158-.179C13.957 5.296 24.563.5 36.51.5c5.322 0 10.378.952 14.928 2.659a1.11 1.11 0 0 1 .387.147c5.499 2.128 10.24 5.365 13.788 9.357.057.052.108.11.154.174C70.003 17.675 72.5 23.603 72.5 30c0 11.818-8.522 22.035-20.795 26.74-.05.023-.1.042-.152.058-4.58 1.734-9.676 2.702-15.044 2.702-5.369 0-10.467-.969-15.048-2.704a1.114 1.114 0 0 1-.138-.052c-5.55-2.126-10.335-5.38-13.911-9.4a1.124 1.124 0 0 1-.167-.189C3.101 42.42.624 36.642.521 30.403zm4.735-3.488c.62-3.97 2.42-7.653 5.112-10.822L8.4 14.949c-2.85 3.456-4.749 7.465-5.392 11.78a3.34 3.34 0 0 1 2.247.186zm.006 6.204a3.331 3.331 0 0 1-2.247.19c.648 4.301 2.545 8.297 5.387 11.743l1.966-1.144c-2.684-3.16-4.482-6.832-5.106-10.789zm-2.493-2.89c.098.525.556.923 1.105.923A1.13 1.13 0 0 0 5 30.018a1.13 1.13 0 0 0-1.125-1.134c-.55 0-1.009.4-1.106.926a22.657 22.657 0 0 0 0 .418zm62.98-.538c-.084-4.859-2.145-9.354-5.585-13.022a1.122 1.122 0 0 1-.157-.165c-2.915-3.049-6.79-5.513-11.274-7.121-.1-.02-.199-.055-.293-.104-3.514-1.223-7.393-1.924-11.473-1.973a3.361 3.361 0 0 1-.95 0c-4.078.053-7.957.757-11.47 1.984a1.117 1.117 0 0 1-.23.081c-4.49 1.605-8.37 4.067-11.289 7.115a1.119 1.119 0 0 1-.188.198C9.336 20.427 7.266 25.03 7.266 30c0 4.992 2.088 9.613 5.62 13.364.033.031.065.065.095.1 2.908 3.053 6.777 5.523 11.258 7.137.133.02.264.065.387.136 3.633 1.26 7.654 1.96 11.883 1.96 4.154 0 8.107-.676 11.69-1.893a1.13 1.13 0 0 1 .747-.264c9.799-3.588 16.633-11.28 16.802-20.2a3.455 3.455 0 0 1 .001-.649zm2.005 3.443c-.627 3.95-2.423 7.617-5.104 10.773l1.966 1.145c2.844-3.449 4.742-7.448 5.388-11.754a3.34 3.34 0 0 1-2.25-.164zM68 30.215c.093.532.554.937 1.108.937a1.13 1.13 0 0 0 1.124-1.134 1.13 1.13 0 0 0-1.124-1.134c-.554 0-1.014.404-1.108.935a20.179 20.179 0 0 1 0 .396zm-.24-3.315a3.33 3.33 0 0 1 2.25-.16c-.641-4.32-2.541-8.333-5.394-11.791l-1.965 1.144c2.688 3.166 4.487 6.844 5.109 10.807zM39.627 54.843a3.408 3.408 0 0 1 .086 2.267 40.11 40.11 0 0 0 9.874-2.007l-1.146-2a38.063 38.063 0 0 1-8.814 1.74zm-6.27-.003a38.057 38.057 0 0 1-8.78-1.737l-1.145 2a40.106 40.106 0 0 0 9.836 2.005 3.414 3.414 0 0 1 .088-2.268zm3.13 2.392h.006a1.13 1.13 0 0 0 1.123-1.134 1.13 1.13 0 0 0-1.125-1.134 1.13 1.13 0 0 0-1.125 1.134 1.13 1.13 0 0 0 1.121 1.134zM33.342 5.161a3.408 3.408 0 0 1-.062-2.27c-3.46.267-6.77.957-9.848 2.005l1.145 2a38.055 38.055 0 0 1 8.765-1.735zm2.87-.124a40.365 40.365 0 0 1 .56 0c.485-.127.844-.572.844-1.099a1.13 1.13 0 0 0-1.125-1.134 1.13 1.13 0 0 0-1.125 1.134c0 .529.36.973.845 1.099zm3.429.121c3.085.243 6.04.84 8.8 1.739l1.146-2a40.11 40.11 0 0 0-9.886-2.008 3.414 3.414 0 0 1-.06 2.27zm21.43 40.449c-2.83 2.794-6.403 5.097-10.478 6.719l1.133 1.976c4.433-1.815 8.305-4.398 11.348-7.53l-2.002-1.165zM11.948 14.393c2.83-2.794 6.403-5.097 10.478-6.719l-1.132-1.977c-4.434 1.816-8.307 4.399-11.35 7.531l2.004 1.165zm10.478 37.933c-4.075-1.622-7.647-3.925-10.478-6.718l-2.003 1.165c3.043 3.132 6.916 5.715 11.35 7.53l1.131-1.977zM50.593 7.674c4.076 1.622 7.648 3.925 10.48 6.72l2.001-1.166c-3.042-3.132-6.915-5.715-11.348-7.53l-1.133 1.976zm-25.331 12.12c0-.29.11-.58.33-.802a1.117 1.117 0 0 1 1.59 0l20.247 20.413c.44.443.44 1.16 0 1.603-.44.444-1.15.444-1.59 0L25.59 20.595c-.22-.22-.33-.511-.33-.801zm1.104 10.223c0-.29.11-.58.33-.802a1.117 1.117 0 0 1 1.59 0l9 9.074c.44.443.44 1.16 0 1.603-.44.444-1.15.444-1.59 0l-9-9.073a1.14 1.14 0 0 1-.33-.802zm8.998-9.071c0-.29.11-.58.33-.802a1.117 1.117 0 0 1 1.59 0l9 9.074c.44.443.44 1.16 0 1.603-.44.444-1.15.444-1.59 0l-9-9.073a1.14 1.14 0 0 1-.33-.802z"/>
</symbol>
<symbol id="shape-road" xmlns="http://www.w3.org/2000/svg"  viewBox="0 0 64 78">
    <path fill="#BE1D24" fill-rule="nonzero" d="M54.989 77c-.073.567-.488 1-.989 1-.502 0-.916-.433-.989-1H50.99c-.073.567-.488 1-.989 1-.502 0-.916-.433-.989-1H45.99c-.073.567-.488 1-.989 1-.502 0-.916-.433-.989-1H40.99c-.073.567-.488 1-.989 1-.502 0-.916-.433-.989-1H35.99c-.073.567-.488 1-.989 1-.502 0-.916-.433-.989-1H30.99c-.073.567-.487 1-.989 1-.501 0-.916-.433-.989-1H25.99c-.073.567-.487 1-.989 1-.501 0-.916-.433-.989-1H21.99c-.073.567-.488 1-.989 1-.502 0-.916-.433-.989-1h-4.43c-1.395.642-2.947 1-4.581 1-6.066 0-11-4.934-11-11a11.171 11.171 0 0 1 0-.208V11.208c0-.073.005-.145.016-.215A1.192 1.192 0 0 1 0 10.8C0 4.845 4.934 0 11 0c5.792 0 10.552 4.417 10.97 10h40.814c.041 0 .083.002.123.005a.91.91 0 0 1 .773.319.907.907 0 0 1 .315.768c.003.04.005.08.005.122v65.572c0 .67-.447 1.214-1 1.214-.493 0-.901-.431-.985-1H54.99zM53 75v-2h-2v2h2zm2 0h7v-6h-3v2.792c0 .04-.002.08-.005.118a.914.914 0 0 1-.321.774.91.91 0 0 1-.762.311 1.466 1.466 0 0 1-.115.005H55v2zm-6 0v-2h-3v2h3zm-5 0v-2h-3v2h3zm-5 0v-2h-3v2h3zm-5 0v-2h-3v2h3zm-12 0h2v-2h-2v2zm-2 0v-1.682A11.088 11.088 0 0 1 18.543 75H20zm6 0h3v-2h-3v2zm36-8v-3h-3v3h3zm0-5v-3h-3v3h3zm0-5v-3h-3v3h3zm0-5v-2h-3v2h3zm0-4v-3h-3v3h3zm0-5v-3h-3v3h3zm0-5v-3h-3v3h3zm0-5v-3h-3v3h3zm0-5v-3h-3v3h3zm0-5v-2h-3v2h3zm0-4v-7h-7v3h2.789c.04 0 .08.002.12.005a.912.912 0 0 1 .773.32.909.909 0 0 1 .313.764c.003.04.005.08.005.12V19h3zm-9-7h-2v3h2v-3zm-4 0h-3v3h3v-3zm-5 0h-3v3h3v-3zm-5 0h-3v3h3v-3zm-5 0h-3v3h3v-3zm-8 0v3h3v-3h-3zm-2 0h-2v3h2v-3zm-2.753 59H57V17H22v3h25.8c.066 0 .13.004.193.013a1.166 1.166 0 0 1 1.34 1.154 3.507 3.507 0 0 0 2.806 3.43c.174-.357.494-.597.861-.597.553 0 1 .545 1 1.219V61.78c0 .07-.005.138-.014.204a1.166 1.166 0 0 1-1.153 1.348c-1.93 0-3.5 1.57-3.5 3.5a1.166 1.166 0 0 1-1.34 1.154A1.448 1.448 0 0 1 47.8 68H21.955a10.917 10.917 0 0 1-.708 3zm-2.813.23a8.492 8.492 0 0 0 1.082-3.408c-.312-.18-.516-.481-.516-.822 0-.341.204-.642.516-.822-.415-4.333-4.077-7.734-8.516-7.734-4.716 0-8.556 3.84-8.556 8.556 0 4.43 3.387 8.086 7.707 8.514.204-.307.597-.514 1.05-.514h2.832a8.604 8.604 0 0 0 3.972-3.094.96.96 0 0 1 .43-.676zM20 16.985c-.569-.082-1-.492-1-.985 0-.494.431-.903 1-.985v-3.03c-.57-.084-1-.493-1-.985 0-.344.21-.648.532-.827C19.204 5.833 15.502 2.4 11 2.4c-4.716 0-8.556 3.77-8.556 8.4 0 .373-.172.706-.444.926v48.956A10.995 10.995 0 0 1 11 56c3.68 0 6.944 1.816 8.942 4.6a1.25 1.25 0 0 1 .058-.013V57.98c-.57-.105-1-.595-1-1.185 0-.59.43-1.08 1-1.186v-2.627c-.57-.1-1-.583-1-1.165 0-.582.43-1.066 1-1.166v-1.678c-.572-.118-1-.606-1-1.191 0-.586.428-1.073 1-1.192v-6.178c-.572-.119-1-.607-1-1.192s.428-1.073 1-1.191V36.35c-.57-.1-1-.583-1-1.166 0-.582.43-1.065 1-1.165v-2.627c-.57-.105-1-.595-1-1.186 0-.59.43-1.08 1-1.185v-2.608a1.22 1.22 0 0 1-1-1.196c0-.594.43-1.088 1-1.195v-2.036c-.568-.079-1-.49-1-.986s.432-.907 1-.986v-3.03zM39.451 66h2.578c.392-5.32 4.652-9.58 9.971-9.97V53.45C45.26 53.844 39.844 59.26 39.451 66zm-2.432 0c.398-8.08 6.9-14.583 14.981-14.98V36.98c-8.08-.396-14.583-6.898-14.98-14.98H22v2.077c10.074.884 18 9.258 18 19.423s-7.926 18.539-18 19.423V66h15.02zm7.419 0h2.621A5.847 5.847 0 0 1 52 61.06v-2.622A8.417 8.417 0 0 0 44.438 66zm-4.984-44c.393 6.74 5.807 12.154 12.546 12.546v-2.575c-5.32-.39-9.58-4.651-9.97-9.971h-2.576zm4.987 0A8.408 8.408 0 0 0 52 29.559v-2.618A5.847 5.847 0 0 1 47.06 22H44.44zM22 38.256c2.316.706 4 2.79 4 5.244 0 2.455-1.683 4.539-4 5.244v1.675c3.19-.775 5.561-3.583 5.561-6.919 0-3.336-2.37-6.144-5.561-6.92v1.676zm0 2.673v5.142c.877-.546 1.46-1.494 1.46-2.571 0-1.077-.583-2.025-1.46-2.571zm0-6.771c4.546.815 8 4.694 8 9.342 0 4.648-3.454 8.527-8 9.342v2.62c5.953-.845 10.542-5.887 10.542-11.962S27.953 32.383 22 31.537v2.62zm0-7.635v2.58c7.313.862 13 6.99 13 14.397s-5.687 13.535-13 14.396v2.581c8.711-.875 15.532-8.155 15.532-16.977 0-8.822-6.82-16.102-15.532-16.977zM11 74c-3.86 0-7-3.14-7-7s3.14-7 7-7 7 3.14 7 7-3.14 7-7 7zm0-11.667A4.671 4.671 0 0 0 6.333 67 4.671 4.671 0 0 0 11 71.667 4.671 4.671 0 0 0 15.667 67 4.671 4.671 0 0 0 11 62.333zM10.5 70C8.57 70 7 68.43 7 66.5S8.57 63 10.5 63s3.5 1.57 3.5 3.5-1.57 3.5-3.5 3.5zm0-4.667a1.167 1.167 0 1 0 0 2.334 1.167 1.167 0 0 0 0-2.334zM53.003 22A1.002 1.002 0 0 1 52 21c0-.553.441-1 .991-1h.012a.999.999 0 1 1 0 2zm0 46A1.002 1.002 0 0 1 52 67c0-.553.441-1 .991-1h.012a1 1 0 1 1 0 2zM45.5 47c-.298 0-.598-.114-.825-.342l-2.333-2.333a1.165 1.165 0 0 1 0-1.65l2.333-2.333a1.165 1.165 0 0 1 1.65 0l2.333 2.333a1.165 1.165 0 0 1 0 1.65l-2.333 2.333A1.165 1.165 0 0 1 45.5 47zm-.684-3.5l.684.684.684-.684-.684-.683-.684.683z"/>
</symbol>
<symbol id="shape-figured" xmlns="http://www.w3.org/2000/svg"  viewBox="0 0 72 72">
    <path fill="#BE1D24" fill-rule="nonzero" d="M25.039 63.984a13.116 13.116 0 0 0 3.184 3.363l-1.243 1.685a15.189 15.189 0 0 1-3.293-3.32c-1.55.247-3.138.252-4.678.023l.309-2.072c1.525.227 3.11.188 4.632-.13l.698-.145.391.596zM8.81 54.698a13.15 13.15 0 0 0 3.215 5.272 12.941 12.941 0 0 0 5.272 3.223l-.635 1.996a15.223 15.223 0 0 1-6.118-3.738 15.256 15.256 0 0 1-3.729-6.116l1.995-.637zm-.352-6.664a13.115 13.115 0 0 0-.123 4.63l-2.07.313c-.236-1.559-.23-3.129.017-4.678a15.196 15.196 0 0 1-3.32-3.296l1.686-1.243a13.106 13.106 0 0 0 3.36 3.187l.594.391-.144.696zm-6.365-12.05c0 2.087.504 4.166 1.46 6.012l-1.86.962A15.256 15.256 0 0 1 0 35.984c0-2.414.582-4.82 1.682-6.956l1.861.96a13.148 13.148 0 0 0-1.45 5.996zm5.915-10.963a13.113 13.113 0 0 0-3.36 3.187l-1.685-1.242a15.164 15.164 0 0 1 3.319-3.297 15.188 15.188 0 0 1-.018-4.678l2.07.313a13.136 13.136 0 0 0 .123 4.63l.144.697-.593.39zm4.016-13.023a13.149 13.149 0 0 0-3.218 5.283l-1.995-.636a15.249 15.249 0 0 1 9.838-9.862l.638 1.995a12.961 12.961 0 0 0-5.263 3.22zM23.95 8.434a13.246 13.246 0 0 0-4.63-.13l-.31-2.072a15.315 15.315 0 0 1 4.678.024 15.208 15.208 0 0 1 3.293-3.32l1.243 1.685a13.107 13.107 0 0 0-3.185 3.363l-.391.595-.698-.145zm18.047-4.919c-3.69-1.903-8.323-1.9-12.01.009l-.962-1.861c4.279-2.214 9.65-2.218 13.931-.01l-.96 1.862zm4.964 4.47a13.136 13.136 0 0 0-3.185-3.364l1.243-1.685a15.194 15.194 0 0 1 3.294 3.32 15.368 15.368 0 0 1 4.678-.023l-.31 2.072a13.233 13.233 0 0 0-4.631.13l-.698.144-.391-.595zM63.19 17.27a13.163 13.163 0 0 0-3.216-5.273 12.96 12.96 0 0 0-5.272-3.223l.635-1.996c2.286.728 4.401 2.02 6.118 3.738a15.267 15.267 0 0 1 3.729 6.116l-1.994.638zm.35 6.664c.317-1.529.358-3.087.124-4.63l2.071-.313c.236 1.558.23 3.129-.018 4.679 1.27.92 2.385 2.026 3.32 3.296L67.35 28.21a13.118 13.118 0 0 0-3.36-3.188l-.593-.39.143-.697zm6.768 5.076A15.258 15.258 0 0 1 72 35.984a15.26 15.26 0 0 1-1.682 6.955l-1.862-.96a13.162 13.162 0 0 0 1.45-5.996c0-2.087-.505-4.165-1.458-6.01l1.86-.962zM63.99 46.948a13.102 13.102 0 0 0 3.36-3.188L69.034 45a15.168 15.168 0 0 1-3.318 3.298c.247 1.55.252 3.12.017 4.678l-2.07-.312a13.097 13.097 0 0 0-.123-4.63l-.143-.697.593-.39zm-4.016 13.021a13.16 13.16 0 0 0 3.218-5.282l1.995.637a15.255 15.255 0 0 1-3.732 6.126 15.221 15.221 0 0 1-6.105 3.735l-.639-1.995a12.957 12.957 0 0 0 5.263-3.221zm-11.927 3.565c1.536.317 3.118.356 4.632.128l.31 2.072c-1.53.23-3.12.227-4.678-.023a15.216 15.216 0 0 1-3.294 3.321l-1.243-1.685a13.138 13.138 0 0 0 3.186-3.363l.39-.595.697.145zm-18.045 4.918c3.692 1.904 8.323 1.9 12.01-.007l.96 1.86A15.237 15.237 0 0 1 36 72c-2.413 0-4.818-.583-6.957-1.686l.96-1.862zm20.707-7.576a10.24 10.24 0 0 1-4.93-1.273 10.18 10.18 0 0 1-9.781 7.37 10.18 10.18 0 0 1-9.782-7.37 10.223 10.223 0 0 1-4.93 1.273c-2.716 0-5.27-1.058-7.191-2.98a10.188 10.188 0 0 1-1.71-12.128 10.184 10.184 0 0 1-7.363-9.784c0-4.6 3.07-8.554 7.364-9.785a10.189 10.189 0 0 1 1.709-12.128 10.1 10.1 0 0 1 7.191-2.98c1.728 0 3.431.446 4.931 1.273A10.18 10.18 0 0 1 36 4.994a10.18 10.18 0 0 1 9.78 7.371 10.223 10.223 0 0 1 4.931-1.273c2.716 0 5.27 1.058 7.191 2.98a10.188 10.188 0 0 1 1.71 12.128 10.183 10.183 0 0 1-.001 19.568 10.187 10.187 0 0 1-1.709 12.127 10.103 10.103 0 0 1-7.192 2.981zm-6.467-4.98l1.467 1.156a8.11 8.11 0 0 0 5 1.729 8.026 8.026 0 0 0 5.71-2.367 8.088 8.088 0 0 0 .638-10.715l-1.156-1.468 1.855-.22a8.084 8.084 0 0 0 7.123-8.028 8.083 8.083 0 0 0-7.123-8.028l-1.854-.22 1.155-1.467a8.089 8.089 0 0 0-.637-10.716 8.022 8.022 0 0 0-5.71-2.367 8.113 8.113 0 0 0-5.001 1.73l-1.467 1.156-.22-1.855a8.084 8.084 0 0 0-8.025-7.127 8.082 8.082 0 0 0-8.025 7.126l-.22 1.855-1.467-1.156a8.113 8.113 0 0 0-5-1.73 8.025 8.025 0 0 0-5.711 2.367 8.088 8.088 0 0 0-.637 10.716l1.156 1.468-1.854.22a8.084 8.084 0 0 0-7.123 8.028 8.083 8.083 0 0 0 7.123 8.028l1.854.22-1.156 1.468a8.089 8.089 0 0 0 .638 10.716 8.022 8.022 0 0 0 5.71 2.366c1.81 0 3.586-.613 5-1.73l1.468-1.155.22 1.855a8.082 8.082 0 0 0 16.05 0l.22-1.855zm-9.29-45.3h2.093v3.002h-2.093v-3.002zm0 47.774h2.093v3.001h-2.093V58.37zm23.422-23.433h3.001v2.094h-3v-2.094zm-47.753 0h3v2.094h-3v-2.094zm42.582 19.74l-2.122-2.123 1.48-1.48 2.123 2.122-1.48 1.481zM44.763 43.27l7.01 7.012-1.481 1.481-7.01-7.012a11.346 11.346 0 0 1-6.236 2.586v9.914h-2.093v-9.915a11.346 11.346 0 0 1-6.236-2.586l-7.01 7.013-1.48-1.482 7.01-7.012a11.353 11.353 0 0 1-2.586-6.239h-9.91v-2.094h9.91a11.356 11.356 0 0 1 2.585-6.239l-7.01-7.012 1.48-1.481 7.01 7.012a11.346 11.346 0 0 1 6.236-2.586v-9.915h2.094v9.916a11.346 11.346 0 0 1 6.235 2.586l7.01-7.012 1.48 1.48-7.01 7.013a11.35 11.35 0 0 1 2.586 6.239h9.912v2.094h-9.911a11.359 11.359 0 0 1-2.585 6.239zM36 45.295c5.132 0 9.307-4.176 9.307-9.311 0-5.134-4.175-9.312-9.307-9.312-5.132 0-9.308 4.178-9.308 9.312 0 5.135 4.176 9.311 9.308 9.311zM18.796 17.291l2.121 2.122-1.48 1.482-2.122-2.123 1.48-1.481zm-.002 37.386l-1.48-1.48 2.122-2.124 1.48 1.481-2.122 2.123zm34.41-37.386l1.48 1.48-2.123 2.124-1.48-1.481 2.122-2.123z"/>
</symbol>

<symbol id="cameraLg" xmlns="http://www.w3.org/2000/svg" viewBox="0 0 80 75">
    <path fill-rule="nonzero" d="M72.188 40.627c.865 0 1.56.696 1.56 1.56 0 .805-.605 1.474-1.404 1.553a1.558 1.558 0 0 1-1.717-1.553c0-.865.696-1.56 1.56-1.56zM40 34.377c.865 0 1.56.696 1.56 1.56 0 .923-.79 1.645-1.716 1.553-.8-.08-1.405-.749-1.405-1.553 0-.865.697-1.56 1.561-1.56zm0-6.252c11.2 0 20.313 9.112 20.313 20.313 0 11.2-9.113 20.312-20.313 20.312s-20.313-9.112-20.313-20.313c0-11.2 9.113-20.312 20.313-20.312zm0 37.5c9.477 0 17.188-7.71 17.188-17.188 0-9.477-7.71-17.187-17.188-17.187-9.477 0-17.188 7.71-17.188 17.188 0 9.477 7.71 17.187 17.188 17.187zm6.808-29.49a14.085 14.085 0 0 1 7.255 12.303 1.563 1.563 0 0 1-3.126 0c0-3.97-2.163-7.637-5.646-9.57a1.562 1.562 0 1 1 1.517-2.733zM75.313 25A4.693 4.693 0 0 1 80 29.688v37.5a4.693 4.693 0 0 1-4.688 4.687H52.504A26.602 26.602 0 0 1 40 75a26.604 26.604 0 0 1-12.503-3.125H4.687A4.693 4.693 0 0 1 0 67.187v-37.5A4.693 4.693 0 0 1 4.688 25H6.25v-4.688c0-.862.7-1.562 1.563-1.562h6.25c.862 0 1.562.7 1.562 1.563V25h11.872a26.5 26.5 0 0 1 4.69-1.954V18.75H27.5a4.693 4.693 0 0 1-4.688-4.688V4.688A4.693 4.693 0 0 1 27.5 0h25a4.693 4.693 0 0 1 4.688 4.688v9.375A4.693 4.693 0 0 1 52.5 18.75h-4.688v4.296A26.49 26.49 0 0 1 52.504 25h11.872v-4.688c0-.862.7-1.562 1.563-1.562h6.25c.862 0 1.562.7 1.562 1.563V25h1.563zM67.5 21.875V25h3.125v-3.125H67.5zm-40-6.25h25c.862 0 1.563-.7 1.563-1.563V4.688c0-.862-.701-1.563-1.563-1.563h-25c-.862 0-1.563.7-1.563 1.563v9.375c0 .861.701 1.562 1.563 1.562zm17.188 3.125h-9.376v3.54A26.765 26.765 0 0 1 40 21.876c1.577 0 3.146.142 4.688.416V18.75zM9.374 21.875V25H12.5v-3.125H9.375zm-6.25 7.813v4.687h14.337a26.724 26.724 0 0 1 5.424-6.266H4.688c-.862 0-1.563.717-1.563 1.578zm0 7.796v21.891h12.664a26.593 26.593 0 0 1-2.351-10.938c0-3.785.807-7.534 2.351-10.953H3.125zM4.688 68.75h18.198a26.65 26.65 0 0 1-5.424-6.25H3.125v4.688c0 .861.7 1.562 1.563 1.562zM40 71.875c12.907 0 23.438-10.455 23.438-23.438C63.438 35.496 52.944 25 40 25c-13.002 0-23.438 10.552-23.438 23.438 0 12.933 10.484 23.437 23.438 23.437zm36.875-4.688V62.5H62.538a26.648 26.648 0 0 1-5.424 6.25h18.199c.861 0 1.562-.7 1.562-1.563zm0-7.812V37.5H64.211a26.594 26.594 0 0 1 2.352 10.938c0 3.785-.808 7.519-2.352 10.937h12.664zm0-25v-4.688c0-.861-.7-1.562-1.563-1.562H57.114a26.642 26.642 0 0 1 5.424 6.25h14.337zM49.375 6.25c.863 0 1.563.7 1.563 1.563v3.125a1.563 1.563 0 0 1-3.126 0V7.812c0-.862.7-1.562 1.563-1.562z"/>
</symbol>

<symbol id="chat" xmlns="http://www.w3.org/2000/svg" viewBox="0 0 80 72">
    <path fill="#BE1D24" fill-rule="nonzero" d="M40 15.652a1.565 1.565 0 0 1 0 3.13 1.565 1.565 0 0 1 0-3.13zM14.062 43.826a1.565 1.565 0 0 1 0-3.13 1.565 1.565 0 0 1 0 3.13zM52.5 0C66.431 0 80 9.879 80 23.478c0 5.47-2.16 10.77-6.094 14.969a9.53 9.53 0 0 0 2.511 8.968c.447.448.58 1.12.339 1.706a1.562 1.562 0 0 1-1.444.966 17.22 17.22 0 0 1-11.941-4.835c-2.692.919-6.095 1.524-9.366 1.67C53.109 59.157 41.565 68.87 27.5 68.87c-3.707 0-7.762-.644-10.871-1.705A17.22 17.22 0 0 1 4.687 72a1.562 1.562 0 0 1-1.443-.966 1.568 1.568 0 0 1 .339-1.706 9.53 9.53 0 0 0 2.51-8.968C2.162 56.16 0 50.86 0 45.39c0-13.088 12.598-22.765 25.995-23.438C26.888 9.715 38.433 0 52.5 0zm-25 65.74c12.924 0 23.438-9.129 23.438-20.349 0-11.656-10.961-20.348-23.438-20.348-13.213 0-24.375 9.318-24.375 20.348 0 4.783 1.953 9.432 5.497 13.09.18.185.312.412.383.661.896 3.157.52 6.49-.953 9.316a14.094 14.094 0 0 0 7.012-4.169 1.56 1.56 0 0 1 1.731-.397c2.815 1.122 7.017 1.847 10.705 1.847zm43.878-29.173c3.544-3.657 5.497-8.306 5.497-13.089 0-11.03-11.162-20.348-24.375-20.348-12.335 0-22.474 8.316-23.372 18.829 4.099.221 8.081 1.276 11.628 3.084h25.181c.864 0 1.563.701 1.563 1.566 0 .864-.7 1.565-1.563 1.565h-20.38c5.039 4.13 7.986 9.694 8.443 15.613 3.285-.163 6.765-.836 9.205-1.808a1.562 1.562 0 0 1 1.73.397 14.09 14.09 0 0 0 7.013 4.169 12.678 12.678 0 0 1-.953-9.316 1.57 1.57 0 0 1 .383-.662zM40 40.696c.863 0 1.563.7 1.563 1.565 0 .864-.7 1.565-1.563 1.565H20.312c-.863 0-1.562-.7-1.562-1.565s.7-1.565 1.563-1.565H40zm0 9.391c.863 0 1.563.7 1.563 1.565s-.7 1.565-1.563 1.565H14.062c-.863 0-1.562-.7-1.562-1.565 0-.864.7-1.565 1.563-1.565H40zm25.938-34.435c.863 0 1.562.7 1.562 1.565s-.7 1.566-1.563 1.566H46.25c-.863 0-1.563-.701-1.563-1.566 0-.864.7-1.565 1.563-1.565h19.688z"/>
</symbol>
<symbol id="care" xmlns="http://www.w3.org/2000/svg" viewBox="0 0 80 74">
    <path fill="#BE1D24" fill-rule="nonzero" d="M78.438 59.497c.862 0 1.562.702 1.562 1.568v11.367c0 .866-.7 1.568-1.563 1.568a1.565 1.565 0 0 1-1.562-1.568v-9.799H52.812v9.8c0 .865-.699 1.567-1.562 1.567a1.565 1.565 0 0 1-1.563-1.568V61.065c0-.866.7-1.568 1.563-1.568v-9.28c0-4.332 1.476-8.587 4.156-11.982l5.174-6.552a5.788 5.788 0 0 1 5.413-2.168 5.801 5.801 0 0 1 4.596 3.597 5.887 5.887 0 0 1-.544 5.468l-5.54 8.371a1.559 1.559 0 0 1-2.166.439 1.57 1.57 0 0 1-.438-2.174l5.54-8.37c.501-.756.596-1.71.254-2.55a2.705 2.705 0 0 0-2.142-1.677 2.698 2.698 0 0 0-2.524 1.011l-5.173 6.552a16.258 16.258 0 0 0-3.481 10.034v9.281h24.063zm-.47-6.309c.29.292.457.697.457 1.109a1.565 1.565 0 0 1-1.563 1.568 1.562 1.562 0 0 1-1.562-1.568 1.568 1.568 0 0 1 1.563-1.568c.41 0 .814.168 1.104.46zm-3.002-31.846a45.303 45.303 0 0 1 3.459 17.409v9.066c0 .866-.7 1.568-1.563 1.568a1.565 1.565 0 0 1-1.562-1.568V38.75c0-5.59-1.084-11.043-3.22-16.206L64.954 5.327A3.508 3.508 0 0 0 62.87 3.34 3.492 3.492 0 0 0 60 3.56a3.544 3.544 0 0 0-1.579 4.525l7.545 17.754a1.57 1.57 0 0 1-.824 2.057 1.56 1.56 0 0 1-2.05-.827L55.548 9.315A6.67 6.67 0 0 1 58.519.8a6.659 6.659 0 0 1 5.396-.413 6.69 6.69 0 0 1 3.925 3.738l7.126 17.218zM60.07 66.527c.583.638.54 1.63-.097 2.215a1.556 1.556 0 0 1-2.207-.097l-.013-.014a1.572 1.572 0 0 1 .097-2.215 1.559 1.559 0 0 1 2.208.097l.012.014zm-31.321-7.03c.863 0 1.563.702 1.563 1.568v11.367c0 .866-.7 1.568-1.563 1.568a1.565 1.565 0 0 1-1.563-1.568v-9.8H3.125v9.8c0 .866-.7 1.568-1.563 1.568A1.565 1.565 0 0 1 0 72.432V61.065c0-.866.7-1.568 1.563-1.568h.013V38.751a45.303 45.303 0 0 1 3.459-17.409L12.16 4.125a6.69 6.69 0 0 1 3.925-3.74A6.66 6.66 0 0 1 21.48.8a6.67 6.67 0 0 1 2.971 8.516l-7.545 17.753a1.56 1.56 0 0 1-2.05.827 1.57 1.57 0 0 1-.824-2.057l7.545-17.754a3.544 3.544 0 0 0-1.58-4.525 3.492 3.492 0 0 0-2.867-.22 3.507 3.507 0 0 0-2.085 1.987L7.92 22.545A42.174 42.174 0 0 0 4.7 38.75v20.746h20.925v-9.28c0-3.628-1.236-7.192-3.481-10.035L16.97 33.63a2.699 2.699 0 0 0-2.523-1.01 2.704 2.704 0 0 0-2.142 1.676 2.744 2.744 0 0 0 .253 2.55l5.54 8.37a1.57 1.57 0 0 1-.437 2.174 1.559 1.559 0 0 1-2.166-.439l-5.54-8.37a5.887 5.887 0 0 1-.544-5.47 5.801 5.801 0 0 1 4.596-3.596 5.79 5.79 0 0 1 5.413 2.168l5.173 6.552a19.413 19.413 0 0 1 4.157 11.981v9.281zm-6.601 6.919c.636.584.68 1.576.097 2.215l-.012.013a1.556 1.556 0 0 1-2.208.098 1.572 1.572 0 0 1-.097-2.215l.012-.014a1.559 1.559 0 0 1 2.208-.097zm24.048-52.148c5.566 0 10.093 4.905 10.093 10.934 0 3.46-2.646 7.67-7.865 12.515-3.725 3.457-7.392 5.97-7.546 6.075a1.558 1.558 0 0 1-1.758 0c-.154-.105-3.821-2.618-7.546-6.075-5.22-4.845-7.865-9.056-7.865-12.515 0-6.029 4.527-10.934 10.093-10.934 2.25 0 4.437.825 6.197 2.304 1.76-1.479 3.947-2.304 6.197-2.304zm.132 21.122c4.409-4.097 6.836-7.716 6.836-10.188 0-4.3-3.125-7.798-6.968-7.798-1.907 0-3.688.848-5.015 2.388a1.56 1.56 0 0 1-2.364 0c-1.327-1.54-3.108-2.388-5.015-2.388-3.843 0-6.968 3.498-6.968 7.798 0 2.478 2.437 6.105 6.862 10.213 2.499 2.32 5.016 4.224 6.303 5.16 1.293-.94 3.827-2.859 6.33-5.185z"/>
</symbol>
<symbol id="mail" xmlns="http://www.w3.org/2000/svg" viewBox="0 0 48 48">
    <g fill="none" fill-rule="nonzero">
        <circle cx="24" cy="24" r="24" fill="#267CB5"/>
        <g fill="#FFF">
            <path d="M24 27.15l14.325-12.263a1.538 1.538 0 0 0-.825-.262h-27c-.3 0-.6.112-.825.262L24 27.15z"/>
            <path d="M24.975 28.275a1.483 1.483 0 0 1-1.95 0L9 16.312v15.563c0 .825.675 1.5 1.5 1.5h27c.825 0 1.5-.675 1.5-1.5v-15.6l-14.025 12z"/>
        </g>
    </g>
</symbol>

<symbol id="telegram" xmlns="http://www.w3.org/2000/svg"  viewBox="0 0 48 48">
    <defs>
        <linearGradient id="a" x1="50%" x2="50%" y1="0%" y2="99.635%">
            <stop offset="0%" stop-color="#41BCE7"/>
            <stop offset="100%" stop-color="#22A6DC"/>
        </linearGradient>
    </defs>
    <g fill="none" fill-rule="nonzero">
        <circle cx="24" cy="24" r="24" fill="url(#a)"/>
        <path fill="#FFF" d="M35.681 13.81l-4.284 21.609s-.6 1.5-2.25.778l-9.89-7.584-3.6-1.735L9.6 24.844s-.928-.328-1.022-1.05c-.094-.722 1.05-1.106 1.05-1.106l24.075-9.441c0-.01 1.978-.881 1.978.562z"/>
        <path fill="#D2E4F0" d="M18.488 35.175s-.291-.028-.647-1.163c-.357-1.134-2.185-7.134-2.185-7.134l14.54-9.234s.845-.507.807 0c0 0 .15.093-.3.506-.45.422-11.419 10.284-11.419 10.284"/>
        <path fill="#B5CFE4" d="M23.044 31.519l-3.91 3.572s-.309.234-.637.084l.75-6.628"/>
    </g>
</symbol>

<symbol id="viber" xmlns="http://www.w3.org/2000/svg" viewBox="0 0 48 48">
    <g fill="none" fill-rule="evenodd">
        <path d="M0 0h48v48H0z"/>
        <path fill="#7F4DA0" d="M26.775 16.787c.934.199 1.65.554 2.263 1.127.787.743 1.219 1.643 1.409 2.936.128.843.075 1.175-.223 1.45-.28.255-.797.265-1.11.023-.228-.17-.3-.35-.352-.838-.061-.65-.175-1.104-.37-1.525-.417-.895-1.152-1.36-2.395-1.511-.584-.071-.76-.137-.949-.36-.346-.412-.213-1.08.266-1.326.18-.09.256-.1.654-.076.247.014.613.057.807.1zm-1.01-3.577c2.88.422 5.109 1.757 6.57 3.927.821 1.222 1.333 2.657 1.509 4.196.061.564.061 1.592-.005 1.763a1.08 1.08 0 0 1-.432.468c-.185.095-.578.085-.797-.028-.365-.185-.474-.479-.474-1.274 0-1.227-.318-2.52-.868-3.525a7.205 7.205 0 0 0-2.647-2.752c-.954-.568-2.363-.99-3.648-1.094-.465-.038-.721-.133-.897-.336a.862.862 0 0 1-.071-1.071c.246-.383.626-.444 1.76-.274zm-11.172-2.922c.166.057.422.19.569.284.901.597 3.41 3.804 4.231 5.405.47.914.627 1.591.48 2.093-.152.54-.403.824-1.528 1.729-.45.364-.873.739-.94.838-.17.247-.308.73-.308 1.071.005.79.517 2.226 1.191 3.33.522.857 1.456 1.956 2.381 2.8 1.087.994 2.045 1.671 3.127 2.207 1.39.691 2.239.866 2.86.577a2.3 2.3 0 0 0 .375-.208c.047-.043.413-.488.81-.98.77-.967.945-1.123 1.472-1.303.669-.228 1.352-.166 2.04.184.522.27 1.66.976 2.395 1.488.968.677 3.036 2.363 3.316 2.7.493.606.579 1.383.247 2.24-.351.905-1.717 2.6-2.67 3.325-.864.654-1.476.905-2.283.943-.664.033-.939-.024-1.788-.374-6.66-2.743-11.978-6.835-16.2-12.458-2.206-2.936-3.885-5.982-5.033-9.142-.67-1.842-.702-2.643-.152-3.585.237-.398 1.247-1.383 1.983-1.933 1.224-.91 1.788-1.245 2.239-1.34.308-.067.845-.015 1.186.109zm10.844-.512c1.632.204 2.95.597 4.398 1.303 1.423.696 2.334 1.355 3.539 2.553 1.129 1.132 1.755 1.99 2.42 3.32.925 1.857 1.451 4.064 1.541 6.494.033.829.01 1.014-.18 1.25-.36.46-1.153.384-1.424-.132-.085-.17-.109-.317-.137-.98-.048-1.02-.119-1.677-.261-2.464-.56-3.083-2.04-5.546-4.403-7.313-1.968-1.478-4.003-2.198-6.67-2.354-.9-.053-1.057-.086-1.261-.242-.38-.299-.399-1-.034-1.326.224-.204.38-.232 1.153-.209.404.015.997.062 1.32.1zM24 0c13.255 0 24 10.745 24 24S37.255 48 24 48 0 37.255 0 24 10.745 0 24 0z"/>
    </g>
</symbol>

<symbol id="whatsup" xmlns="http://www.w3.org/2000/svg" viewBox="0 0 48 48">
    <g fill="none" fill-rule="nonzero">
        <path fill="#4CAF50" d="M24.006 0h-.012C10.761 0 0 10.764 0 24c0 5.25 1.692 10.116 4.569 14.067l-2.991 8.916 9.225-2.949A23.792 23.792 0 0 0 24.006 48C37.239 48 48 37.233 48 24S37.239 0 24.006 0z"/>
        <path fill="#FAFAFA" d="M37.971 33.891c-.579 1.635-2.877 2.991-4.71 3.387-1.254.267-2.892.48-8.406-1.806-7.053-2.922-11.595-10.089-11.949-10.554-.339-.465-2.85-3.795-2.85-7.239s1.749-5.121 2.454-5.841c.579-.591 1.536-.861 2.454-.861.297 0 .564.015.804.027.705.03 1.059.072 1.524 1.185.579 1.395 1.989 4.839 2.157 5.193.171.354.342.834.102 1.299-.225.48-.423.693-.777 1.101-.354.408-.69.72-1.044 1.158-.324.381-.69.789-.282 1.494.408.69 1.818 2.991 3.894 4.839 2.679 2.385 4.851 3.147 5.628 3.471.579.24 1.269.183 1.692-.267.537-.579 1.2-1.539 1.875-2.484.48-.678 1.086-.762 1.722-.522.648.225 4.077 1.92 4.782 2.271.705.354 1.17.522 1.341.819.168.297.168 1.692-.411 3.33z"/>
    </g>
</symbol>
<symbol id="check" xmlns="http://www.w3.org/2000/svg" viewBox="0 0 512 512" ><path stroke="#ffffff" d="M173.898 439.404l-166.4-166.4c-9.997-9.997-9.997-26.206 0-36.204l36.203-36.204c9.997-9.998 26.207-9.998 36.204 0L192 312.69 432.095 72.596c9.997-9.997 26.207-9.997 36.204 0l36.203 36.204c9.997 9.997 9.997 26.206 0 36.204l-294.4 294.401c-9.998 9.997-26.207 9.997-36.204-.001z"/></symbol>

<symbol id="chevron-down" xmlns="http://www.w3.org/2000/svg" viewBox="0 0 448 512"><path d="M207.029 381.476L12.686 187.132c-9.373-9.373-9.373-24.569 0-33.941l22.667-22.667c9.357-9.357 24.522-9.375 33.901-.04L224 284.505l154.745-154.021c9.379-9.335 24.544-9.317 33.901.04l22.667 22.667c9.373 9.373 9.373 24.569 0 33.941L240.971 381.476c-9.373 9.372-24.569 9.372-33.942 0z"/></symbol>
<symbol id="cameraCard" xmlns="http://www.w3.org/2000/svg" viewBox="0 0 512 512"><path d="M512 144v288c0 26.5-21.5 48-48 48H48c-26.5 0-48-21.5-48-48V144c0-26.5 21.5-48 48-48h88l12.3-32.9c7-18.7 24.9-31.1 44.9-31.1h125.5c20 0 37.9 12.4 44.9 31.1L376 96h88c26.5 0 48 21.5 48 48zM376 288c0-66.2-53.8-120-120-120s-120 53.8-120 120 53.8 120 120 120 120-53.8 120-120zm-32 0c0 48.5-39.5 88-88 88s-88-39.5-88-88 39.5-88 88-88 88 39.5 88 88z"/></symbol>

<symbol id="double-left" xmlns="http://www.w3.org/2000/svg" viewBox="0 0 448 512"><path d="M223.7 239l136-136c9.4-9.4 24.6-9.4 33.9 0l22.6 22.6c9.4 9.4 9.4 24.6 0 33.9L319.9 256l96.4 96.4c9.4 9.4 9.4 24.6 0 33.9L393.7 409c-9.4 9.4-24.6 9.4-33.9 0l-136-136c-9.5-9.4-9.5-24.6-.1-34zm-192 34l136 136c9.4 9.4 24.6 9.4 33.9 0l22.6-22.6c9.4-9.4 9.4-24.6 0-33.9L127.9 256l96.4-96.4c9.4-9.4 9.4-24.6 0-33.9L201.7 103c-9.4-9.4-24.6-9.4-33.9 0l-136 136c-9.5 9.4-9.5 24.6-.1 34z"/></symbol>
<symbol id="double-right" xmlns="http://www.w3.org/2000/svg" viewBox="0 0 448 512"><path d="M224.3 273l-136 136c-9.4 9.4-24.6 9.4-33.9 0l-22.6-22.6c-9.4-9.4-9.4-24.6 0-33.9l96.4-96.4-96.4-96.4c-9.4-9.4-9.4-24.6 0-33.9L54.3 103c9.4-9.4 24.6-9.4 33.9 0l136 136c9.5 9.4 9.5 24.6.1 34zm192-34l-136-136c-9.4-9.4-24.6-9.4-33.9 0l-22.6 22.6c-9.4 9.4-9.4 24.6 0 33.9l96.4 96.4-96.4 96.4c-9.4 9.4-9.4 24.6 0 33.9l22.6 22.6c9.4 9.4 24.6 9.4 33.9 0l136-136c9.4-9.2 9.4-24.4 0-33.8z"/></symbol>
<symbol id="infoCircle" xmlns="http://www.w3.org/2000/svg" viewBox="0 0 512 512"><path d="M256 8C119.043 8 8 119.083 8 256c0 136.997 111.043 248 248 248s248-111.003 248-248C504 119.083 392.957 8 256 8zm0 110c23.196 0 42 18.804 42 42s-18.804 42-42 42-42-18.804-42-42 18.804-42 42-42zm56 254c0 6.627-5.373 12-12 12h-88c-6.627 0-12-5.373-12-12v-24c0-6.627 5.373-12 12-12h12v-64h-12c-6.627 0-12-5.373-12-12v-24c0-6.627 5.373-12 12-12h64c6.627 0 12 5.373 12 12v100h12c6.627 0 12 5.373 12 12v24z"/></symbol>
<symbol id="minus" xmlns="http://www.w3.org/2000/svg" viewBox="0 0 448 512"><path d="M416 208H32c-17.67 0-32 14.33-32 32v32c0 17.67 14.33 32 32 32h384c17.67 0 32-14.33 32-32v-32c0-17.67-14.33-32-32-32z"/></symbol>
<symbol id="plus" xmlns="http://www.w3.org/2000/svg" viewBox="0 0 448 512"><path d="M416 208H272V64c0-17.67-14.33-32-32-32h-32c-17.67 0-32 14.33-32 32v144H32c-17.67 0-32 14.33-32 32v32c0 17.67 14.33 32 32 32h144v144c0 17.67 14.33 32 32 32h32c17.67 0 32-14.33 32-32V304h144c17.67 0 32-14.33 32-32v-32c0-17.67-14.33-32-32-32z"/></symbol>

<symbol id="closeCircle" xmlns="http://www.w3.org/2000/svg" viewBox="0 0 512 512"><path d="M256 8C119 8 8 119 8 256s111 248 248 248 248-111 248-248S393 8 256 8zm121.6 313.1c4.7 4.7 4.7 12.3 0 17L338 377.6c-4.7 4.7-12.3 4.7-17 0L256 312l-65.1 65.6c-4.7 4.7-12.3 4.7-17 0L134.4 338c-4.7-4.7-4.7-12.3 0-17l65.6-65-65.6-65.1c-4.7-4.7-4.7-12.3 0-17l39.6-39.6c4.7-4.7 12.3-4.7 17 0l65 65.7 65.1-65.6c4.7-4.7 12.3-4.7 17 0l39.6 39.6c4.7 4.7 4.7 12.3 0 17L312 256l65.6 65.1z"/></symbol>


<symbol id="longLeft" xmlns="http://www.w3.org/2000/svg" viewBox="0 0 448 512"><path d="M134.059 296H436c6.627 0 12-5.373 12-12v-56c0-6.627-5.373-12-12-12H134.059v-46.059c0-21.382-25.851-32.09-40.971-16.971L7.029 239.029c-9.373 9.373-9.373 24.569 0 33.941l86.059 86.059c15.119 15.119 40.971 4.411 40.971-16.971V296z"/></symbol>

<symbol id="facebookSq" xmlns="http://www.w3.org/2000/svg" viewBox="0 0 448 512"><path d="M400 32H48A48 48 0 0 0 0 80v352a48 48 0 0 0 48 48h137.25V327.69h-63V256h63v-54.64c0-62.15 37-96.48 93.67-96.48 27.14 0 55.52 4.84 55.52 4.84v61h-31.27c-30.81 0-40.42 19.12-40.42 38.73V256h68.78l-11 71.69h-57.78V480H400a48 48 0 0 0 48-48V80a48 48 0 0 0-48-48z"/></symbol>

<symbol id="twitterSq" xmlns="http://www.w3.org/2000/svg" viewBox="0 0 448 512"><path d="M400 32H48C21.5 32 0 53.5 0 80v352c0 26.5 21.5 48 48 48h352c26.5 0 48-21.5 48-48V80c0-26.5-21.5-48-48-48zm-48.9 158.8c.2 2.8.2 5.7.2 8.5 0 86.7-66 186.6-186.6 186.6-37.2 0-71.7-10.8-100.7-29.4 5.3.6 10.4.8 15.8.8 30.7 0 58.9-10.4 81.4-28-28.8-.6-53-19.5-61.3-45.5 10.1 1.5 19.2 1.5 29.6-1.2-30-6.1-52.5-32.5-52.5-64.4v-.8c8.7 4.9 18.9 7.9 29.6 8.3a65.447 65.447 0 0 1-29.2-54.6c0-12.2 3.2-23.4 8.9-33.1 32.3 39.8 80.8 65.8 135.2 68.6-9.3-44.5 24-80.6 64-80.6 18.9 0 35.9 7.9 47.9 20.7 14.8-2.8 29-8.3 41.6-15.8-4.9 15.2-15.2 28-28.8 36.1 13.2-1.4 26-5.1 37.8-10.2-8.9 13.1-20.1 24.7-32.9 34z"/></symbol>
  <symbol id="googleSq" xmlns="http://www.w3.org/2000/svg" viewBox="0 0 448 512"><path d="M400 32H48C21.5 32 0 53.5 0 80v352c0 26.5 21.5 48 48 48h352c26.5 0 48-21.5 48-48V80c0-26.5-21.5-48-48-48zM164 356c-55.3 0-100-44.7-100-100s44.7-100 100-100c27 0 49.5 9.8 67 26.2l-27.1 26.1c-7.4-7.1-20.3-15.4-39.8-15.4-34.1 0-61.9 28.2-61.9 63.2 0 34.9 27.8 63.2 61.9 63.2 39.6 0 54.4-28.5 56.8-43.1H164v-34.4h94.4c1 5 1.6 10.1 1.6 16.6 0 57.1-38.3 97.6-96 97.6zm220-81.8h-29v29h-29.2v-29h-29V245h29v-29H355v29h29v29.2z"/></symbol>

  <symbol id="mailSq" xmlns="http://www.w3.org/2000/svg" viewBox="0 0 512 512"><path d="M502.3 190.8c3.9-3.1 9.7-.2 9.7 4.7V400c0 26.5-21.5 48-48 48H48c-26.5 0-48-21.5-48-48V195.6c0-5 5.7-7.8 9.7-4.7 22.4 17.4 52.1 39.5 154.1 113.6 21.1 15.4 56.7 47.8 92.2 47.6 35.7.3 72-32.8 92.3-47.6 102-74.1 131.6-96.3 154-113.7zM256 320c23.2.4 56.6-29.2 73.4-41.4 132.7-96.3 142.8-104.7 173.4-128.7 5.8-4.5 9.2-11.5 9.2-18.9v-19c0-26.5-21.5-48-48-48H48C21.5 64 0 85.5 0 112v19c0 7.4 3.4 14.3 9.2 18.9 30.6 23.9 40.7 32.4 173.4 128.7 16.8 12.2 50.2 41.8 73.4 41.4z"/></symbol>

  <symbol id="caretDown" xmlns="http://www.w3.org/2000/svg" viewBox="0 0 320 512"><path d="M31.3 192h257.3c17.8 0 26.7 21.5 14.1 34.1L174.1 354.8c-7.8 7.8-20.5 7.8-28.3 0L17.2 226.1C4.6 213.5 13.5 192 31.3 192z"/></symbol>
  <symbol id="phone" xmlns="http://www.w3.org/2000/svg" viewBox="0 0 512 512"><path d="M493.4 24.6l-104-24c-11.3-2.6-22.9 3.3-27.5 13.9l-48 112c-4.2 9.8-1.4 21.3 6.9 28l60.6 49.6c-36 76.7-98.9 140.5-177.2 177.2l-49.6-60.6c-6.8-8.3-18.2-11.1-28-6.9l-112 48C3.9 366.5-2 378.1.6 389.4l24 104C27.1 504.2 36.7 512 48 512c256.1 0 464-207.5 464-464 0-11.2-7.7-20.9-18.6-23.4z"/></symbol>

  <symbol id="clock" xmlns="http://www.w3.org/2000/svg" viewBox="0 0 512 512"><path d="M256 8C119 8 8 119 8 256s111 248 248 248 248-111 248-248S393 8 256 8zm57.1 350.1L224.9 294c-3.1-2.3-4.9-5.9-4.9-9.7V116c0-6.6 5.4-12 12-12h48c6.6 0 12 5.4 12 12v137.7l63.5 46.2c5.4 3.9 6.5 11.4 2.6 16.8l-28.2 38.8c-3.9 5.3-11.4 6.5-16.8 2.6z"/></symbol>

  <symbol id="mapMarker" xmlns="http://www.w3.org/2000/svg" viewBox="0 0 384 512"><path d="M172.268 501.67C26.97 291.031 0 269.413 0 192 0 85.961 85.961 0 192 0s192 85.961 192 192c0 77.413-26.97 99.031-172.268 309.67-9.535 13.774-29.93 13.773-39.464 0zM192 272c44.183 0 80-35.817 80-80s-35.817-80-80-80-80 35.817-80 80 35.817 80 80 80z"/></symbol>

  <symbol id="closeModal" xmlns="http://www.w3.org/2000/svg" viewBox="0 0 512 512"><path d="M256 8C119 8 8 119 8 256s111 248 248 248 248-111 248-248S393 8 256 8zm0 448c-110.5 0-200-89.5-200-200S145.5 56 256 56s200 89.5 200 200-89.5 200-200 200zm101.8-262.2L295.6 256l62.2 62.2c4.7 4.7 4.7 12.3 0 17l-22.6 22.6c-4.7 4.7-12.3 4.7-17 0L256 295.6l-62.2 62.2c-4.7 4.7-12.3 4.7-17 0l-22.6-22.6c-4.7-4.7-4.7-12.3 0-17l62.2-62.2-62.2-62.2c-4.7-4.7-4.7-12.3 0-17l22.6-22.6c4.7-4.7 12.3-4.7 17 0l62.2 62.2 62.2-62.2c4.7-4.7 12.3-4.7 17 0l22.6 22.6c4.7 4.7 4.7 12.3 0 17z"/></symbol>

  <symbol id="checkCircle" xmlns="http://www.w3.org/2000/svg" viewBox="0 0 512 512"><path d="M504 256c0 136.967-111.033 248-248 248S8 392.967 8 256 119.033 8 256 8s248 111.033 248 248zM227.314 387.314l184-184c6.248-6.248 6.248-16.379 0-22.627l-22.627-22.627c-6.248-6.249-16.379-6.249-22.628 0L216 308.118l-70.059-70.059c-6.248-6.248-16.379-6.248-22.628 0l-22.627 22.627c-6.248 6.248-6.248 16.379 0 22.627l104 104c6.249 6.249 16.379 6.249 22.628.001z"/></symbol>

  <symbol id="facebookCircle" xmlns="http://www.w3.org/2000/svg" viewBox="0 0 24 24">
    <path fill="#3A589B" fill-rule="evenodd" d="M10.306 18.528h2.698v-6.529h1.8l.238-2.25h-2.038l.002-1.126c0-.586.056-.901.898-.901h1.125v-2.25h-1.8c-2.162 0-2.923 1.092-2.923 2.927v1.35H8.958V12h1.348v6.529zM12 24C5.373 24 0 18.627 0 12 0 5.372 5.373 0 12 0s12 5.372 12 12c0 6.627-5.373 12-12 12z"/>
  </symbol>

  <symbol id="youtubeCircle" xmlns="http://www.w3.org/2000/svg" viewBox="0 0 24 24">
    <g fill="none" fill-rule="nonzero">
        <circle cx="12" cy="12" r="12" fill="#CA3737"/>
        <path fill="#FFF" d="M17.6 9.25c0-.05 0-.1-.05-.15v-.05C17.4 8.6 17 8.3 16.5 8.3h.1S14.65 8 12 8c-2.6 0-4.6.3-4.6.3h.1c-.5 0-.9.3-1.05.75v.05c0 .05 0 .1-.05.15-.05.5-.2 1.55-.2 2.75s.15 2.25.2 2.75c0 .05 0 .1.05.15v.05c.15.45.55.75 1.05.75h-.1s1.95.3 4.6.3c2.6 0 4.6-.3 4.6-.3h-.1c.5 0 .9-.3 1.05-.75v-.05c0-.05 0-.1.05-.15.05-.5.2-1.55.2-2.75s-.1-2.25-.2-2.75zm-3.9 3l-2.35 1.7c-.05.05-.1.05-.15.05-.05 0-.1 0-.15-.05a.275.275 0 0 1-.15-.25v-3.4c0-.1.05-.2.15-.25.1-.05.2-.05.3 0l2.35 1.7c.05.05.1.15.1.25.05.1 0 .2-.1.25z"/>
    </g>
</symbol>

<symbol id="pinterestCircle" xmlns="http://www.w3.org/2000/svg" viewBox="0 0 24 24">
    <g fill="none" fill-rule="nonzero">
        <circle cx="12" cy="12" r="12" fill="#CA3737"/>
        <path fill="#FFF" d="M12 6.05C8.7 6.05 6.05 8.7 6.05 12c0 2.45 1.45 4.5 3.55 5.45 0-.4 0-.9.1-1.35.1-.5.75-3.25.75-3.25s-.2-.4-.2-.95c0-.9.5-1.55 1.15-1.55.55 0 .8.4.8.9 0 .55-.35 1.35-.5 2.1-.15.65.35 1.15.95 1.15 1.15 0 1.9-1.45 1.9-3.15 0-1.3-.9-2.25-2.45-2.25-1.8 0-2.9 1.35-2.9 2.85 0 .5.15.9.4 1.15.1.15.15.2.1.35-.05.1-.1.35-.1.5-.05.15-.15.2-.3.15-.85-.35-1.2-1.25-1.2-2.25 0-1.7 1.4-3.7 4.25-3.7 2.25 0 3.75 1.65 3.75 3.4 0 2.35-1.3 4.05-3.2 4.05-.65 0-1.25-.35-1.45-.75 0 0-.35 1.35-.4 1.65-.15.45-.35.9-.6 1.25.55.15 1.1.25 1.7.25 3.3 0 5.95-2.65 5.95-5.95-.15-3.35-2.8-6-6.1-6z"/>
    </g>
</symbol>
<symbol id="instagramCircle" style="enable-background:new 0 0 512 512;" version="1.1" viewBox="0 0 512 512" xml:space="preserve" xmlns="http://www.w3.org/2000/svg" xmlns:xlink="http://www.w3.org/1999/xlink"><style type="text/css">
	.st0{fill:url(#SVGID_1_);}
	.st1{fill:#FFFFFF;}
</style><g id="Edges"/><g id="Background_1_"><radialGradient cx="50.1582" cy="15.1047" gradientTransform="matrix(5.233596e-02 -0.9986 0.8488 4.448556e-02 12.0003 498.8006)" gradientUnits="userSpaceOnUse" id="SVGID_1_" r="684.4449"><stop offset="0" style="stop-color:#FED576"/><stop offset="0.2634" style="stop-color:#F47133"/><stop offset="0.6091" style="stop-color:#BC3081"/><stop offset="1" style="stop-color:#4C63D2"/></radialGradient><path class="st0" d="M18.8,250.1v12.8c3.3,122.4,101.9,220.7,219.2,229.9h36.1c118-9.3,214.9-108.5,218.1-230.1v-12.6   C489,126.3,388.7,25.9,267.9,19.7C137.9,13.1,22.4,117.4,18.8,250.1z"/></g><g id="Symbol"><g><path class="st1" d="M256.6,138.3c37.7,0,42.2,0.1,57.1,0.8c13.8,0.6,21.2,3,26.2,4.9c6.6,2.6,11.3,5.7,16.2,10.7    c4.9,5,8,9.8,10.6,16.5c1.9,5.1,4.2,12.7,4.9,26.7c0.7,15.2,0.8,19.7,0.8,58.1s-0.1,42.9-0.8,58.1c-0.6,14-2.9,21.6-4.9,26.7    c-2.6,6.7-5.6,11.5-10.6,16.5c-4.9,5-9.6,8.1-16.2,10.7c-5,2-12.5,4.3-26.2,4.9c-14.9,0.7-19.4,0.8-57.1,0.8    c-37.7,0-42.2-0.1-57.1-0.8c-13.8-0.6-21.2-3-26.2-4.9c-6.6-2.6-11.3-5.7-16.2-10.7c-4.9-5-8-9.8-10.6-16.5    c-1.9-5.1-4.2-12.7-4.9-26.7c-0.7-15.2-0.8-19.7-0.8-58.1s0.1-42.9,0.8-58.1c0.6-14,2.9-21.6,4.9-26.7c2.6-6.7,5.6-11.5,10.6-16.5    c4.9-5,9.6-8.1,16.2-10.7c5-2,12.5-4.3,26.2-4.9C214.4,138.5,218.9,138.3,256.6,138.3 M256.6,112.4c-38.4,0-43.2,0.2-58.2,0.9    c-15,0.7-25.3,3.1-34.3,6.7c-9.3,3.7-17.2,8.6-25,16.6c-7.9,8-12.7,16-16.3,25.5c-3.5,9.1-5.9,19.6-6.6,34.9    c-0.7,15.3-0.8,20.2-0.8,59.2c0,39,0.2,43.9,0.8,59.2c0.7,15.3,3.1,25.7,6.6,34.9c3.6,9.4,8.4,17.5,16.3,25.5    c7.9,8,15.7,12.9,25,16.6c9,3.6,19.3,6,34.3,6.7c15.1,0.7,19.9,0.9,58.2,0.9s43.2-0.2,58.2-0.9c15-0.7,25.3-3.1,34.3-6.7    c9.3-3.7,17.2-8.6,25-16.6c7.9-8,12.7-16,16.3-25.5c3.5-9.1,5.9-19.6,6.6-34.9c0.7-15.3,0.8-20.2,0.8-59.2s-0.2-43.9-0.8-59.2    c-0.7-15.3-3.1-25.7-6.6-34.9c-3.6-9.4-8.4-17.5-16.3-25.5c-7.9-8-15.7-12.9-25-16.6c-9-3.6-19.3-6-34.3-6.7    C299.8,112.6,294.9,112.4,256.6,112.4L256.6,112.4z"/><path class="st1" d="M256.6,182.3c-40.1,0-72.5,33-72.5,73.8s32.5,73.8,72.5,73.8s72.5-33,72.5-73.8S296.6,182.3,256.6,182.3z     M256.6,304c-26,0-47.1-21.4-47.1-47.9s21.1-47.9,47.1-47.9c26,0,47.1,21.4,47.1,47.9S282.6,304,256.6,304z"/><ellipse class="st1" cx="332" cy="179.4" rx="16.9" ry="17.2"/></g></g></symbol>
  <symbol id="plusCircle" xmlns="http://www.w3.org/2000/svg" viewBox="0 0 512 512"><path d="M256 8C119 8 8 119 8 256s111 248 248 248 248-111 248-248S393 8 256 8zm144 276c0 6.6-5.4 12-12 12h-92v92c0 6.6-5.4 12-12 12h-56c-6.6 0-12-5.4-12-12v-92h-92c-6.6 0-12-5.4-12-12v-56c0-6.6 5.4-12 12-12h92v-92c0-6.6 5.4-12 12-12h56c6.6 0 12 5.4 12 12v92h92c6.6 0 12 5.4 12 12v56z"/></symbol>
</svg>

