<?xml version="1.0" encoding="iso-8859-1"?>
<svg>
  <symbol version="1.1" id="search" xmlns="http://www.w3.org/2000/svg" xmlns:xlink="http://www.w3.org/1999/xlink" x="0px" y="0px"
    viewBox="0 0 451 451" style="enable-background:new 0 0 451 451;" xml:space="preserve">
  <g>
    <path d="M447.05,428l-109.6-109.6c29.4-33.8,47.2-77.9,47.2-126.1C384.65,86.2,298.35,0,192.35,0C86.25,0,0.05,86.3,0.05,192.3
      s86.3,192.3,192.3,192.3c48.2,0,92.3-17.8,126.1-47.2L428.05,447c2.6,2.6,6.1,4,9.5,4s6.9-1.3,9.5-4
      C452.25,441.8,452.25,433.2,447.05,428z M26.95,192.3c0-91.2,74.2-165.3,165.3-165.3c91.2,0,165.3,74.2,165.3,165.3
      s-74.1,165.4-165.3,165.4C101.15,357.7,26.95,283.5,26.95,192.3z"/>
  </g>
  </symbol>
  <symbol version="1.1" id="notepad" xmlns="http://www.w3.org/2000/svg" xmlns:xlink="http://www.w3.org/1999/xlink" x="0px" y="0px"
    viewBox="0 0 60 60" style="enable-background:new 0 0 60 60;" xml:space="preserve">
  <g>
  <path d="M15,19h9c0.553,0,1-0.447,1-1s-0.447-1-1-1h-9c-0.553,0-1,0.447-1,1S14.447,19,15,19z"/>
  <path d="M15,26h5c0.553,0,1-0.447,1-1s-0.447-1-1-1h-5c-0.553,0-1,0.447-1,1S14.447,26,15,26z"/>
  <path d="M28,26h7c0.553,0,1-0.447,1-1s-0.447-1-1-1h-7c-0.553,0-1,0.447-1,1S27.447,26,28,26z"/>
  <path d="M24.71,25.71C24.89,25.52,25,25.26,25,25c0-0.261-0.11-0.521-0.29-0.71c-0.38-0.37-1.04-0.37-1.42,0
      C23.109,24.479,23,24.739,23,25c0,0.26,0.109,0.52,0.29,0.71C23.479,25.899,23.729,26,24,26C24.26,26,24.52,25.89,24.71,25.71z"/>
  <path d="M39,26c0.27,0,0.52-0.11,0.71-0.29C39.89,25.52,40,25.26,40,25c0-0.261-0.11-0.521-0.29-0.71c-0.38-0.37-1.04-0.37-1.42,0
      C38.109,24.479,38,24.739,38,25c0,0.26,0.109,0.52,0.29,0.71C38.479,25.899,38.729,26,39,26z"/>
  <path d="M18,32c0,0.553,0.447,1,1,1h7c0.553,0,1-0.447,1-1s-0.447-1-1-1h-7C18.447,31,18,31.447,18,32z"/>
  <path d="M15.71,32.71C15.899,32.52,16,32.26,16,32c0-0.261-0.101-0.521-0.29-0.71c-0.38-0.37-1.04-0.37-1.42,0
      C14.1,31.479,14,31.729,14,32c0,0.26,0.109,0.52,0.29,0.71C14.479,32.89,14.74,33,15,33S15.52,32.89,15.71,32.71z"/>
  <path d="M20.525,37.137c-2.19,1.14-2.927,3.321-3.196,5.582c-0.414-0.347-0.828-0.693-1.241-1.04
      c-0.98-0.821-2.402,0.586-1.414,1.415c0.935,0.783,1.871,1.567,2.806,2.351c0.658,0.551,1.676,0.203,1.707-0.707
      c0.073-2.166,0.175-4.742,2.348-5.873C22.677,38.269,21.667,36.542,20.525,37.137z"/>
  <path d="M27.175,41.125c-1.385,0.321-2.961,2.083-3.936,0.106c-0.569-1.154-2.295-0.142-1.727,1.009
      c0.518,1.049,1.5,1.784,2.669,1.932c0.594,0.075,1.131-0.009,1.688-0.226c0.409-0.159,1.937-1.308,2.267-0.717
      c0.628,1.124,2.356,0.117,1.727-1.009C29.326,41.258,28.239,40.878,27.175,41.125z"/>
  <path d="M55.015,0h-4.029c-1.299,0-2.396,0.839-2.805,2H38h-6V1c0-0.553-0.447-1-1-1h-9c-0.553,0-1,0.447-1,1v1h-6H2v58h49v-4.484
      l1,1.75V59c0,0.553,0.447,1,1,1s1-0.447,1-1v-1.734l4-7V13V7V2.985C58,1.339,56.661,0,55.015,0z M50,9h6v2h-6V9z M30,2v1v2h-7V3V2
      H30z M21,4v2v1h1h9h1V6V4h5v3v1H16V7V4H21z M15,10h23h1V9h5v44H9V9h5v1H15z M49,58H4V4h10v3H7v48h39V7h-7V4h9v3v6v37.266l1,1.75V58
      z M50.723,51h4.554L53,54.984l-2-3.5L50.723,51z M56,49h-6V13h6V49z M50,7V2.985C50,2.442,50.442,2,50.985,2h4.029
      C55.558,2,56,2.442,56,2.985V7H50z"/>
  </g>
  </symbol>
  <symbol version="1.1" id="money" xmlns="http://www.w3.org/2000/svg" xmlns:xlink="http://www.w3.org/1999/xlink" x="0px" y="0px"
	 viewBox="0 0 478.856 478.856" style="enable-background:new 0 0 478.856 478.856;" xml:space="preserve">
  <g>
    <g>
      <path d="M406.872,160.017c-0.005,0-0.011,0-0.016,0h-400c-3.782-0.004-6.852,3.058-6.856,6.84c0,0.005,0,0.011,0,0.016v192
        c-0.004,3.782,3.058,6.852,6.84,6.856c0.005,0,0.011,0,0.016,0h272c3.786,0,6.856-3.07,6.856-6.856
        c0-3.786-3.07-6.856-6.856-6.856H13.712V173.729H400v17.144c-0.004,3.782,3.058,6.852,6.84,6.856c0.005,0,0.011,0,0.016,0
        c3.782,0.004,6.852-3.058,6.856-6.84c0-0.005,0-0.011,0-0.016v-24C413.716,163.091,410.654,160.022,406.872,160.017z"/>
    </g>
  </g>
  <g>
    <g>
      <path d="M360.36,128.185l-320-72c-1.776-0.397-3.637-0.075-5.176,0.896c-1.537,0.979-2.624,2.526-3.024,4.304l-16,72
        c-0.822,3.698,1.51,7.362,5.208,8.184c3.698,0.822,7.362-1.51,8.184-5.208l14.504-65.288l313.296,70.488
        c0.496,0.115,1.003,0.172,1.512,0.168c3.786-0.007,6.85-3.082,6.844-6.868C365.702,131.66,363.482,128.89,360.36,128.185z"/>
    </g>
  </g>
  <g>
    <g>
      <path d="M321.504,88.513l-192-80c-3.337-1.391-7.182,0.038-8.8,3.272l-16,32c-1.807,3.342-0.563,7.517,2.78,9.324
        c3.342,1.807,7.517,0.563,9.324-2.78c0.071-0.131,0.138-0.265,0.2-0.401v0.016l13.128-26.272l186.072,77.528
        c3.504,1.462,7.53-0.192,8.992-3.696C326.662,94.002,325.008,89.976,321.504,88.513z"/>
    </g>
  </g>
  <g>
    <g>
      <path d="M326.352,192.017h-63.496c-3.786,0-6.856,3.07-6.856,6.856c0,3.786,3.07,6.856,6.856,6.856h63.496
        c3.786,0,6.856-3.07,6.856-6.856S330.138,192.017,326.352,192.017z"/>
    </g>
  </g>
  <g>
    <g>
      <path d="M198.856,192.473c-38.881,0-70.4,31.519-70.4,70.4c0.04,38.864,31.536,70.36,70.4,70.4c38.881,0,70.4-31.519,70.4-70.4
        S237.737,192.473,198.856,192.473z M198.856,320.473c-31.812,0-57.6-25.788-57.6-57.6c0.035-31.797,25.803-57.565,57.6-57.6
        c31.812,0,57.6,25.788,57.6,57.6C256.456,294.685,230.668,320.473,198.856,320.473z"/>
    </g>
  </g>
  <g>
    <g>
      <path d="M390.856,214.873c-42.4,0-88,10.016-88,32v192c0,21.984,45.6,32,88,32c42.4,0,88-10.016,88-32v-192
        C478.856,224.889,433.256,214.873,390.856,214.873z M462.856,438.753c-1.208,4.44-25.2,16.12-72,16.12s-70.792-11.68-72-16
        v-12.576c17.024,8.576,45.144,12.576,72,12.576c26.856,0,54.984-4.04,72-12.584V438.753z M462.856,406.753
        c-1.208,4.44-25.2,16.12-72,16.12s-70.792-11.68-72-16v-12.576c17.024,8.576,45.144,12.576,72,12.576
        c26.856,0,54.984-4.04,72-12.584V406.753z M462.856,374.753c-1.208,4.44-25.2,16.12-72,16.12s-70.792-11.68-72-16v-12.576
        c17.024,8.576,45.144,12.576,72,12.576c26.856,0,54.984-4.04,72-12.584V374.753z M462.856,342.753
        c-1.208,4.44-25.2,16.12-72,16.12s-70.792-11.68-72-16v-12.576c17.024,8.576,45.144,12.576,72,12.576
        c26.856,0,54.984-4.04,72-12.584V342.753z M462.856,310.753c-1.208,4.44-25.2,16.12-72,16.12s-70.792-11.68-72-16v-12.576
        c17.024,8.536,45.144,12.576,72,12.576c26.856,0,54.984-4.04,72-12.584V310.753z M462.856,278.753
        c-1.208,4.44-25.2,16.12-72,16.12s-70.792-11.68-72-16v-12.576c17.024,8.536,45.144,12.576,72,12.576
        c26.856,0,54.984-4.04,72-12.584V278.753z M390.856,262.873c-46.728,0-70.712-11.648-72-15.856v-0.048
        c1.288-4.456,25.272-16.096,72-16.096c46.4,0,70.4,11.472,72,16C461.256,251.401,437.256,262.873,390.856,262.873z"/>
    </g>
  </g>
  <g>
    <g>
      <path d="M134.856,320.009H74.384l-28.672-31.36v-52l31.664-30.92h57.48c3.786,0,6.856-3.07,6.856-6.856
        c0-3.786-3.07-6.856-6.856-6.856H74.592c-1.792-0.004-3.515,0.694-4.8,1.944l-35.736,34.856c-1.335,1.56-2.067,3.547-2.064,5.6
        v56.896c0,1.711,0.639,3.36,1.792,4.624l32.504,35.552c1.299,1.422,3.137,2.233,5.064,2.232h63.504
        c3.786,0,6.856-3.07,6.856-6.856C141.712,323.079,138.643,320.009,134.856,320.009z"/>
    </g>
  </g>
  <g>
    <g>
      <path d="M202.856,254.873h-8c-2.488,0-4-1.392-4-2c0-0.608,1.512-2,4-2h20c4.418,0,8-3.582,8-8s-3.582-8-8-8h-8
        c0-4.418-3.582-8-8-8s-8,3.582-8,8v0.36c-8.873,1.253-15.595,8.648-16,17.6c0.573,10.489,9.507,18.548,20,18.04h8
        c2.488,0,4,1.392,4,2c0,0.608-1.512,2-4,2h-20c-4.418,0-8,3.582-8,8s3.582,8,8,8h8c0,4.418,3.582,8,8,8s8-3.582,8-8v-0.36
        c8.873-1.253,15.595-8.648,16-17.6C222.283,262.424,213.349,254.365,202.856,254.873z"/>
    </g>
  </g>
  </symbol>
  <symbol version="1.1" id="team" xmlns="http://www.w3.org/2000/svg" xmlns:xlink="http://www.w3.org/1999/xlink" x="0px" y="0px"
	 viewBox="0 0 512 512" style="enable-background:new 0 0 512 512;" xml:space="preserve">
  <g>
    <g>
      <path d="M451.72,237.26c-17.422-8.71-50.087-8.811-51.469-8.811c-4.142,0-7.5,3.358-7.5,7.5c0,4.142,3.358,7.5,7.5,7.5
        c8.429,0.001,32.902,1.299,44.761,7.228c1.077,0.539,2.221,0.793,3.348,0.793c2.751,0,5.4-1.52,6.714-4.147
        C456.927,243.618,455.425,239.113,451.72,237.26z"/>
    </g>
  </g>
  <g>
    <g>
      <path d="M489.112,344.041l-30.975-8.85c-1.337-0.382-2.271-1.62-2.271-3.011v-10.339c2.52-1.746,4.924-3.7,7.171-5.881
        c10.89-10.568,16.887-24.743,16.887-39.915v-14.267l2.995-5.989c3.287-6.575,5.024-13.936,5.024-21.286v-38.65
        c0-4.142-3.358-7.5-7.5-7.5H408.27c-26.244,0-47.596,21.352-47.596,47.596v0.447c0,6.112,1.445,12.233,4.178,17.699l3.841,7.682
        v12.25c0,19.414,9.567,36.833,24.058,47.315l0.002,10.836c0,1.671,0,2.363-6.193,4.133l-15.114,4.318l-43.721-15.898
        c0.157-2.063-0.539-4.161-2.044-5.742l-13.971-14.678v-24.64c1.477-1.217,2.933-2.467,4.344-3.789
        c17.625-16.52,27.733-39.844,27.733-63.991v-19.678c5.322-11.581,8.019-23.836,8.019-36.457v-80.19c0-4.142-3.358-7.5-7.5-7.5
        H232.037c-39.51,0-71.653,32.144-71.653,71.653v16.039c0,12.621,2.697,24.876,8.019,36.457v16.931
        c0,28.036,12.466,53.294,32.077,69.946v25.22l-13.971,14.678c-1.505,1.581-2.201,3.679-2.044,5.742l-46.145,16.779
        c-3.344,1.216-6.451,2.863-9.272,4.858l-7.246-3.623c21.57-9.389,28.403-22.594,28.731-23.25c1.056-2.111,1.056-4.597,0-6.708
        c-5.407-10.814-6.062-30.635-6.588-46.561c-0.175-5.302-0.341-10.311-0.658-14.771c-2.557-35.974-29.905-63.103-63.615-63.103
        s-61.059,27.128-63.615,63.103c-0.317,4.461-0.483,9.47-0.658,14.773c-0.526,15.925-1.182,35.744-6.588,46.558
        c-1.056,2.111-1.056,4.597,0,6.708c0.328,0.656,7.147,13.834,28.76,23.234l-20.127,10.063C6.684,358.176,0,368.991,0,381.02
        v55.409c0,4.142,3.358,7.5,7.5,7.5s7.5-3.358,7.5-7.5V381.02c0-6.312,3.507-11.987,9.152-14.81l25.063-12.531l8.718,8.285
        c6.096,5.793,13.916,8.688,21.739,8.688c7.821,0,15.645-2.897,21.739-8.688l8.717-8.284l8.172,4.086
        c-3.848,6.157-6.032,13.377-6.032,20.94v57.725c0,4.142,3.358,7.5,7.5,7.5c4.142,0,7.5-3.358,7.5-7.5v-57.725
        c0-10.296,6.501-19.578,16.178-23.097l48.652-17.691l20.253,30.381c2.589,3.884,6.738,6.375,11.383,6.835
        c0.518,0.051,1.033,0.076,1.547,0.076c4.098,0,8.023-1.613,10.957-4.546l12.356-12.356v78.124c0,4.142,3.358,7.5,7.5,7.5
        c4.142,0,7.5-3.358,7.5-7.5v-78.124l12.356,12.356c2.933,2.934,6.858,4.547,10.957,4.547c0.513,0,1.029-0.025,1.546-0.076
        c4.646-0.46,8.795-2.951,11.384-6.835l20.254-30.38l48.651,17.691c9.676,3.519,16.178,12.801,16.178,23.097v57.725
        c0,4.142,3.358,7.5,7.5,7.5c4.142,0,7.5-3.358,7.5-7.5v-57.725c0-10.428-4.143-20.208-11.093-27.441l1.853-0.529
        c1.869-0.534,4.419-1.265,6.979-2.52l19.149,19.149v69.066c0,4.142,3.358,7.5,7.5,7.5c4.142,0,7.5-3.358,7.5-7.5v-69.066
        l19.016-19.016c1.011,0.514,2.073,0.948,3.191,1.267l30.976,8.85c7.07,2.02,12.009,8.567,12.009,15.921v62.044
        c0,4.142,3.358,7.5,7.5,7.5c4.142,0,7.5-3.358,7.5-7.5v-62.044C512,360.371,502.588,347.892,489.112,344.041z M48.115,330.794
        c-14.029-5.048-21.066-11.778-24.07-15.453c2.048-5.354,3.376-11.486,4.275-17.959c4.136,9.917,11.063,18.383,19.795,24.423
        V330.794z M91.08,351.092c-6.397,6.078-16.418,6.077-22.813-0.001l-6.975-6.628c1.177-2.205,1.824-4.705,1.824-7.324v-7.994
        c5.232,1.635,10.794,2.517,16.558,2.517c5.757,0,11.316-0.886,16.557-2.512l-0.001,7.988c0,2.62,0.646,5.121,1.824,7.327
        L91.08,351.092z M79.676,316.662c-22.396,0-40.615-18.22-40.615-40.615c0-4.142-3.358-7.5-7.5-7.5c-0.42,0-0.83,0.043-1.231,0.11
        c0.022-0.645,0.043-1.291,0.065-1.93c0.167-5.157,0.328-10.028,0.625-14.206c0.958-13.476,6.343-25.894,15.163-34.968
        c8.899-9.156,20.793-14.198,33.491-14.198s24.591,5.042,33.491,14.198c8.82,9.074,14.205,21.492,15.163,34.968
        c0.296,4.177,0.458,9.047,0.628,14.203c0.015,0.443,0.03,0.892,0.045,1.338c-8.16-12.572-20.762-21.837-37.045-27.069
        c-15.043-4.833-27.981-4.534-28.527-4.52c-1.964,0.055-3.828,0.877-5.191,2.291l-13.532,14.034
        c-2.875,2.982-2.789,7.73,0.193,10.605s7.73,2.788,10.605-0.193l11.26-11.677c9.697,0.474,40.894,4.102,53.027,30.819
        C116.738,302.04,99.816,316.662,79.676,316.662z M111.229,330.819l0.001-8.945c8.725-6.007,15.662-14.457,19.801-24.449
        c0.899,6.458,2.226,12.576,4.27,17.918C132.314,318.983,125.244,325.773,111.229,330.819z M183.403,209.145v-18.608
        c0-1.129-0.255-2.244-0.746-3.261c-4.826-9.994-7.273-20.598-7.273-31.518V139.72c0-31.239,25.415-56.653,56.653-56.653h104.769
        v72.692c0,10.92-2.447,21.524-7.273,31.518c-0.491,1.017-0.746,2.132-0.746,3.261v21.355c0,20.311-8.165,39.15-22.991,53.047
        c-1.851,1.734-3.772,3.36-5.758,4.875c-0.044,0.03-0.086,0.063-0.129,0.094c-13.889,10.545-30.901,15.67-48.667,14.519
        C213.201,281.965,183.403,248.897,183.403,209.145z M225.632,360.056c-0.052,0.052-0.173,0.175-0.418,0.149
        c-0.244-0.024-0.34-0.167-0.381-0.229l-23.325-34.988l7.506-7.887l35.385,24.187L225.632,360.056z M256.095,331.113
        l-40.615-27.762v-14c10.509,5.681,22.276,9.234,34.791,10.044c1.977,0.128,3.942,0.191,5.901,0.191
        c14.341,0,28.143-3.428,40.538-9.935v13.7L256.095,331.113z M287.357,359.978c-0.041,0.062-0.137,0.205-0.381,0.229
        c-0.245,0.031-0.365-0.098-0.418-0.149l-18.767-18.767l35.385-24.188l7.507,7.887L287.357,359.978z M424.308,353.65l-17.02-17.019
        c0.297-1.349,0.465-2.826,0.464-4.455l-0.001-3.165c4.723,1.55,9.701,2.47,14.852,2.624c0.578,0.018,1.151,0.026,1.727,0.026
        c5.692,0,11.248-0.86,16.536-2.501v3.02c0,1.496,0.188,2.962,0.542,4.371L424.308,353.65z M452.591,305.196
        c-7.949,7.714-18.45,11.788-29.537,11.446c-21.704-0.651-39.361-19.768-39.361-42.613v-14.021c0-1.165-0.271-2.313-0.792-3.354
        l-4.633-9.266c-1.697-3.395-2.594-7.195-2.594-10.991v-0.447c0-17.974,14.623-32.596,32.596-32.596h64.673v31.15
        c0,5.034-1.19,10.075-3.441,14.578l-3.786,7.572c-0.521,1.042-0.792,2.189-0.792,3.354v16.038
        C464.924,287.126,460.544,297.478,452.591,305.196z"/>
    </g>
  </g>
  <g>
    <g>
      <path d="M472.423,380.814c-4.142,0-7.5,3.358-7.5,7.5v48.115c0,4.142,3.358,7.5,7.5,7.5c4.142,0,7.5-3.358,7.5-7.5v-48.115
        C479.923,384.173,476.565,380.814,472.423,380.814z"/>
    </g>
  </g>
  <g>
    <g>
      <path d="M39.577,390.728c-4.142,0-7.5,3.358-7.5,7.5v38.201c0,4.142,3.358,7.5,7.5,7.5c4.142,0,7.5-3.358,7.5-7.5v-38.201
        C47.077,394.087,43.719,390.728,39.577,390.728z"/>
    </g>
  </g>
  <g>
    <g>
      <path d="M317.532,158.475c-28.366-28.366-87.715-22.943-111.917-19.295c-7.623,1.149-13.155,7.6-13.155,15.339v17.278
        c0,4.142,3.358,7.5,7.5,7.5c4.142,0,7.5-3.358,7.5-7.5v-17.279c0-0.255,0.168-0.473,0.392-0.507
        c9.667-1.457,28.85-3.705,48.725-2.38c23.388,1.557,40.328,7.428,50.349,17.45c2.929,2.929,7.678,2.929,10.606,0
        C320.461,166.152,320.461,161.403,317.532,158.475z"/>
    </g>
  </g>
  <g>
    <g>
      <path d="M167.884,396.853c-4.142,0-7.5,3.358-7.5,7.5v32.077c0,4.142,3.358,7.5,7.5,7.5c4.142,0,7.5-3.358,7.5-7.5v-32.077
        C175.384,400.212,172.026,396.853,167.884,396.853z"/>
    </g>
  </g>
  <g>
    <g>
      <path d="M344.306,396.853c-4.142,0-7.5,3.358-7.5,7.5v32.077c0,4.142,3.358,7.5,7.5,7.5c4.142,0,7.5-3.358,7.5-7.5v-32.077
        C351.806,400.212,348.448,396.853,344.306,396.853z"/>
    </g>
  </g>
  </symbol>
  <symbol version="1.1" id="cities" xmlns="http://www.w3.org/2000/svg" xmlns:xlink="http://www.w3.org/1999/xlink" x="0px" y="0px"
	 viewBox="0 0 512 512" style="enable-background:new 0 0 512 512;" xml:space="preserve">
  <g>
    <g>
      <g>
        <path d="M480.36,494.742h-14.382V43.146c0-4.767-3.864-8.629-8.629-8.629H296.27c-4.766,0-8.629,3.862-8.629,8.629v37.393
          h-17.258V43.146c0-4.767-3.864-8.629-8.629-8.629H224.36V8.629c0-4.767-3.864-8.629-8.629-8.629s-8.629,3.862-8.629,8.629v25.888
          h-37.393c-4.766,0-8.629,3.862-8.629,8.629v37.393h-25.888c-4.766,0-8.629,3.862-8.629,8.629v71.91h-71.91
          c-4.766,0-8.629,3.862-8.629,8.629v325.034H31.64c-4.766,0-8.629,3.862-8.629,8.629S26.875,512,31.64,512H480.36
          c4.766,0,8.629-3.862,8.629-8.629S485.125,494.742,480.36,494.742z M178.337,51.775h74.786v28.764h-74.786V51.775z
          M149.573,494.742h-5.753V480.36c0-4.767-3.864-8.629-8.629-8.629s-8.629,3.862-8.629,8.629v14.382h-5.753v-28.764h28.764
          V494.742z M207.101,273.258v14.845v206.639h-40.27v-37.393c0-4.767-3.864-8.629-8.629-8.629H112.18
          c-4.766,0-8.629,3.862-8.629,8.629v37.393h-40.27V178.337h143.82V273.258z M215.73,161.079h-71.91V97.798h143.82v166.831H224.36
          v-28.764h25.888c4.766,0,8.629-3.862,8.629-8.629s-3.864-8.629-8.629-8.629H224.36v-28.764h25.888
          c4.766,0,8.629-3.862,8.629-8.629s-3.864-8.629-8.629-8.629H224.36v-2.876C224.36,164.941,220.496,161.079,215.73,161.079z
          M368.18,494.742H224.36V288.103v-6.215h143.82V494.742z M448.719,494.742h-63.281V273.258v-11.506
          c0-4.767-3.864-8.629-8.629-8.629s-8.629,3.862-8.629,8.629v2.876h-17.258v-2.876c0-4.767-3.864-8.629-8.629-8.629
          s-8.629,3.862-8.629,8.629v2.876h-28.764V89.169V51.775h143.82V494.742z"/>
        <path d="M261.753,477.485c4.766,0,8.629-3.864,8.629-8.629V307.778c0-4.767-3.864-8.629-8.629-8.629s-8.629,3.862-8.629,8.629
          v161.079C253.124,473.622,256.987,477.485,261.753,477.485z"/>
        <path d="M296.27,477.485c4.766,0,8.629-3.864,8.629-8.629V307.778c0-4.767-3.864-8.629-8.629-8.629s-8.629,3.862-8.629,8.629
          v161.079C287.64,473.622,291.504,477.485,296.27,477.485z"/>
        <path d="M330.786,477.485c4.766,0,8.629-3.864,8.629-8.629V307.778c0-4.767-3.864-8.629-8.629-8.629s-8.629,3.862-8.629,8.629
          v161.079C322.157,473.622,326.021,477.485,330.786,477.485z"/>
        <path d="M342.292,109.303c4.766,0,8.629-3.862,8.629-8.629V89.169c0-4.767-3.864-8.629-8.629-8.629s-8.629,3.862-8.629,8.629
          v11.506C333.663,105.441,337.526,109.303,342.292,109.303z"/>
        <path d="M376.809,109.303c4.766,0,8.629-3.862,8.629-8.629V89.169c0-4.767-3.864-8.629-8.629-8.629s-8.629,3.862-8.629,8.629
          v11.506C368.18,105.441,372.043,109.303,376.809,109.303z"/>
        <path d="M411.326,109.303c4.766,0,8.629-3.862,8.629-8.629V89.169c0-4.767-3.864-8.629-8.629-8.629s-8.629,3.862-8.629,8.629
          v11.506C402.697,105.441,406.56,109.303,411.326,109.303z"/>
        <path d="M342.292,166.831c4.766,0,8.629-3.862,8.629-8.629v-11.506c0-4.767-3.864-8.629-8.629-8.629s-8.629,3.862-8.629,8.629
          v11.506C333.663,162.969,337.526,166.831,342.292,166.831z"/>
        <path d="M376.809,166.831c4.766,0,8.629-3.862,8.629-8.629v-11.506c0-4.767-3.864-8.629-8.629-8.629s-8.629,3.862-8.629,8.629
          v11.506C368.18,162.969,372.043,166.831,376.809,166.831z"/>
        <path d="M411.326,166.831c4.766,0,8.629-3.862,8.629-8.629v-11.506c0-4.767-3.864-8.629-8.629-8.629s-8.629,3.862-8.629,8.629
          v11.506C402.697,162.969,406.56,166.831,411.326,166.831z"/>
        <path d="M342.292,224.36c4.766,0,8.629-3.862,8.629-8.629v-11.506c0-4.767-3.864-8.629-8.629-8.629s-8.629,3.862-8.629,8.629
          v11.506C333.663,220.497,337.526,224.36,342.292,224.36z"/>
        <path d="M376.809,224.36c4.766,0,8.629-3.862,8.629-8.629v-11.506c0-4.767-3.864-8.629-8.629-8.629s-8.629,3.862-8.629,8.629
          v11.506C368.18,220.497,372.043,224.36,376.809,224.36z"/>
        <path d="M411.326,224.36c4.766,0,8.629-3.862,8.629-8.629v-11.506c0-4.767-3.864-8.629-8.629-8.629s-8.629,3.862-8.629,8.629
          v11.506C402.697,220.497,406.56,224.36,411.326,224.36z"/>
        <path d="M100.674,247.371c4.766,0,8.629-3.862,8.629-8.629v-11.506c0-4.767-3.864-8.629-8.629-8.629s-8.629,3.862-8.629,8.629
          v11.506C92.045,243.508,95.909,247.371,100.674,247.371z"/>
        <path d="M135.191,247.371c4.766,0,8.629-3.862,8.629-8.629v-11.506c0-4.767-3.864-8.629-8.629-8.629s-8.629,3.862-8.629,8.629
          v11.506C126.562,243.508,130.425,247.371,135.191,247.371z"/>
        <path d="M169.708,247.371c4.766,0,8.629-3.862,8.629-8.629v-11.506c0-4.767-3.864-8.629-8.629-8.629s-8.629,3.862-8.629,8.629
          v11.506C161.079,243.508,164.942,247.371,169.708,247.371z"/>
        <path d="M100.674,304.899c4.766,0,8.629-3.862,8.629-8.629v-11.506c0-4.767-3.864-8.629-8.629-8.629s-8.629,3.862-8.629,8.629
          v11.506C92.045,301.036,95.909,304.899,100.674,304.899z"/>
        <path d="M135.191,304.899c4.766,0,8.629-3.862,8.629-8.629v-11.506c0-4.767-3.864-8.629-8.629-8.629s-8.629,3.862-8.629,8.629
          v11.506C126.562,301.036,130.425,304.899,135.191,304.899z"/>
        <path d="M169.708,304.899c4.766,0,8.629-3.862,8.629-8.629v-11.506c0-4.767-3.864-8.629-8.629-8.629s-8.629,3.862-8.629,8.629
          v11.506C161.079,301.036,164.942,304.899,169.708,304.899z"/>
        <path d="M100.674,362.427c4.766,0,8.629-3.862,8.629-8.629v-11.506c0-4.767-3.864-8.629-8.629-8.629s-8.629,3.862-8.629,8.629
          v11.506C92.045,358.565,95.909,362.427,100.674,362.427z"/>
        <path d="M135.191,362.427c4.766,0,8.629-3.862,8.629-8.629v-11.506c0-4.767-3.864-8.629-8.629-8.629s-8.629,3.862-8.629,8.629
          v11.506C126.562,358.565,130.425,362.427,135.191,362.427z"/>
        <path d="M169.708,362.427c4.766,0,8.629-3.862,8.629-8.629v-11.506c0-4.767-3.864-8.629-8.629-8.629s-8.629,3.862-8.629,8.629
          v11.506C161.079,358.565,164.942,362.427,169.708,362.427z"/>
        <path d="M100.674,419.955c4.766,0,8.629-3.862,8.629-8.629V399.82c0-4.767-3.864-8.629-8.629-8.629s-8.629,3.862-8.629,8.629
          v11.506C92.045,416.093,95.909,419.955,100.674,419.955z"/>
        <path d="M135.191,419.955c4.766,0,8.629-3.862,8.629-8.629V399.82c0-4.767-3.864-8.629-8.629-8.629s-8.629,3.862-8.629,8.629
          v11.506C126.562,416.093,130.425,419.955,135.191,419.955z"/>
        <path d="M169.708,419.955c4.766,0,8.629-3.862,8.629-8.629V399.82c0-4.767-3.864-8.629-8.629-8.629s-8.629,3.862-8.629,8.629
          v11.506C161.079,416.093,164.942,419.955,169.708,419.955z"/>
        <path d="M411.326,281.888c4.766,0,8.629-3.862,8.629-8.629v-11.506c0-4.767-3.864-8.629-8.629-8.629s-8.629,3.862-8.629,8.629
          v11.506C402.697,278.025,406.56,281.888,411.326,281.888z"/>
        <path d="M411.326,339.416c4.766,0,8.629-3.862,8.629-8.629v-11.506c0-4.767-3.864-8.629-8.629-8.629s-8.629,3.862-8.629,8.629
          v11.506C402.697,335.553,406.56,339.416,411.326,339.416z"/>
        <path d="M411.326,396.944c4.766,0,8.629-3.862,8.629-8.629v-11.506c0-4.767-3.864-8.629-8.629-8.629s-8.629,3.862-8.629,8.629
          v11.506C402.697,393.081,406.56,396.944,411.326,396.944z"/>
        <path d="M411.326,454.472c4.766,0,8.629-3.862,8.629-8.629v-11.506c0-4.767-3.864-8.629-8.629-8.629s-8.629,3.862-8.629,8.629
          v11.506C402.697,450.609,406.56,454.472,411.326,454.472z"/>
        <path d="M258.876,135.191c0-4.767-3.864-8.629-8.629-8.629h-69.034c-4.766,0-8.629,3.862-8.629,8.629
          c0,4.767,3.864,8.629,8.629,8.629h69.034C255.013,143.82,258.876,139.958,258.876,135.191z"/>
      </g>
    </g>
  </g>
  </symbol>
  <symbol id="signUp" data-name="Layer 1" xmlns="http://www.w3.org/2000/svg" viewBox="0 0 267 271"><path d="M68.07,116.35H75.6c.1-2.08.26-4,.26-5.92q0-29.24,0-58.48c0-7,.36-7.39,7.27-7.39,32.16,0,64.32-.25,96.47.17,7.67.1,13-3.62,18.88-7.84-1.73-.09-3.46-.25-5.18-.25q-35.74,0-71.48,0c-1.34,0-2.85.37-4-.13-1.45-.66-2.6-2-3.88-3.06,1.37-1.13,2.69-3.18,4.1-3.25,7.32-.33,14.66-.16,22-.16h70c6.25,0,6.78.53,6.78,6.92q0,69.23,0,138.46c0,2.89,1.73,7.87-3.56,7.64-4.63-.2-3-4.82-3-7.67q-.1-65.24,0-130.46V39.47c-2,.94-3.48,1.49-4.82,2.24-18.54,10.52-37,21.13-55.63,31.55-5.25,2.94-7.48,7.1-7.47,13q.09,73.74,0,147.46c0,12.17,8,16.8,18.61,10.83,15.26-8.56,30.41-17.28,45.67-25.83,2.61-1.46,3.82-3.17,3.69-6.28a162,162,0,0,1,.09-17.49c.11-1.68,2-3.24,3.08-4.85,1.14,1.54,3.19,3,3.27,4.64.36,7.32.39,14.67,0,22a7.78,7.78,0,0,1-3.24,5.45c-16.84,9.81-33.74,19.5-50.81,28.91-13.61,7.5-26.67-.54-26.79-16.19,0-4.12,0-8.25,0-13H130c-16.33,0-32.66,0-49-.06q-19.55-.07-19.65-19.79c-.07-13.5,0-27,0-40.49V155c-3.28,0-6.06,0-8.83,0-7.22-.15-10.83-3.59-11-10.68q-.21-8.49,0-17c.19-7.16,3.7-10.51,11-10.68,2.64-.07,5.28,0,8.47,0,.15-2.33.37-4.24.37-6.15,0-19.66-.05-39.32,0-59C61.34,36.05,67.44,30,82.81,30c6.5,0,13-.21,19.49.15,1.63.09,3.17,2,4.75,3-1.54,1.13-3,3.15-4.61,3.22-7.82.37-15.66.06-23.49.3-6.48.2-10.74,3.95-10.8,10.1C68,69.79,68.07,92.78,68.07,116.35Zm21.5,0a11.69,11.69,0,0,0,.44-2c0-3.76,1-6.94,4.76-8.57,3.93-1.7,6.63.48,9.35,2.88,7.73,6.85,15.56,13.59,23.29,20.44,5.27,4.67,5.34,8.71.12,13.36-7.33,6.55-14.84,12.9-22.17,19.44-3.08,2.75-6,5.47-10.59,3.75s-4.63-5.65-4.93-9.53c0-.27-.35-.51-.58-.82H82.54c0,14.42-.08,28.55.18,42.67,0,.95,2.59,2.65,4,2.66,15.33.19,30.66.13,46,.09a18.92,18.92,0,0,0,3.16-.56v-6.12c0-35.66.14-71.33-.1-107-.06-9.37,3.36-15.81,11.74-20.16C156.44,62.28,165.05,57,175,51.35H83v65Zm35.6,19.4-28-24.31c-.24,1.93-.4,2.73-.43,3.53-.3,8.12-.29,8.12-8.58,8.13-11.5,0-23,.09-34.49,0-4,0-5.8,1.52-5.64,5.61.18,4.66.24,9.34,0,14-.2,4.39,1.74,5.85,6,5.79,11.16-.17,22.33-.11,33.49-.07,8.79,0,8.78.07,9.26,9.07a13.47,13.47,0,0,0,.76,2.43ZM68,155.05c0,16.2,0,31.81,0,47.42,0,9.07,3.67,12.68,12.8,12.71q24.72.06,49.45,0c1.76,0,3.52-.22,5.29-.34v-7.5H130c-16,0-32-.1-48,.06-4.48,0-6.27-1.52-6.19-6.11.19-12.31.07-24.64.07-37v-8.93c-1.49-.16-2.3-.3-3.1-.33C71.45,155,70.13,155.05,68,155.05Z"/><path d="M164.26,138.83a13.26,13.26,0,0,1,13.11,13.44,13.35,13.35,0,1,1-26.68-.47A13.21,13.21,0,0,1,164.26,138.83Zm0,20.27a7,7,0,0,0,6.69-7.25,6.88,6.88,0,1,0-6.69,7.25Z"/></symbol>
  <symbol id="browser" height="512pt" viewBox="0 -57 512 512" width="512pt" xmlns="http://www.w3.org/2000/svg"><path d="m504.425781 319.117188h-13.632812v-291.347657c0-15.3125-12.457031-27.769531-27.769531-27.769531h-75.742188c-4.183594 0-7.574219 3.390625-7.574219 7.574219 0 4.183593 3.390625 7.574219 7.574219 7.574219h75.742188c6.960937 0 12.621093 5.664062 12.621093 12.621093v291.347657h-439.289062v-291.347657c0-6.960937 5.664062-12.621093 12.621093-12.621093h302.960938c4.183594 0 7.574219-3.390626 7.574219-7.574219 0-4.183594-3.390625-7.574219-7.574219-7.574219h-302.960938c-15.3125 0-27.769531 12.457031-27.769531 27.769531v291.347657h-13.632812c-4.183594 0-7.574219 3.390624-7.574219 7.574218v24.234375c0 26.453125 21.519531 47.96875 47.96875 47.96875h81.796875c4.183594 0 7.574219-3.390625 7.574219-7.574219 0-4.179687-3.390625-7.574218-7.574219-7.574218h-81.796875c-18.097656 0-32.820312-14.722656-32.820312-32.820313v-16.660156h481.703124v16.660156c0 18.097657-14.722656 32.820313-32.820312 32.820313h-298.917969c-4.183593 0-7.574219 3.394531-7.574219 7.574218 0 4.183594 3.390626 7.574219 7.574219 7.574219h298.917969c26.449219 0 47.96875-21.519531 47.96875-47.96875v-24.234375c0-4.183594-3.390625-7.574218-7.574219-7.574218zm0 0"/><path d="m59.078125 154.507812c-4.183594 0-7.574219 3.390626-7.574219 7.574219v133.304688c0 4.183593 3.390625 7.574219 7.574219 7.574219h393.847656c4.179688 0 7.570313-3.390626 7.570313-7.574219v-257.515625c0-4.183594-3.390625-7.574219-7.570313-7.574219h-393.847656c-4.183594 0-7.574219 3.390625-7.574219 7.574219v88.867187c0 4.183594 3.390625 7.574219 7.574219 7.574219s7.574219-3.390625 7.574219-7.574219v-81.292969h378.699218v242.367188h-378.699218v-125.730469c0-4.183593-3.390625-7.574219-7.574219-7.574219zm0 0"/><path d="m256 59.582031c-26.449219 0-47.96875 21.519531-47.96875 47.96875s21.519531 47.96875 47.96875 47.96875c10.496094 0 20.210938-3.398437 28.117188-9.140625l13.992187 13.992188c1.476563 1.476562 3.417969 2.21875 5.355469 2.21875s3.875-.742188 5.355468-2.21875c2.957032-2.957032 2.957032-7.753906 0-10.710938l-13.992187-13.992187c5.742187-7.90625 9.140625-17.621094 9.140625-28.117188 0-26.449219-21.519531-47.96875-47.96875-47.96875zm-32.820312 47.96875c0-18.097656 14.722656-32.820312 32.820312-32.820312s32.820312 14.722656 32.820312 32.820312c0 18.097657-14.722656 32.820313-32.820312 32.820313s-32.820312-14.722656-32.820312-32.820313zm0 0"/><path d="m131.28125 193.390625v40.394531c0 4.179688 3.390625 7.574219 7.574219 7.574219h234.289062c4.183594 0 7.574219-3.394531 7.574219-7.574219v-40.394531c0-4.183594-3.390625-7.574219-7.574219-7.574219h-234.289062c-4.183594 0-7.574219 3.390625-7.574219 7.574219zm234.289062 7.570313v25.25h-37.363281v-25.25zm-219.140624 0h166.628906v25.25h-166.628906zm0 0"/></symbol>
<symbol version="1.1" id="apply" xmlns="http://www.w3.org/2000/svg" xmlns:xlink="http://www.w3.org/1999/xlink" x="0px" y="0px"
	 viewBox="0 0 512 512" style="enable-background:new 0 0 512 512;" xml:space="preserve">
<g>
	<g>
		<path d="M362.937,0h-294c-16.542,0-30,13.458-30,30v102c0,5.523,4.478,10,10,10s10-4.477,10-10V30c0-5.514,4.486-10,10-10h294
			c5.514,0,10,4.486,10,10v372c0,5.514-4.486,10-10,10h-294c-5.514,0-10-4.486-10-10V216.333c0-5.523-4.478-10-10-10
			s-10,4.477-10,10V402c0,16.542,13.458,30,30,30h294c16.542,0,30-13.458,30-30V30C392.937,13.458,379.479,0,362.937,0z"/>
	</g>
</g>
<g>
	<g>
		<path d="M56.006,169.7c-1.859-1.86-4.439-2.92-7.069-2.92s-5.21,1.06-7.07,2.92c-1.861,1.87-2.93,4.45-2.93,7.07
			c0,2.64,1.07,5.21,2.93,7.08c1.86,1.86,4.44,2.93,7.07,2.93c2.629,0,5.209-1.07,7.069-2.93c1.861-1.86,2.931-4.44,2.931-7.08
			C58.937,174.14,57.866,171.57,56.006,169.7z"/>
	</g>
</g>
<g>
	<g>
		<path d="M96.066,454.99c-1.86-1.86-4.429-2.93-7.07-2.93c-2.63,0-5.21,1.07-7.069,2.93c-1.861,1.86-2.931,4.44-2.931,7.07
			c0,2.64,1.071,5.21,2.931,7.07c1.859,1.87,4.439,2.93,7.069,2.93c2.641,0,5.21-1.06,7.07-2.93c1.861-1.86,2.93-4.43,2.93-7.07
			C98.996,459.43,97.926,456.85,96.066,454.99z"/>
	</g>
</g>
<g>
	<g>
		<path d="M423,40.063c-5.522,0-10,4.477-10,10v392c0,5.514-4.486,10-10,10H129c-5.522,0-10,4.477-10,10s4.478,10,10,10h274
			c16.542,0,30-13.458,30-30v-392C433,44.54,428.522,40.063,423,40.063z"/>
	</g>
</g>
<g>
	<g>
		<path d="M463.063,80c-5.522,0-10,4.477-10,10v392c0,5.514-4.486,10-10,10h-314c-5.522,0-10,4.477-10,10s4.478,10,10,10h314
			c16.542,0,30-13.458,30-30V90C473.063,84.477,468.585,80,463.063,80z"/>
	</g>
</g>
<g>
	<g>
		<path d="M200.937,74h-96c-5.522,0-10,4.477-10,10v96c0,5.523,4.478,10,10,10h96c5.522,0,10-4.477,10-10V84
			C210.937,78.477,206.459,74,200.937,74z M190.937,170h-76V94h76V170z"/>
	</g>
</g>
<g>
	<g>
		<path d="M168.761,235.402c-3.906-3.904-10.236-3.905-14.143,0l-26.583,26.583l-12.36-12.361c-3.905-3.905-10.235-3.904-14.143,0
			c-3.905,3.905-3.905,10.237,0,14.142l19.432,19.432c1.876,1.875,4.419,2.929,7.071,2.929c2.653,0,5.195-1.054,7.072-2.929
			l33.654-33.654C172.666,245.639,172.666,239.307,168.761,235.402z"/>
	</g>
</g>
<g>
	<g>
		<path d="M332.604,249H215.937c-5.522,0-10,4.477-10,10s4.478,10,10,10h116.667c5.522,0,10-4.477,10-10S338.126,249,332.604,249z"
			/>
	</g>
</g>
<g>
	<g>
		<path d="M326.937,74h-70c-5.522,0-10,4.477-10,10s4.478,10,10,10h70c5.522,0,10-4.477,10-10S332.459,74,326.937,74z"/>
	</g>
</g>
<g>
	<g>
		<path d="M326.937,122h-70c-5.522,0-10,4.477-10,10s4.478,10,10,10h70c5.522,0,10-4.477,10-10S332.459,122,326.937,122z"/>
	</g>
</g>
<g>
	<g>
		<path d="M326.937,170h-70c-5.522,0-10,4.477-10,10s4.478,10,10,10h70c5.522,0,10-4.477,10-10S332.459,170,326.937,170z"/>
	</g>
</g>
<g>
	<g>
		<path d="M168.761,311.769c-3.906-3.904-10.236-3.905-14.143,0l-26.583,26.583l-12.36-12.361c-3.905-3.905-10.235-3.904-14.143,0
			c-3.905,3.905-3.905,10.237,0,14.142l19.432,19.432c1.876,1.875,4.419,2.929,7.071,2.929c2.653,0,5.195-1.054,7.072-2.929
			l33.654-33.654C172.666,322.006,172.666,315.674,168.761,311.769z"/>
	</g>
</g>
<g>
	<g>
		<path d="M332.604,325H215.937c-5.522,0-10,4.477-10,10s4.478,10,10,10h116.667c5.522,0,10-4.477,10-10S338.126,325,332.604,325z"
			/>
	</g>
</g>
</symbol>
<symbol id="sandWatch" version="1.0" xmlns="http://www.w3.org/2000/svg" width="512px" height="512px" viewBox="0 0 5120 5120" preserveAspectRatio="xMidYMid meet">
<g id="layer101" stroke="none">
 <path d="M450 5100 c-45 -45 -35 -114 21 -142 27 -14 60 -18 162 -18 l127 0 0 -170 0 -170 215 0 215 0 0 -465 c0 -512 4 -558 61 -683 36 -81 106 -179 162 -228 24 -22 254 -178 510 -349 257 -170 466 -312 466 -315 0 -3 -203 -140 -451 -305 -249 -165 -478 -321 -509 -347 -68 -56 -138 -150 -178 -240 -57 -125 -61 -171 -61 -683 l0 -465 -215 0 -215 0 0 -170 0 -170 -125 0 c-146 0 -185 -11 -204 -59 -16 -36 -8 -74 19 -101 20 -20 42 -20 2110 -20 2068 0 2090 0 2110 20 27 27 35 65 19 101 -19 48 -58 59 -204 59 l-125 0 0 170 0 170 -215 0 -215 0 0 465 c0 512 -4 558 -61 683 -40 90 -110 184 -178 240 -31 26 -260 182 -509 347 -248 165 -451 302 -451 305 0 3 209 145 466 315 256 171 486 327 510 349 56 49 126 147 162 228 57 125 61 171 61 683 l0 465 215 0 215 0 0 170 0 170 125 0 c146 0 185 11 204 59 16 36 8 74 -19 101 -20 20 -42 20 -2110 20 -2068 0 -2090 0 -2110 -20z m3730 -240 l0 -80 -1620 0 -1620 0 0 80 0 80 1620 0 1620 0 0 -80z m-430 -717 c0 -503 -3 -535 -60 -642 -62 -116 -85 -134 -621 -492 l-509 -339 -509 339 c-536 358 -559 376 -621 492 -57 107 -60 139 -60 642 l0 457 1190 0 1190 0 0 -457z m-681 -2032 c536 -358 559 -376 621 -492 57 -107 60 -139 60 -641 l0 -458 -1190 0 -1190 0 0 458 c0 503 3 534 61 643 60 113 96 141 624 494 275 183 501 334 503 334 1 1 231 -152 511 -338z m1111 -1851 l0 -80 -1620 0 -1620 0 0 80 0 80 1620 0 1620 0 0 -80z"/>
 <path d="M3441 4064 l-31 -26 0 -124 c0 -128 -10 -175 -48 -217 -9 -11 -111 -83 -227 -159 -115 -77 -216 -147 -222 -156 -22 -28 -16 -90 12 -117 48 -49 72 -40 317 124 123 82 237 164 255 182 18 19 44 61 60 94 25 56 28 71 31 212 l4 152 -30 31 c-39 38 -79 40 -121 4z"/>
 <path d="M2103 1949 c-13 -4 -123 -76 -246 -158 -245 -164 -279 -198 -311 -310 -18 -63 -22 -283 -6 -326 12 -31 64 -55 102 -48 55 10 63 32 68 187 5 116 9 147 25 174 14 24 83 76 230 174 116 78 220 150 233 161 16 15 22 32 22 62 0 30 -6 47 -22 62 -28 25 -66 34 -95 22z"/>
 </g>

</symbol>

<symbol id="paid" data-name="Layer 1" xmlns="http://www.w3.org/2000/svg" viewBox="0 0 267 271"><title>Artboard 18</title><path d="M60,85.43c-3.37-1.31-4.09,0-4.2,2.78-.27,6.87-1.07,7.57-8,7.62-7.5,0-15,0-22.49,0C21,95.87,18.94,94,19,89.51q.14-34.49,0-69c0-4.67,2-6.67,6.62-6.58,7,.15,14,0,21,0,8.41,0,8.61.17,9.78,8.86h5.28c19.83,0,39.66.1,59.48-.06a62.39,62.39,0,0,1,31.09,7.86c18.12,9.91,36.36,19.6,54.61,29.26a19.12,19.12,0,0,0,7,2c3.69.34,5.46,2,5.46,5.68q0,39,0,78c0,5.26-3.23,5.72-7.32,5.72q-55.49-.06-111,0c-11.33,0-22.66,0-34,0-5.86,0-7-1.17-7-7.09q0-26.74,0-53.48Zm65.61-14.18c4.59,3.68,8.25,5.26,13.23,5,13-.79,25.74,8.53,29.76,20.94A30.62,30.62,0,0,1,156.79,132a30.21,30.21,0,0,1-35.91-1c-10.36-8.3-13.72-19.2-11.07-32.49C96.6,93.26,84,86.31,69.23,85.44V123.5c8.85,2.75,15.2,7.76,18.06,16.73.37,1.14,2.65,2.37,4,2.37q48.22.21,96.46,0a6.14,6.14,0,0,0,4.5-3.13,27,27,0,0,1,15.12-15.11c1.4-.58,3.09-2.6,3.14-4,.28-9.16.21-18.33.05-27.49,0-1.18-1-3.12-1.94-3.4-9.34-2.8-14.48-9.49-17.26-18.19ZM56.09,76c19.85-1.41,37.1,5.62,54.25,13.07,7.17,3.11,14.43,6,21.61,9.1,3.35,1.44,6.88,3,9.08-1.25,2.32-4.53-1.17-6.57-4.47-8.49-4.17-2.43-8.29-4.93-12.45-7.39-5.73-3.39-8-7.47-6.7-12,1.42-4.8,5.15-7.06,11.78-7.07q28,0,55.93,0c1.57,0,3.13-.14,4.7-.21a1.34,1.34,0,0,0-.89-1.45Q167.36,48.82,145.8,37.27a49.35,49.35,0,0,0-24-5.77c-20.48.07-40.95,0-61.42,0-1.41,0-2.83.27-4.3.41ZM28.25,23.13V86.61H46.74V23.13Zm90.28,79.15c-2.3,12.42,4.47,22.87,16.24,25.78,10.86,2.68,22.39-4.16,25.72-15.26,2.95-9.81-2.06-21.34-10.21-24.31-.2,3.61-.51,7.33-.58,11.05,0,1.92-.19,4.15.67,5.72,2.39,4.36,2.93,8.72,0,12.67a43.2,43.2,0,0,1-8.75,8.54c-1,.76-3.63-.17-5.28-.88-1.06-.46-1.5-2.19-2.52-2.92-2.85-2-6.75-3.81-4.5-8.09s5.45-1.52,8.46-.16c1.21.54,3.15-.13,4.58-.7.54-.22,1.06-2.19.72-2.55a9.63,9.63,0,0,0-3.8-2.59c-5.18-1.62-10.44-3-15.65-4.46C122,103.67,120.52,103,118.53,102.28Zm82,38.87c10.95,2.13,11.39,1.66,9.28-9.19Zm.36-69.89c2,4.63,4.44,7.92,9.57,9v-9ZM70.42,132.59l-1.14.9v8.66H78l.78-1.35Z"/><path d="M206.13,221.78l-27.07,4.44c-19.39,3.18-38.8,6.3-58.18,9.55a40.09,40.09,0,0,1-28.32-5.2c-13.29-7.95-26.83-15.49-40.31-23.12-4.91-2.79-8.42-6.57-9.32-12.27-1-6.39.66-12,5.92-16a16.11,16.11,0,0,1,17.9-1.77c11.64,5.77,23.12,11.85,34.68,17.78,1.45.74,2.93,1.4,4.91,2.35,0-1.67.09-2.72,0-3.75-.68-6.85,1.73-12.49,7.89-15.41,12.33-5.83,24.79-11.47,37.51-16.4,10.21-3.95,20.91-3.58,31.39-.23,7.43,2.37,14.83,4.82,22.49,7.32a13.11,13.11,0,0,0,.45-2.09c.49-10.74.48-10.76,11.49-10.81,6.33,0,12.67.08,19,0,4.24,0,6.51,1.61,6.49,6.19q-.1,34.74,0,69.5c0,4.5-2.14,6.25-6.47,6.19-7.84-.11-15.67,0-23.5,0-5.46,0-6.82-1.39-6.92-6.73C206.08,228.31,206.13,225.35,206.13,221.78Zm0-9c0-10.95.08-21.26-.13-31.57a4.71,4.71,0,0,0-2.68-3.32c-7.66-2.79-15.26-6.11-23.19-7.66-7.19-1.4-15.38-2.71-22.06-.62-13.72,4.31-26.81,10.72-39.92,16.79-1.69.79-3.26,5.26-2.51,7,.89,2.1,4.19,3.49,6.73,4.44,1.25.46,3.15-.7,4.72-1.23,8.19-2.8,16.34-5.69,24.55-8.41,2.7-.9,5.91-1,6.39,2.46.25,1.73-1.59,5-3.16,5.54-14.87,4.78-29.08,13-45.63,9.91-3.86-.72-7.93-1.28-11.39-3C86.62,197.68,75.66,191.69,64.55,186c-5.31-2.73-9.93-1.78-12.24,2.27-2.45,4.31-.73,8.55,4.85,11.75C70.43,207.65,83.81,215.11,97,223a31.64,31.64,0,0,0,22.49,4.18c15.91-2.72,31.85-5.23,47.77-7.87C180,217.15,192.78,215,206.12,212.75Zm27.56,16.18V165.28H215.32v63.65Z"/><path d="M94.13,111.14c-3.53-.38-8.51,1.2-8.52-4.29,0-5.71,5.11-4.48,8.69-4.48s8.75-1.23,8.6,4.54S97.41,110.54,94.13,111.14Z"/><path d="M184.89,111.09c-1.33,0-2.93.47-3.91-.11a35.21,35.21,0,0,1-5-4.25c1.67-1.46,3.13-3.58,5.08-4.22a12.62,12.62,0,0,1,7.33,0c2,.62,4.75,2.4,5.07,4.07.6,3.08-2,4.53-5.08,4.53Z"/><path d="M102.28,49H87.85C84.71,49,82,48.18,82,44.49c0-3.35,2.57-4.34,5.53-4.35q14.93,0,29.85,0c3,0,5.41,1.28,5.34,4.55S120.23,49,117.21,49c-5,0-9.95,0-14.93,0Z"/><path d="M70.82,38.27c2,3.15,4,4.93,3.89,6.6-.08,1.42-2.6,3.77-4,3.74s-3.92-2.4-4-3.82C66.7,43.12,68.75,41.38,70.82,38.27Z"/><path d="M230.66,176c-2.7,1.92-4.44,4.09-5.78,3.87-1.71-.29-3.1-2.51-4.63-3.89,1.53-1.39,2.93-3.61,4.64-3.9C226.23,171.87,228,174.07,230.66,176Z"/></symbol>
<symbol version="1.1" id="arrowLeft" xmlns="http://www.w3.org/2000/svg" xmlns:xlink="http://www.w3.org/1999/xlink" x="0px" y="0px"
	 viewBox="0 0 31.494 31.494" style="enable-background:new 0 0 31.494 31.494;" xml:space="preserve">
<path d="M10.273,5.009c0.444-0.444,1.143-0.444,1.587,0c0.429,0.429,0.429,1.143,0,1.571l-8.047,8.047h26.554
	c0.619,0,1.127,0.492,1.127,1.111c0,0.619-0.508,1.127-1.127,1.127H3.813l8.047,8.032c0.429,0.444,0.429,1.159,0,1.587
	c-0.444,0.444-1.143,0.444-1.587,0l-9.952-9.952c-0.429-0.429-0.429-1.143,0-1.571L10.273,5.009z"/>
</symbol>


<symbol version="1.1" id="team2" xmlns="http://www.w3.org/2000/svg" xmlns:xlink="http://www.w3.org/1999/xlink" x="0px" y="0px"
	 viewBox="0 0 512 512" style="enable-background:new 0 0 512 512;" xml:space="preserve">
<g>
	<g>
		<path d="M451.72,237.26c-17.422-8.71-50.087-8.811-51.469-8.811c-4.142,0-7.5,3.358-7.5,7.5c0,4.142,3.358,7.5,7.5,7.5
			c8.429,0.001,32.902,1.299,44.761,7.228c1.077,0.539,2.221,0.793,3.348,0.793c2.751,0,5.4-1.52,6.714-4.147
			C456.927,243.618,455.425,239.113,451.72,237.26z"/>
	</g>
</g>
<g>
	<g>
		<path d="M489.112,344.041l-30.975-8.85c-1.337-0.382-2.271-1.62-2.271-3.011v-10.339c2.52-1.746,4.924-3.7,7.171-5.881
			c10.89-10.568,16.887-24.743,16.887-39.915v-14.267l2.995-5.989c3.287-6.575,5.024-13.936,5.024-21.286v-38.65
			c0-4.142-3.358-7.5-7.5-7.5H408.27c-26.244,0-47.596,21.352-47.596,47.596v0.447c0,6.112,1.445,12.233,4.178,17.699l3.841,7.682
			v12.25c0,19.414,9.567,36.833,24.058,47.315l0.002,10.836c0,1.671,0,2.363-6.193,4.133l-15.114,4.318l-43.721-15.898
			c0.157-2.063-0.539-4.161-2.044-5.742l-13.971-14.678v-24.64c1.477-1.217,2.933-2.467,4.344-3.789
			c17.625-16.52,27.733-39.844,27.733-63.991v-19.678c5.322-11.581,8.019-23.836,8.019-36.457v-80.19c0-4.142-3.358-7.5-7.5-7.5
			H232.037c-39.51,0-71.653,32.144-71.653,71.653v16.039c0,12.621,2.697,24.876,8.019,36.457v16.931
			c0,28.036,12.466,53.294,32.077,69.946v25.22l-13.971,14.678c-1.505,1.581-2.201,3.679-2.044,5.742l-46.145,16.779
			c-3.344,1.216-6.451,2.863-9.272,4.858l-7.246-3.623c21.57-9.389,28.403-22.594,28.731-23.25c1.056-2.111,1.056-4.597,0-6.708
			c-5.407-10.814-6.062-30.635-6.588-46.561c-0.175-5.302-0.341-10.311-0.658-14.771c-2.557-35.974-29.905-63.103-63.615-63.103
			s-61.059,27.128-63.615,63.103c-0.317,4.461-0.483,9.47-0.658,14.773c-0.526,15.925-1.182,35.744-6.588,46.558
			c-1.056,2.111-1.056,4.597,0,6.708c0.328,0.656,7.147,13.834,28.76,23.234l-20.127,10.063C6.684,358.176,0,368.991,0,381.02
			v55.409c0,4.142,3.358,7.5,7.5,7.5s7.5-3.358,7.5-7.5V381.02c0-6.312,3.507-11.987,9.152-14.81l25.063-12.531l8.718,8.285
			c6.096,5.793,13.916,8.688,21.739,8.688c7.821,0,15.645-2.897,21.739-8.688l8.717-8.284l8.172,4.086
			c-3.848,6.157-6.032,13.377-6.032,20.94v57.725c0,4.142,3.358,7.5,7.5,7.5c4.142,0,7.5-3.358,7.5-7.5v-57.725
			c0-10.296,6.501-19.578,16.178-23.097l48.652-17.691l20.253,30.381c2.589,3.884,6.738,6.375,11.383,6.835
			c0.518,0.051,1.033,0.076,1.547,0.076c4.098,0,8.023-1.613,10.957-4.546l12.356-12.356v78.124c0,4.142,3.358,7.5,7.5,7.5
			c4.142,0,7.5-3.358,7.5-7.5v-78.124l12.356,12.356c2.933,2.934,6.858,4.547,10.957,4.547c0.513,0,1.029-0.025,1.546-0.076
			c4.646-0.46,8.795-2.951,11.384-6.835l20.254-30.38l48.651,17.691c9.676,3.519,16.178,12.801,16.178,23.097v57.725
			c0,4.142,3.358,7.5,7.5,7.5c4.142,0,7.5-3.358,7.5-7.5v-57.725c0-10.428-4.143-20.208-11.093-27.441l1.853-0.529
			c1.869-0.534,4.419-1.265,6.979-2.52l19.149,19.149v69.066c0,4.142,3.358,7.5,7.5,7.5c4.142,0,7.5-3.358,7.5-7.5v-69.066
			l19.016-19.016c1.011,0.514,2.073,0.948,3.191,1.267l30.976,8.85c7.07,2.02,12.009,8.567,12.009,15.921v62.044
			c0,4.142,3.358,7.5,7.5,7.5c4.142,0,7.5-3.358,7.5-7.5v-62.044C512,360.371,502.588,347.892,489.112,344.041z M48.115,330.794
			c-14.029-5.048-21.066-11.778-24.07-15.453c2.048-5.354,3.376-11.486,4.275-17.959c4.136,9.917,11.063,18.383,19.795,24.423
			V330.794z M91.08,351.092c-6.397,6.078-16.418,6.077-22.813-0.001l-6.975-6.628c1.177-2.205,1.824-4.705,1.824-7.324v-7.994
			c5.232,1.635,10.794,2.517,16.558,2.517c5.757,0,11.316-0.886,16.557-2.512l-0.001,7.988c0,2.62,0.646,5.121,1.824,7.327
			L91.08,351.092z M79.676,316.662c-22.396,0-40.615-18.22-40.615-40.615c0-4.142-3.358-7.5-7.5-7.5c-0.42,0-0.83,0.043-1.231,0.11
			c0.022-0.645,0.043-1.291,0.065-1.93c0.167-5.157,0.328-10.028,0.625-14.206c0.958-13.476,6.343-25.894,15.163-34.968
			c8.899-9.156,20.793-14.198,33.491-14.198s24.591,5.042,33.491,14.198c8.82,9.074,14.205,21.492,15.163,34.968
			c0.296,4.177,0.458,9.047,0.628,14.203c0.015,0.443,0.03,0.892,0.045,1.338c-8.16-12.572-20.762-21.837-37.045-27.069
			c-15.043-4.833-27.981-4.534-28.527-4.52c-1.964,0.055-3.828,0.877-5.191,2.291l-13.532,14.034
			c-2.875,2.982-2.789,7.73,0.193,10.605s7.73,2.788,10.605-0.193l11.26-11.677c9.697,0.474,40.894,4.102,53.027,30.819
			C116.738,302.04,99.816,316.662,79.676,316.662z M111.229,330.819l0.001-8.945c8.725-6.007,15.662-14.457,19.801-24.449
			c0.899,6.458,2.226,12.576,4.27,17.918C132.314,318.983,125.244,325.773,111.229,330.819z M183.403,209.145v-18.608
			c0-1.129-0.255-2.244-0.746-3.261c-4.826-9.994-7.273-20.598-7.273-31.518V139.72c0-31.239,25.415-56.653,56.653-56.653h104.769
			v72.692c0,10.92-2.447,21.524-7.273,31.518c-0.491,1.017-0.746,2.132-0.746,3.261v21.355c0,20.311-8.165,39.15-22.991,53.047
			c-1.851,1.734-3.772,3.36-5.758,4.875c-0.044,0.03-0.086,0.063-0.129,0.094c-13.889,10.545-30.901,15.67-48.667,14.519
			C213.201,281.965,183.403,248.897,183.403,209.145z M225.632,360.056c-0.052,0.052-0.173,0.175-0.418,0.149
			c-0.244-0.024-0.34-0.167-0.381-0.229l-23.325-34.988l7.506-7.887l35.385,24.187L225.632,360.056z M256.095,331.113
			l-40.615-27.762v-14c10.509,5.681,22.276,9.234,34.791,10.044c1.977,0.128,3.942,0.191,5.901,0.191
			c14.341,0,28.143-3.428,40.538-9.935v13.7L256.095,331.113z M287.357,359.978c-0.041,0.062-0.137,0.205-0.381,0.229
			c-0.245,0.031-0.365-0.098-0.418-0.149l-18.767-18.767l35.385-24.188l7.507,7.887L287.357,359.978z M424.308,353.65l-17.02-17.019
			c0.297-1.349,0.465-2.826,0.464-4.455l-0.001-3.165c4.723,1.55,9.701,2.47,14.852,2.624c0.578,0.018,1.151,0.026,1.727,0.026
			c5.692,0,11.248-0.86,16.536-2.501v3.02c0,1.496,0.188,2.962,0.542,4.371L424.308,353.65z M452.591,305.196
			c-7.949,7.714-18.45,11.788-29.537,11.446c-21.704-0.651-39.361-19.768-39.361-42.613v-14.021c0-1.165-0.271-2.313-0.792-3.354
			l-4.633-9.266c-1.697-3.395-2.594-7.195-2.594-10.991v-0.447c0-17.974,14.623-32.596,32.596-32.596h64.673v31.15
			c0,5.034-1.19,10.075-3.441,14.578l-3.786,7.572c-0.521,1.042-0.792,2.189-0.792,3.354v16.038
			C464.924,287.126,460.544,297.478,452.591,305.196z"/>
	</g>
</g>
<g>
	<g>
		<path d="M472.423,380.814c-4.142,0-7.5,3.358-7.5,7.5v48.115c0,4.142,3.358,7.5,7.5,7.5c4.142,0,7.5-3.358,7.5-7.5v-48.115
			C479.923,384.173,476.565,380.814,472.423,380.814z"/>
	</g>
</g>
<g>
	<g>
		<path d="M39.577,390.728c-4.142,0-7.5,3.358-7.5,7.5v38.201c0,4.142,3.358,7.5,7.5,7.5c4.142,0,7.5-3.358,7.5-7.5v-38.201
			C47.077,394.087,43.719,390.728,39.577,390.728z"/>
	</g>
</g>
<g>
	<g>
		<path d="M317.532,158.475c-28.366-28.366-87.715-22.943-111.917-19.295c-7.623,1.149-13.155,7.6-13.155,15.339v17.278
			c0,4.142,3.358,7.5,7.5,7.5c4.142,0,7.5-3.358,7.5-7.5v-17.279c0-0.255,0.168-0.473,0.392-0.507
			c9.667-1.457,28.85-3.705,48.725-2.38c23.388,1.557,40.328,7.428,50.349,17.45c2.929,2.929,7.678,2.929,10.606,0
			C320.461,166.152,320.461,161.403,317.532,158.475z"/>
	</g>
</g>
<g>
	<g>
		<path d="M167.884,396.853c-4.142,0-7.5,3.358-7.5,7.5v32.077c0,4.142,3.358,7.5,7.5,7.5c4.142,0,7.5-3.358,7.5-7.5v-32.077
			C175.384,400.212,172.026,396.853,167.884,396.853z"/>
	</g>
</g>
<g>
	<g>
		<path d="M344.306,396.853c-4.142,0-7.5,3.358-7.5,7.5v32.077c0,4.142,3.358,7.5,7.5,7.5c4.142,0,7.5-3.358,7.5-7.5v-32.077
			C351.806,400.212,348.448,396.853,344.306,396.853z"/>
	</g>
</g>

</symbol>

<symbol version="1.1" id="clinic" xmlns="http://www.w3.org/2000/svg" xmlns:xlink="http://www.w3.org/1999/xlink" x="0px" y="0px"
	 viewBox="0 0 480.007 480.007" style="enable-background:new 0 0 480.007 480.007;" xml:space="preserve">
<g>
	<g>
		<path d="M479.426,267.581c-3.547-24.574-22.852-43.879-47.426-47.426v-14.544c0-40.128-30.504-72.8-68-72.8
			c-36.416,0-66.904,31.68-68,70.624h0.464l-0.464,0.08v157.656c0,50.4-37.68,91.328-84,91.328s-84-40.984-84-91.328v-13.656
			c11.6,0,24-8.408,24-32v-20.12c51.344-13.128,88-57.216,88-107.2v-16.68h-16l-0.336-104.12
			c-0.116-19.273-13.946-35.729-32.912-39.16c-4.091-12.533-17.568-19.377-30.102-15.285c-12.533,4.091-19.377,17.568-15.285,30.102
			c4.091,12.533,17.568,19.377,30.102,15.285c6.711-2.191,12.108-7.24,14.741-13.79c10.249,2.916,17.349,12.24,17.432,22.896
			L208,171.515h-16v16.912c-0.638,27.827-19.294,52.009-46.048,59.688c-14.315,4.542-29.685,4.542-44,0
			C75.229,240.41,56.615,216.232,56,188.427v-16.912H32v-104c0.046-10.813,7.318-20.261,17.76-23.072
			c4.869,12.395,18.864,18.495,31.259,13.626S99.514,39.204,94.645,26.81S75.78,8.315,63.386,13.184
			c-6.716,2.639-11.898,8.146-14.122,15.011C30.091,31.471,16.053,48.064,16,67.515v104H0v16.64c0,50.04,36.68,94.144,88,107.24
			v20.12c0,23.592,12.4,32,24,32v13.656c0,59.2,44.856,107.328,100,107.328s100-48.184,100-107.328V203.899
			c0.8-30.36,24.144-55.064,52-55.064c28.672,0,52,25.472,52,56.8v14.52c-30.611,4.418-51.844,32.815-47.426,63.426
			s32.815,51.844,63.426,47.426S483.844,298.191,479.426,267.581z M168,43.515c-4.418,0-8-3.582-8-8s3.582-8,8-8s8,3.582,8,8
			S172.418,43.515,168,43.515z M72,27.515c4.418,0,8,3.582,8,8s-3.582,8-8,8s-8-3.582-8-8S67.582,27.515,72,27.515z M16,188.155
			v-0.64h24v0.912c0.6,34.771,23.733,65.116,57.104,74.904c17.487,5.537,36.257,5.537,53.744,0
			c33.387-9.775,56.541-40.121,57.152-74.904v-0.912h16v0.64c0,44.504-34.304,83.664-81.6,93.136
			c-11.106,2.224-22.482,2.782-33.752,1.656c-3.71-0.36-7.398-0.918-11.048-1.672C50.304,271.819,16,232.659,16,188.155z
			 M112,331.515c-7.2,0-8-11.2-8-16v-16.976c0.64,0.08,1.296,0.112,1.944,0.176c0.8,0.088,1.6,0.152,2.4,0.224
			c3.784,0.336,7.6,0.56,11.448,0.568h0.4c3.84,0,7.648-0.232,11.408-0.568c0.8-0.072,1.648-0.136,2.472-0.224
			c0.632-0.072,1.288-0.096,1.92-0.176v16.976c0,4.8-0.8,16-8,16H112z M424,315.515c-22.091,0-40-17.909-40-40
			c0-22.091,17.909-40,40-40c22.091,0,40,17.909,40,40C463.974,297.596,446.08,315.489,424,315.515z"/>
	</g>
</g>
<g>
	<g>
		<path d="M424,251.515c-13.255,0-24,10.745-24,24s10.745,24,24,24s24-10.745,24-24S437.255,251.515,424,251.515z M424,283.515
			c-4.418,0-8-3.582-8-8s3.582-8,8-8s8,3.582,8,8S428.418,283.515,424,283.515z"/>
	</g>
</g>
</symbol>
<symbol xmlns="http://www.w3.org/2000/svg" id="application" data-name="Layer 1" viewBox="0 0 512 512" width="512" height="512"><title>Application Settings</title><path d="M118.575,477h160a46.052,46.052,0,0,0,46-46V377h11.009a6,6,0,0,0,5.973-5.424l2-20.733a96.732,96.732,0,0,0,24.667-10.38l15.918,13.182a6,6,0,0,0,8.069-.379l23.783-23.783a6,6,0,0,0,.378-8.069L403.159,305.46a98.684,98.684,0,0,0,10.408-24.636l20.441-1.994a6,6,0,0,0,5.417-5.972V239.141A6,6,0,0,0,434,233.169l-20.732-2a96.754,96.754,0,0,0-10.38-24.668l13.181-15.917a6,6,0,0,0-.351-8.042l-23.482-23.783a6,6,0,0,0-8.1-.406l-15.954,13.212a98.707,98.707,0,0,0-24.631-10.407l-2-20.736A6,6,0,0,0,335.584,135H324.575V81a46.052,46.052,0,0,0-46-46h-160a46.053,46.053,0,0,0-46,46V431A46.053,46.053,0,0,0,118.575,477ZM332.02,166.562a6,6,0,0,0,4.705,5.289,86.862,86.862,0,0,1,28.722,12.123,6,6,0,0,0,7.08-.421L387.559,171.1l15.806,16.009L390.872,202.2a6,6,0,0,0-.372,7.154A84.2,84.2,0,0,1,402.573,238a6,6,0,0,0,5.289,4.7l19.563,1.886v22.825L408.156,269.3a6,6,0,0,0-5.282,4.7,86.835,86.835,0,0,1-12.122,28.722,6,6,0,0,0,.421,7.079l12.471,15.06-16.058,16.058-15.059-12.471a6,6,0,0,0-7.155-.371,84.235,84.235,0,0,1-28.647,12.073,6,6,0,0,0-4.7,5.289L330.135,365H307.317l-1.886-19.562a6,6,0,0,0-4.7-5.289,86.862,86.862,0,0,1-28.722-12.123,6,6,0,0,0-7.08.421l-15.06,12.471L233.807,324.86l12.472-15.06a6,6,0,0,0,.371-7.154A84.207,84.207,0,0,1,234.577,274a6,6,0,0,0-5.289-4.7l-19.562-1.886V244.591l19.562-1.886a6,6,0,0,0,5.289-4.7A86.851,86.851,0,0,1,246.7,209.279a6,6,0,0,0-.42-7.079l-12.472-15.06,16.058-16.058,15.06,12.471a6,6,0,0,0,7.155.371,84.218,84.218,0,0,1,28.647-12.073,6,6,0,0,0,4.7-5.289L307.317,147h22.818ZM118.575,47h160a34.038,34.038,0,0,1,34,34V95h-14a6,6,0,0,0,0,12h14v28H301.867a6,6,0,0,0-5.972,5.424l-2,20.733a96.732,96.732,0,0,0-24.667,10.38l-15.917-13.182a6,6,0,0,0-8.07.379l-23.783,23.783a6,6,0,0,0-.378,8.069l13.212,15.954a98.757,98.757,0,0,0-10.408,24.63l-20.735,2a6,6,0,0,0-5.424,5.972v33.717a6,6,0,0,0,5.424,5.973l20.732,2A96.792,96.792,0,0,0,234.263,305.5l-13.182,15.917a6,6,0,0,0,.378,8.069l23.783,23.783a6,6,0,0,0,8.07.379l15.954-13.212A98.685,98.685,0,0,0,293.9,350.84l2,20.736A6,6,0,0,0,301.867,377h10.708v16h-228V107h163a6,6,0,0,0,0-12h-163V81A34.039,34.039,0,0,1,118.575,47Zm-34,358h228v26a34.038,34.038,0,0,1-34,34h-160a34.039,34.039,0,0,1-34-34Z"/><path d="M267.27,107h11.115a6,6,0,0,0,0-12H267.27a6,6,0,0,0,0,12Z"/><path d="M198.575,456a21,21,0,1,0-21-21A21.023,21.023,0,0,0,198.575,456Zm0-30a9,9,0,1,1-9,9A9.01,9.01,0,0,1,198.575,426Z"/><path d="M247.08,256a71.646,71.646,0,1,0,71.646-71.646A71.727,71.727,0,0,0,247.08,256Zm71.646-59.646A59.646,59.646,0,1,1,259.08,256,59.713,59.713,0,0,1,318.726,196.354Z"/><path d="M306.6,277.371a6,6,0,0,0,8.383,0l34.984-34.156a6,6,0,1,0-8.383-8.586l-30.793,30.063-15.227-14.866a6,6,0,0,0-8.382,8.587Z"/><path d="M179,237h-8.29a6,6,0,0,0,0,12H179a6,6,0,0,0,0-12Z"/><path d="M108,249h36.177a6,6,0,1,0,0-12H108a6,6,0,0,0,0,12Z"/><path d="M179,287H140.71a6,6,0,0,0,0,12H179a6,6,0,0,0,0-12Z"/><path d="M108,299h6.177a6,6,0,1,0,0-12H108a6,6,0,0,0,0,12Z"/><path d="M175,343a6,6,0,0,0,6,6h28a6,6,0,0,0,0-12H181A6,6,0,0,0,175,343Z"/><path d="M154.177,337H108a6,6,0,0,0,0,12h46.177a6,6,0,1,0,0-12Z"/><path d="M151,195h38a6,6,0,0,0,0-12H151a6,6,0,0,0,0,12Z"/><path d="M108,195h16.177a6,6,0,0,0,0-12H108a6,6,0,0,0,0,12Z"/></symbol>

<symbol version="1.1" id="service" xmlns="http://www.w3.org/2000/svg" xmlns:xlink="http://www.w3.org/1999/xlink" x="0px" y="0px"
	 viewBox="0 0 512 512" style="enable-background:new 0 0 512 512;" xml:space="preserve">
<g>
	<g>
		<g>
			<circle cx="53.333" cy="74.667" r="10.667"/>
			<circle cx="96" cy="74.667" r="10.667"/>
			<circle cx="138.667" cy="74.667" r="10.667"/>
			<path d="M117.333,234.667H352c5.896,0,10.667-4.771,10.667-10.667s-4.771-10.667-10.667-10.667H117.333
				c-5.896,0-10.667,4.771-10.667,10.667S111.438,234.667,117.333,234.667z"/>
			<path d="M245.333,341.333h-128c-5.896,0-10.667,4.771-10.667,10.667c0,5.896,4.771,10.667,10.667,10.667h128
				c5.896,0,10.667-4.771,10.667-10.667C256,346.104,251.229,341.333,245.333,341.333z"/>
			<path d="M471.167,149.333c-0.618,0-1.217,0.155-1.833,0.184V64c0-23.531-19.146-42.667-42.667-42.667h-384
				C19.146,21.333,0,40.469,0,64v384c0,23.531,19.146,42.667,42.667,42.667h384c23.521,0,42.667-19.135,42.667-42.667V249.745
				l30.708-30.703c0,0,0,0,0-0.01c7.604-7.604,11.958-18.125,11.958-28.865C512,167.646,493.688,149.333,471.167,149.333z
				 M21.333,64c0-11.76,9.563-21.333,21.333-21.333h384C438.438,42.667,448,52.24,448,64v42.667H21.333V64z M448,448
				c0,11.76-9.563,21.333-21.333,21.333h-384c-11.771,0-21.333-9.573-21.333-21.333V128H448v28.62
				c-2.025,1.392-3.962,2.923-5.708,4.672l-116.06,116.042H117.333c-5.896,0-10.667,4.771-10.667,10.667s4.771,10.667,10.667,10.667
				h191.785l-10.243,51.24c-0.708,3.5,0.396,7.115,2.917,9.635c2.021,2.021,4.75,3.125,7.542,3.125c0.688,0,1.396-0.073,2.083-0.208
				l53.313-10.667c2.083-0.417,3.979-1.427,5.458-2.917L448,271.076V448z M357.396,331.51l-34.458,6.896l6.896-34.5l96.828-96.828
				l27.587,27.587L357.396,331.51z M484.958,203.958l-15.625,15.625l-27.589-27.589l15.63-15.63
				c3.625-3.615,8.646-5.698,13.792-5.698c10.75,0,19.5,8.75,19.5,19.5C490.667,195.292,488.583,200.323,484.958,203.958z"/>
		</g>
	</g>
</g>
</symbol>

<symbol version="1.1" id="rating" xmlns="http://www.w3.org/2000/svg" xmlns:xlink="http://www.w3.org/1999/xlink" x="0px" y="0px"
	 viewBox="0 0 511.999 511.999" style="enable-background:new 0 0 511.999 511.999;" xml:space="preserve">
<g>
	<g>
		<path d="M150.447,312.003c7.476-3.772,16.448-0.955,20.427,6.413l28.239,52.29c2.176,4.029,6.811,6.063,11.25,4.943
			c4.439-1.122,7.549-5.116,7.549-9.695v-76.351c-0.001-5.522-4.478-9.999-10.001-9.999s-10,4.478-10,10v36.79l-9.44-17.48
			c-9.162-16.963-29.823-23.452-47.033-14.766c-14.729,7.431-22.314,23.821-18.445,39.858l18.307,75.881
			c4.279,17.738,11.908,34.202,22.674,48.935l35.864,49.077c1.958,2.68,4.999,4.101,8.082,4.101c2.047,0,4.113-0.627,5.892-1.927
			c4.459-3.259,5.433-9.516,2.174-13.975l-35.864-49.077c-9.202-12.592-15.722-26.663-19.379-41.824l-18.307-75.882
			C140.755,322.349,144.05,315.231,150.447,312.003z"/>
	</g>
</g>
<g>
	<g>
		<path d="M376.225,269.38c-5.901,0-11.456,1.511-16.3,4.164c-4.907-12.782-17.302-21.883-31.791-21.883
			c-6.249,0-12.105,1.7-17.144,4.65c-5.386-11.718-17.227-19.88-30.946-19.88c-5.007,0-9.76,1.095-14.045,3.044v-47.811
			c0-18.772-15.272-34.045-34.045-34.045c-18.773,0-34.045,15.272-34.045,34.045v17.334c0,5.522,4.477,10,10,10s10-4.478,10-10
			v-17.333c0-7.744,6.301-14.045,14.045-14.045c7.744,0,14.045,6.301,14.045,14.045v141.107c0,5.522,4.477,10,10,10
			c5.523,0,10-4.478,10-10v-62.297c0-7.744,6.3-14.045,14.045-14.045c7.745,0,14.045,6.301,14.045,14.045v62.297
			c0,5.522,4.477,10,10,10c5.523,0,10-4.478,10-10v-47.066c0-7.745,6.3-14.046,14.045-14.046c7.745,0,14.045,6.301,14.045,14.046
			v47.066c0,5.522,4.477,10,10,10s10-4.478,10-10v-29.349c0-7.744,6.301-14.045,14.045-14.045s14.045,6.301,14.045,14.045v84.379
			c0,22.484-3.412,44.764-10.14,66.218l-14.106,44.982c-1.652,5.27,1.28,10.882,6.55,12.534c0.996,0.313,2.003,0.461,2.995,0.461
			c4.254-0.001,8.199-2.737,9.539-7.011l14.106-44.982c7.336-23.394,11.056-47.687,11.056-72.202v-84.379
			C410.27,284.653,394.998,269.38,376.225,269.38z"/>
	</g>
</g>
<g>
	<g>
		<path d="M511.161,53.029c-1.996-6.139-7.205-10.528-13.594-11.455l-30.629-4.441L453.233,9.381C450.376,3.594,444.592,0,438.139,0
			c-0.001,0-0.003,0-0.004,0c-6.456,0.001-12.24,3.599-15.095,9.389l-13.69,27.758l-30.627,4.459
			c-6.388,0.93-11.595,5.322-13.587,11.463c-1.993,6.14-0.358,12.752,4.265,17.256l22.169,21.598l-5.224,30.506
			c-1.089,6.363,1.479,12.672,6.702,16.464c2.95,2.143,6.401,3.23,9.875,3.23c2.677,0,5.368-0.646,7.854-1.953l27.391-14.41
			l27.399,14.396c5.714,3.004,12.508,2.51,17.729-1.287c5.221-3.796,7.786-10.105,6.692-16.468l-5.24-30.503l22.157-21.609
			C511.526,65.781,513.157,59.167,511.161,53.029z M469.594,78.741c-3.969,3.869-5.777,9.441-4.838,14.903l4.436,25.823
			l-23.194-12.186c-4.907-2.58-10.765-2.577-15.67,0.003l-23.188,12.199l4.423-25.827c0.934-5.462-0.877-11.031-4.847-14.899
			l-18.768-18.284l25.93-3.774c5.483-0.799,10.221-4.243,12.672-9.214l11.59-23.498l11.602,23.491
			c2.454,4.97,7.193,8.411,12.679,9.208l25.93,3.761L469.594,78.741z"/>
	</g>
</g>
<g>
	<g>
		<path d="M329.01,53.029c-1.996-6.139-7.204-10.529-13.593-11.455l-30.629-4.441L271.083,9.381C268.225,3.594,262.442,0,255.988,0
			c-0.001,0-0.003,0-0.005,0c-6.455,0.001-12.239,3.599-15.094,9.389l-13.69,27.758l-30.627,4.459
			c-6.388,0.93-11.595,5.322-13.587,11.463c-1.993,6.14-0.358,12.752,4.265,17.256l22.168,21.597l-5.224,30.506
			c-1.089,6.363,1.479,12.672,6.702,16.464c2.95,2.143,6.401,3.23,9.875,3.23c2.677,0,5.368-0.646,7.854-1.953l27.392-14.409
			l27.399,14.395c5.714,3.004,12.508,2.51,17.729-1.287c5.221-3.796,7.786-10.105,6.692-16.468l-5.24-30.503l22.157-21.609
			C329.375,65.781,331.006,59.168,329.01,53.029z M287.444,78.741c-3.968,3.868-5.776,9.439-4.838,14.903l4.436,25.823
			l-23.194-12.186c-4.908-2.579-10.767-2.578-15.67,0.003l-23.189,12.199l4.423-25.827c0.934-5.463-0.877-11.032-4.847-14.899
			l-18.767-18.284l25.929-3.774c5.483-0.799,10.221-4.243,12.673-9.214l11.59-23.499l11.602,23.492
			c2.453,4.969,7.192,8.411,12.679,9.208l25.93,3.761L287.444,78.741z"/>
	</g>
</g>
<g>
	<g>
		<path d="M146.86,53.029c-1.996-6.139-7.205-10.528-13.594-11.455l-30.629-4.441L88.933,9.381C86.075,3.594,80.292,0,73.838,0
			c-0.001,0-0.003,0-0.005,0c-6.455,0.001-12.239,3.599-15.094,9.389l-13.69,27.758l-30.627,4.459
			c-6.388,0.93-11.594,5.322-13.587,11.462S0.475,65.82,5.099,70.325l22.169,21.598l-5.224,30.506
			c-1.089,6.363,1.479,12.672,6.702,16.465c2.951,2.142,6.401,3.23,9.876,3.229c2.677,0,5.368-0.646,7.854-1.953l27.392-14.409
			l27.399,14.395c5.715,3.002,12.508,2.509,17.729-1.286c5.221-3.797,7.785-10.108,6.692-16.47l-5.24-30.503l22.157-21.609
			C147.225,65.781,148.856,59.168,146.86,53.029z M105.294,78.74c-3.969,3.868-5.778,9.44-4.839,14.904l4.436,25.823l-23.193-12.186
			c-4.907-2.579-10.766-2.578-15.67,0.003l-23.19,12.2l4.422-25.825c0.936-5.462-0.875-11.032-4.846-14.901L23.648,60.473
			l25.929-3.774c5.483-0.799,10.221-4.243,12.672-9.214l11.59-23.499l11.602,23.492c2.453,4.969,7.192,8.411,12.679,9.208
			l25.931,3.761L105.294,78.74z"/>
	</g>
</g>
<g>
	<g>
		<path d="M214.981,243.13c-1.86-1.861-4.439-2.93-7.07-2.93c-2.63,0-5.21,1.069-7.07,2.93s-2.93,4.439-2.93,7.07
			c0,2.63,1.07,5.21,2.93,7.069c1.86,1.86,4.44,2.931,7.07,2.931c2.63,0,5.21-1.07,7.07-2.931c1.86-1.859,2.93-4.439,2.93-7.069
			C217.911,247.568,216.841,244.989,214.981,243.13z"/>
	</g>
</g>

</symbol>

<symbol id="shop" height="682pt" viewBox="-21 -22 682.66669 682" width="682pt" xmlns="http://www.w3.org/2000/svg"><path d="m398.351562 441.269531 22.953126-32.734375c2.960937-4.226562 1.941406-10.0625-2.289063-13.027344-4.226563-2.960937-10.066406-1.941406-13.03125 2.292969l-22.953125 32.726563c-2.960938 4.230468-1.941406 10.066406 2.289062 13.035156 1.632813 1.140625 3.507813 1.691406 5.363282 1.691406 2.945312 0 5.84375-1.386718 7.667968-3.984375zm0 0"/><path d="m458.140625 386.035156c-4.230469-2.96875-10.0625-1.941406-13.03125 2.292969l-54.675781 77.96875c-2.96875 4.226563-1.941406 10.0625 2.285156 13.027344 1.636719 1.144531 3.507812 1.691406 5.363281 1.691406 2.949219 0 5.847657-1.386719 7.667969-3.984375l54.675781-77.96875c2.96875-4.226562 1.941407-10.0625-2.285156-13.027344zm0 0"/><path d="m535.4375 354.871094h-193.351562c-10.671876 0-19.355469 8.679687-19.355469 19.355468v153.34375c0 10.671876 8.679687 19.355469 19.355469 19.355469h193.351562c10.671875 0 19.359375-8.683593 19.359375-19.355469v-153.34375c0-10.675781-8.6875-19.355468-19.359375-19.355468zm.648438 172.703125c0 .355469-.289063.644531-.648438.644531h-193.351562c-.359376 0-.644532-.289062-.644532-.644531v-153.347657c0-.359374.285156-.652343.644532-.652343h193.351562c.359375 0 .648438.292969.648438.652343zm0 0"/><path d="m639.96875 201.886719c-.003906-.09375-.003906-.1875-.011719-.277344-.070312-.71875-.222656-1.414063-.433593-2.070313-.011719-.027343-.011719-.046874-.023438-.066406l-60.703125-178.851562c-4.132813-12.1875-15.558594-20.371094-28.425781-20.371094h-134.648438c-5.167968 0-9.355468 4.191406-9.355468 9.355469 0 5.167969 4.1875 9.351562 9.355468 9.351562h134.648438c4.847656 0 9.152344 3.085938 10.707031 7.675781l56.515625 166.488282h-595.1875l56.515625-166.488282c1.554687-4.589843 5.859375-7.671874 10.707031-7.671874h282.441406c5.164063 0 9.355469-4.1875 9.355469-9.355469 0-5.164063-4.191406-9.355469-9.355469-9.355469h-282.445312c-12.867188 0-24.289062 8.1875-28.421875 20.371094l-60.703125 178.851562c-.011719.019532-.011719.039063-.023438.058594-.21875.664062-.363281 1.359375-.4335932 2.078125-.0078126.085937-.0078126.183594-.0117188.277344-.0117188.195312-.03125.390625-.03125.59375v58.238281c0 15.347656 7.222656 29.035156 18.433594 37.863281v330.65625c0 5.167969 4.1875 9.355469 9.355468 9.355469h584.421876c5.167968 0 9.355468-4.1875 9.355468-9.355469v-330.65625c11.210938-8.828125 18.433594-22.515625 18.433594-37.863281v-58.238281c0-.203125-.019531-.398438-.03125-.59375zm-155.261719 9.945312h58.921875v48.886719c0 .25.011719.492188.011719.742188-.394531 15.914062-13.449219 28.734374-29.457031 28.734374-16.253906 0-29.476563-13.222656-29.476563-29.476562zm-77.816406 48.886719v-48.886719h58.921875v48.886719c0 16.253906-13.230469 29.476562-29.484375 29.476562-16 0-29.0625-12.820312-29.457031-28.734374 0-.25.019531-.492188.019531-.742188zm-77.632813 0v-48.886719h58.886719v48.886719c0 .25.015625.492188.015625.742188-.394531 15.914062-13.453125 28.734374-29.457031 28.734374-16.015625 0-29.078125-12.835937-29.460937-28.757812 0-.238281.015624-.480469.015624-.71875zm-77.625 0v-48.886719h58.878907v48.886719c0 .238281.015625.480469.019531.71875-.382812 15.921875-13.445312 28.757812-29.457031 28.757812-16.003907 0-29.0625-12.820312-29.464844-28.734374.007813-.25.023437-.492188.023437-.742188zm-77.628906 0v-48.886719h58.882813v48.886719c0 .25.011719.492188.019531.742188-.398438 15.910156-13.457031 28.734374-29.460938 28.734374-16.003906 0-29.0625-12.820312-29.460937-28.734374.003906-.25.019531-.492188.019531-.742188zm-77.632812 0v-48.886719h58.882812v48.886719c0 .25.019532.492188.019532.742188-.394532 15.914062-13.453126 28.734374-29.457032 28.734374-16.007812 0-29.0625-12.820312-29.457031-28.734374 0-.25.011719-.492188.011719-.742188zm-77.664063 0v-48.886719h58.917969v48.886719c0 .25.015625.492188.023438.742188-.398438 15.914062-13.453126 28.734374-29.460938 28.734374-16.253906 0-29.480469-13.222656-29.480469-29.476562zm584.148438 359.164062h-332.261719v-245.65625c0-10.675781-8.679688-19.355468-19.351562-19.355468h-143.570313c-10.675781 0-19.355469 8.679687-19.355469 19.355468v57.855469c0 5.164063 4.183594 9.355469 9.347656 9.355469 5.167969 0 9.359376-4.191406 9.359376-9.355469v-57.855469c0-.359374.285156-.652343.640624-.652343h143.578126c.355468 0 .648437.292969.648437.652343v245.65625h-144.867187v-144.355468c0-5.164063-4.1875-9.355469-9.351563-9.355469-5.167969 0-9.355469 4.191406-9.355469 9.355469v144.355468h-51.171875v-312.269531c3.550781.835938 7.238281 1.289063 11.042969 1.289063 15.910156 0 30.035156-7.75 38.8125-19.671875 8.78125 11.921875 22.90625 19.671875 38.816406 19.671875 15.90625 0 30.035156-7.75 38.8125-19.671875 8.785156 11.917969 22.910156 19.671875 38.816406 19.671875s30.03125-7.75 38.816407-19.671875c8.777343 11.921875 22.902343 19.671875 38.8125 19.671875 15.910156 0 30.035156-7.75 38.8125-19.671875 8.78125 11.921875 22.90625 19.671875 38.816406 19.671875 15.90625 0 30.03125-7.75 38.8125-19.671875 8.777344 11.921875 22.90625 19.671875 38.8125 19.671875 15.980469 0 30.15625-7.820313 38.929687-19.828125 8.769532 12.007812 22.949219 19.828125 38.925782 19.828125 15.910156 0 30.035156-7.75 38.816406-19.671875 8.78125 11.921875 22.90625 19.671875 38.8125 19.671875 3.804688 0 7.492188-.453125 11.042969-1.289063zm18.4375-359.164062c0 16.253906-13.226563 29.476562-29.480469 29.476562-16 0-29.0625-12.820312-29.460938-28.734374.007813-.25.023438-.492188.023438-.742188v-48.886719h58.917969zm0 0"/><path d="m229.085938 554.042969c5.167968 0 9.355468-4.183594 9.355468-9.347657 0-5.167968-4.1875-9.355468-9.355468-9.355468-4.652344 0-8.4375-3.785156-8.4375-8.4375v-60.339844c0-4.652344 3.785156-8.4375 8.4375-8.4375 5.167968 0 9.355468-4.1875 9.355468-9.355469 0-5.164062-4.1875-9.347656-9.355468-9.347656-14.964844 0-27.140626 12.175781-27.140626 27.140625v60.339844c0 14.964844 12.175782 27.140625 27.140626 27.140625zm0 0"/></symbol>

<symbol version="1.1" id="pinterest" xmlns="http://www.w3.org/2000/svg" xmlns:xlink="http://www.w3.org/1999/xlink" x="0px" y="0px"
	 viewBox="0 0 310.05 310.05" style="enable-background:new 0 0 310.05 310.05;" xml:space="preserve">
<g id="XMLID_798_">
	<path id="XMLID_799_" d="M245.265,31.772C223.923,11.284,194.388,0,162.101,0c-49.32,0-79.654,20.217-96.416,37.176
		c-20.658,20.9-32.504,48.651-32.504,76.139c0,34.513,14.436,61.003,38.611,70.858c1.623,0.665,3.256,1,4.857,1
		c5.1,0,9.141-3.337,10.541-8.69c0.816-3.071,2.707-10.647,3.529-13.936c1.76-6.495,0.338-9.619-3.5-14.142
		c-6.992-8.273-10.248-18.056-10.248-30.788c0-37.818,28.16-78.011,80.352-78.011c41.412,0,67.137,23.537,67.137,61.425
		c0,23.909-5.15,46.051-14.504,62.35c-6.5,11.325-17.93,24.825-35.477,24.825c-7.588,0-14.404-3.117-18.705-8.551
		c-4.063-5.137-5.402-11.773-3.768-18.689c1.846-7.814,4.363-15.965,6.799-23.845c4.443-14.392,8.643-27.985,8.643-38.83
		c0-18.55-11.404-31.014-28.375-31.014c-21.568,0-38.465,21.906-38.465,49.871c0,13.715,3.645,23.973,5.295,27.912
		c-2.717,11.512-18.865,79.953-21.928,92.859c-1.771,7.534-12.44,67.039,5.219,71.784c19.841,5.331,37.576-52.623,39.381-59.172
		c1.463-5.326,6.582-25.465,9.719-37.845c9.578,9.226,25,15.463,40.006,15.463c28.289,0,53.73-12.73,71.637-35.843
		c17.367-22.418,26.932-53.664,26.932-87.978C276.869,77.502,265.349,51.056,245.265,31.772z"/>
</g>
</symbol>
<symbol version="1.1" id="facebook" xmlns="http://www.w3.org/2000/svg" xmlns:xlink="http://www.w3.org/1999/xlink" x="0px" y="0px"
	 viewBox="0 0 512 512" style="enable-background:new 0 0 512 512;" xml:space="preserve">
<path d="M134.941,272.691h56.123v231.051c0,4.562,3.696,8.258,8.258,8.258h95.159
	c4.562,0,8.258-3.696,8.258-8.258V273.78h64.519c4.195,0,7.725-3.148,8.204-7.315l9.799-85.061c0.269-2.34-0.472-4.684-2.038-6.44
	c-1.567-1.757-3.81-2.763-6.164-2.763h-74.316V118.88c0-16.073,8.654-24.224,25.726-24.224c2.433,0,48.59,0,48.59,0
	c4.562,0,8.258-3.698,8.258-8.258V8.319c0-4.562-3.696-8.258-8.258-8.258h-66.965C309.622,0.038,308.573,0,307.027,0
	c-11.619,0-52.006,2.281-83.909,31.63c-35.348,32.524-30.434,71.465-29.26,78.217v62.352h-58.918c-4.562,0-8.258,3.696-8.258,8.258
	v83.975C126.683,268.993,130.379,272.691,134.941,272.691z"/>
</symbol>
<symbol version="1.1" id="twitter" xmlns="http://www.w3.org/2000/svg" xmlns:xlink="http://www.w3.org/1999/xlink" x="0px" y="0px"
	 viewBox="0 0 512 512" style="enable-background:new 0 0 512 512;" xml:space="preserve">
<g>
	<g>
		<path d="M512,97.248c-19.04,8.352-39.328,13.888-60.48,16.576c21.76-12.992,38.368-33.408,46.176-58.016
			c-20.288,12.096-42.688,20.64-66.56,25.408C411.872,60.704,384.416,48,354.464,48c-58.112,0-104.896,47.168-104.896,104.992
			c0,8.32,0.704,16.32,2.432,23.936c-87.264-4.256-164.48-46.08-216.352-109.792c-9.056,15.712-14.368,33.696-14.368,53.056
			c0,36.352,18.72,68.576,46.624,87.232c-16.864-0.32-33.408-5.216-47.424-12.928c0,0.32,0,0.736,0,1.152
			c0,51.008,36.384,93.376,84.096,103.136c-8.544,2.336-17.856,3.456-27.52,3.456c-6.72,0-13.504-0.384-19.872-1.792
			c13.6,41.568,52.192,72.128,98.08,73.12c-35.712,27.936-81.056,44.768-130.144,44.768c-8.608,0-16.864-0.384-25.12-1.44
			C46.496,446.88,101.6,464,161.024,464c193.152,0,298.752-160,298.752-298.688c0-4.64-0.16-9.12-0.384-13.568
			C480.224,136.96,497.728,118.496,512,97.248z"/>
	</g>
</g>
</symbol>
<symbol version="1.1" id="instagram" xmlns="http://www.w3.org/2000/svg" xmlns:xlink="http://www.w3.org/1999/xlink" x="0px" y="0px"
	 width="438.536px" height="438.536px" viewBox="0 0 438.536 438.536" style="enable-background:new 0 0 438.536 438.536;"
	 xml:space="preserve">
<g>
	<path d="M421.981,16.562C410.941,5.519,397.711,0,382.298,0H56.248C40.83,0,27.604,5.521,16.561,16.562
		C5.52,27.6,0.001,40.828,0.001,56.243V382.29c0,15.413,5.518,28.644,16.56,39.683c11.043,11.04,24.272,16.563,39.687,16.563
		h326.046c15.41,0,28.644-5.523,39.684-16.563c11.043-11.039,16.557-24.27,16.557-39.683V56.243
		C438.534,40.825,433.021,27.604,421.981,16.562z M157.462,158.025c17.224-16.652,37.924-24.982,62.097-24.982
		c24.36,0,45.153,8.33,62.381,24.982c17.228,16.655,25.837,36.785,25.837,60.386c0,23.598-8.609,43.729-25.837,60.379
		c-17.228,16.659-38.014,24.988-62.381,24.988c-24.172,0-44.87-8.336-62.097-24.988c-17.228-16.652-25.841-36.781-25.841-60.379
		C131.621,194.81,140.234,174.681,157.462,158.025z M388.865,370.589c0,4.945-1.718,9.083-5.141,12.416
		c-3.433,3.33-7.519,4.996-12.282,4.996h-305.2c-4.948,0-9.091-1.666-12.419-4.996c-3.333-3.326-4.998-7.471-4.998-12.416V185.575
		H89.08c-3.805,11.993-5.708,24.462-5.708,37.402c0,36.553,13.322,67.715,39.969,93.511c26.65,25.786,58.721,38.685,96.217,38.685
		c24.744,0,47.583-5.903,68.527-17.703c20.937-11.807,37.486-27.839,49.676-48.112c12.183-20.272,18.274-42.4,18.274-66.38
		c0-12.94-1.91-25.406-5.715-37.402h38.547v185.014H388.865z M388.865,115.626c0,5.52-1.903,10.184-5.716,13.99
		c-3.805,3.809-8.466,5.711-13.989,5.711h-49.676c-5.517,0-10.185-1.903-13.99-5.711c-3.806-3.806-5.708-8.47-5.708-13.99V68.522
		c0-5.33,1.902-9.945,5.708-13.848c3.806-3.901,8.474-5.854,13.99-5.854h49.676c5.523,0,10.185,1.952,13.989,5.854
		c3.812,3.903,5.716,8.518,5.716,13.848V115.626z"/>
</g>
</symbol>


</svg>

