<svg xmlns="http://www.w3.org/2000/svg" width="80" height="75" viewBox="0 0 80 75">
    <path fill-rule="nonzero" d="M72.188 40.627c.865 0 1.56.696 1.56 1.56 0 .805-.605 1.474-1.404 1.553a1.558 1.558 0 0 1-1.717-1.553c0-.865.696-1.56 1.56-1.56zM40 34.377c.865 0 1.56.696 1.56 1.56 0 .923-.79 1.645-1.716 1.553-.8-.08-1.405-.749-1.405-1.553 0-.865.697-1.56 1.561-1.56zm0-6.252c11.2 0 20.313 9.112 20.313 20.313 0 11.2-9.113 20.312-20.313 20.312s-20.313-9.112-20.313-20.313c0-11.2 9.113-20.312 20.313-20.312zm0 37.5c9.477 0 17.188-7.71 17.188-17.188 0-9.477-7.71-17.187-17.188-17.187-9.477 0-17.188 7.71-17.188 17.188 0 9.477 7.71 17.187 17.188 17.187zm6.808-29.49a14.085 14.085 0 0 1 7.255 12.303 1.563 1.563 0 0 1-3.126 0c0-3.97-2.163-7.637-5.646-9.57a1.562 1.562 0 1 1 1.517-2.733zM75.313 25A4.693 4.693 0 0 1 80 29.688v37.5a4.693 4.693 0 0 1-4.688 4.687H52.504A26.602 26.602 0 0 1 40 75a26.604 26.604 0 0 1-12.503-3.125H4.687A4.693 4.693 0 0 1 0 67.187v-37.5A4.693 4.693 0 0 1 4.688 25H6.25v-4.688c0-.862.7-1.562 1.563-1.562h6.25c.862 0 1.562.7 1.562 1.563V25h11.872a26.5 26.5 0 0 1 4.69-1.954V18.75H27.5a4.693 4.693 0 0 1-4.688-4.688V4.688A4.693 4.693 0 0 1 27.5 0h25a4.693 4.693 0 0 1 4.688 4.688v9.375A4.693 4.693 0 0 1 52.5 18.75h-4.688v4.296A26.49 26.49 0 0 1 52.504 25h11.872v-4.688c0-.862.7-1.562 1.563-1.562h6.25c.862 0 1.562.7 1.562 1.563V25h1.563zM67.5 21.875V25h3.125v-3.125H67.5zm-40-6.25h25c.862 0 1.563-.7 1.563-1.563V4.688c0-.862-.701-1.563-1.563-1.563h-25c-.862 0-1.563.7-1.563 1.563v9.375c0 .861.701 1.562 1.563 1.562zm17.188 3.125h-9.376v3.54A26.765 26.765 0 0 1 40 21.876c1.577 0 3.146.142 4.688.416V18.75zM9.374 21.875V25H12.5v-3.125H9.375zm-6.25 7.813v4.687h14.337a26.724 26.724 0 0 1 5.424-6.266H4.688c-.862 0-1.563.717-1.563 1.578zm0 7.796v21.891h12.664a26.593 26.593 0 0 1-2.351-10.938c0-3.785.807-7.534 2.351-10.953H3.125zM4.688 68.75h18.198a26.65 26.65 0 0 1-5.424-6.25H3.125v4.688c0 .861.7 1.562 1.563 1.562zM40 71.875c12.907 0 23.438-10.455 23.438-23.438C63.438 35.496 52.944 25 40 25c-13.002 0-23.438 10.552-23.438 23.438 0 12.933 10.484 23.437 23.438 23.437zm36.875-4.688V62.5H62.538a26.648 26.648 0 0 1-5.424 6.25h18.199c.861 0 1.562-.7 1.562-1.563zm0-7.812V37.5H64.211a26.594 26.594 0 0 1 2.352 10.938c0 3.785-.808 7.519-2.352 10.937h12.664zm0-25v-4.688c0-.861-.7-1.562-1.563-1.562H57.114a26.642 26.642 0 0 1 5.424 6.25h14.337zM49.375 6.25c.863 0 1.563.7 1.563 1.563v3.125a1.563 1.563 0 0 1-3.126 0V7.812c0-.862.7-1.562 1.563-1.562z"/>
</svg>
