<svg xmlns="http://www.w3.org/2000/svg" width="51" height="50" viewBox="0 0 51 50">
    <g fill-rule="evenodd">
        <path d="M45.667 41.92A3.08 3.08 0 0 1 42.586 45H8.747a3.08 3.08 0 0 1-3.08-3.08V17.08A3.08 3.08 0 0 1 8.747 14h5.163a3.083 3.083 0 0 0 2.99-2.335l1.289-5.155A1.994 1.994 0 0 1 20.123 5H31.21c.915 0 1.712.623 1.934 1.51l1.289 5.155A3.083 3.083 0 0 0 37.423 14h5.163a3.08 3.08 0 0 1 3.081 3.08v24.84zM42.586 9h-3.669l-.996-3.98A6.627 6.627 0 0 0 31.492 0H19.841a6.627 6.627 0 0 0-6.429 5.02L12.417 9h-3.67a8.08 8.08 0 0 0-8.08 8.08v24.84A8.08 8.08 0 0 0 8.747 50h33.839a8.08 8.08 0 0 0 8.081-8.08V17.08A8.08 8.08 0 0 0 42.586 9z"/>
        <path d="M40.167 17a2.5 2.5 0 1 0 0 5 2.5 2.5 0 0 0 0-5M25.667 17c-6.628 0-12 5.373-12 12s5.372 12 12 12c6.627 0 12-5.373 12-12s-5.373-12-12-12zm0 5c3.859 0 7 3.14 7 7s-3.141 7-7 7c-3.86 0-7-3.14-7-7s3.14-7 7-7z"/>
    </g>
</svg>
