<svg xmlns="http://www.w3.org/2000/svg" width="80" height="74" viewBox="0 0 80 74">
    <path fill="#BE1D24" fill-rule="nonzero" d="M78.438 59.497c.862 0 1.562.702 1.562 1.568v11.367c0 .866-.7 1.568-1.563 1.568a1.565 1.565 0 0 1-1.562-1.568v-9.799H52.812v9.8c0 .865-.699 1.567-1.562 1.567a1.565 1.565 0 0 1-1.563-1.568V61.065c0-.866.7-1.568 1.563-1.568v-9.28c0-4.332 1.476-8.587 4.156-11.982l5.174-6.552a5.788 5.788 0 0 1 5.413-2.168 5.801 5.801 0 0 1 4.596 3.597 5.887 5.887 0 0 1-.544 5.468l-5.54 8.371a1.559 1.559 0 0 1-2.166.439 1.57 1.57 0 0 1-.438-2.174l5.54-8.37c.501-.756.596-1.71.254-2.55a2.705 2.705 0 0 0-2.142-1.677 2.698 2.698 0 0 0-2.524 1.011l-5.173 6.552a16.258 16.258 0 0 0-3.481 10.034v9.281h24.063zm-.47-6.309c.29.292.457.697.457 1.109a1.565 1.565 0 0 1-1.563 1.568 1.562 1.562 0 0 1-1.562-1.568 1.568 1.568 0 0 1 1.563-1.568c.41 0 .814.168 1.104.46zm-3.002-31.846a45.303 45.303 0 0 1 3.459 17.409v9.066c0 .866-.7 1.568-1.563 1.568a1.565 1.565 0 0 1-1.562-1.568V38.75c0-5.59-1.084-11.043-3.22-16.206L64.954 5.327A3.508 3.508 0 0 0 62.87 3.34 3.492 3.492 0 0 0 60 3.56a3.544 3.544 0 0 0-1.579 4.525l7.545 17.754a1.57 1.57 0 0 1-.824 2.057 1.56 1.56 0 0 1-2.05-.827L55.548 9.315A6.67 6.67 0 0 1 58.519.8a6.659 6.659 0 0 1 5.396-.413 6.69 6.69 0 0 1 3.925 3.738l7.126 17.218zM60.07 66.527c.583.638.54 1.63-.097 2.215a1.556 1.556 0 0 1-2.207-.097l-.013-.014a1.572 1.572 0 0 1 .097-2.215 1.559 1.559 0 0 1 2.208.097l.012.014zm-31.321-7.03c.863 0 1.563.702 1.563 1.568v11.367c0 .866-.7 1.568-1.563 1.568a1.565 1.565 0 0 1-1.563-1.568v-9.8H3.125v9.8c0 .866-.7 1.568-1.563 1.568A1.565 1.565 0 0 1 0 72.432V61.065c0-.866.7-1.568 1.563-1.568h.013V38.751a45.303 45.303 0 0 1 3.459-17.409L12.16 4.125a6.69 6.69 0 0 1 3.925-3.74A6.66 6.66 0 0 1 21.48.8a6.67 6.67 0 0 1 2.971 8.516l-7.545 17.753a1.56 1.56 0 0 1-2.05.827 1.57 1.57 0 0 1-.824-2.057l7.545-17.754a3.544 3.544 0 0 0-1.58-4.525 3.492 3.492 0 0 0-2.867-.22 3.507 3.507 0 0 0-2.085 1.987L7.92 22.545A42.174 42.174 0 0 0 4.7 38.75v20.746h20.925v-9.28c0-3.628-1.236-7.192-3.481-10.035L16.97 33.63a2.699 2.699 0 0 0-2.523-1.01 2.704 2.704 0 0 0-2.142 1.676 2.744 2.744 0 0 0 .253 2.55l5.54 8.37a1.57 1.57 0 0 1-.437 2.174 1.559 1.559 0 0 1-2.166-.439l-5.54-8.37a5.887 5.887 0 0 1-.544-5.47 5.801 5.801 0 0 1 4.596-3.596 5.79 5.79 0 0 1 5.413 2.168l5.173 6.552a19.413 19.413 0 0 1 4.157 11.981v9.281zm-6.601 6.919c.636.584.68 1.576.097 2.215l-.012.013a1.556 1.556 0 0 1-2.208.098 1.572 1.572 0 0 1-.097-2.215l.012-.014a1.559 1.559 0 0 1 2.208-.097zm24.048-52.148c5.566 0 10.093 4.905 10.093 10.934 0 3.46-2.646 7.67-7.865 12.515-3.725 3.457-7.392 5.97-7.546 6.075a1.558 1.558 0 0 1-1.758 0c-.154-.105-3.821-2.618-7.546-6.075-5.22-4.845-7.865-9.056-7.865-12.515 0-6.029 4.527-10.934 10.093-10.934 2.25 0 4.437.825 6.197 2.304 1.76-1.479 3.947-2.304 6.197-2.304zm.132 21.122c4.409-4.097 6.836-7.716 6.836-10.188 0-4.3-3.125-7.798-6.968-7.798-1.907 0-3.688.848-5.015 2.388a1.56 1.56 0 0 1-2.364 0c-1.327-1.54-3.108-2.388-5.015-2.388-3.843 0-6.968 3.498-6.968 7.798 0 2.478 2.437 6.105 6.862 10.213 2.499 2.32 5.016 4.224 6.303 5.16 1.293-.94 3.827-2.859 6.33-5.185z"/>
</svg>
