<svg xmlns="http://www.w3.org/2000/svg" width="24" height="24" viewBox="0 0 24 24">
    <g fill="none" fill-rule="nonzero">
        <circle cx="12" cy="12" r="12" fill="#CA3737"/>
        <path fill="#FFF" d="M12 6.05C8.7 6.05 6.05 8.7 6.05 12c0 2.45 1.45 4.5 3.55 5.45 0-.4 0-.9.1-1.35.1-.5.75-3.25.75-3.25s-.2-.4-.2-.95c0-.9.5-1.55 1.15-1.55.55 0 .8.4.8.9 0 .55-.35 1.35-.5 2.1-.15.65.35 1.15.95 1.15 1.15 0 1.9-1.45 1.9-3.15 0-1.3-.9-2.25-2.45-2.25-1.8 0-2.9 1.35-2.9 2.85 0 .5.15.9.4 1.15.1.15.15.2.1.35-.05.1-.1.35-.1.5-.05.15-.15.2-.3.15-.85-.35-1.2-1.25-1.2-2.25 0-1.7 1.4-3.7 4.25-3.7 2.25 0 3.75 1.65 3.75 3.4 0 2.35-1.3 4.05-3.2 4.05-.65 0-1.25-.35-1.45-.75 0 0-.35 1.35-.4 1.65-.15.45-.35.9-.6 1.25.55.15 1.1.25 1.7.25 3.3 0 5.95-2.65 5.95-5.95-.15-3.35-2.8-6-6.1-6z"/>
    </g>
</svg>
