<svg xmlns="http://www.w3.org/2000/svg" width="24" height="24" viewBox="0 0 24 24">
    <g fill="none" fill-rule="nonzero">
        <circle cx="12" cy="12" r="12" fill="#CA3737"/>
        <path fill="#FFF" d="M17.6 9.25c0-.05 0-.1-.05-.15v-.05C17.4 8.6 17 8.3 16.5 8.3h.1S14.65 8 12 8c-2.6 0-4.6.3-4.6.3h.1c-.5 0-.9.3-1.05.75v.05c0 .05 0 .1-.05.15-.05.5-.2 1.55-.2 2.75s.15 2.25.2 2.75c0 .05 0 .1.05.15v.05c.15.45.55.75 1.05.75h-.1s1.95.3 4.6.3c2.6 0 4.6-.3 4.6-.3h-.1c.5 0 .9-.3 1.05-.75v-.05c0-.05 0-.1.05-.15.05-.5.2-1.55.2-2.75s-.1-2.25-.2-2.75zm-3.9 3l-2.35 1.7c-.05.05-.1.05-.15.05-.05 0-.1 0-.15-.05a.275.275 0 0 1-.15-.25v-3.4c0-.1.05-.2.15-.25.1-.05.2-.05.3 0l2.35 1.7c.05.05.1.15.1.25.05.1 0 .2-.1.25z"/>
    </g>
</svg>
