<svg xmlns="http://www.w3.org/2000/svg" width="80" height="72" viewBox="0 0 80 72">
    <path fill="#BE1D24" fill-rule="nonzero" d="M40 15.652a1.565 1.565 0 0 1 0 3.13 1.565 1.565 0 0 1 0-3.13zM14.062 43.826a1.565 1.565 0 0 1 0-3.13 1.565 1.565 0 0 1 0 3.13zM52.5 0C66.431 0 80 9.879 80 23.478c0 5.47-2.16 10.77-6.094 14.969a9.53 9.53 0 0 0 2.511 8.968c.447.448.58 1.12.339 1.706a1.562 1.562 0 0 1-1.444.966 17.22 17.22 0 0 1-11.941-4.835c-2.692.919-6.095 1.524-9.366 1.67C53.109 59.157 41.565 68.87 27.5 68.87c-3.707 0-7.762-.644-10.871-1.705A17.22 17.22 0 0 1 4.687 72a1.562 1.562 0 0 1-1.443-.966 1.568 1.568 0 0 1 .339-1.706 9.53 9.53 0 0 0 2.51-8.968C2.162 56.16 0 50.86 0 45.39c0-13.088 12.598-22.765 25.995-23.438C26.888 9.715 38.433 0 52.5 0zm-25 65.74c12.924 0 23.438-9.129 23.438-20.349 0-11.656-10.961-20.348-23.438-20.348-13.213 0-24.375 9.318-24.375 20.348 0 4.783 1.953 9.432 5.497 13.09.18.185.312.412.383.661.896 3.157.52 6.49-.953 9.316a14.094 14.094 0 0 0 7.012-4.169 1.56 1.56 0 0 1 1.731-.397c2.815 1.122 7.017 1.847 10.705 1.847zm43.878-29.173c3.544-3.657 5.497-8.306 5.497-13.089 0-11.03-11.162-20.348-24.375-20.348-12.335 0-22.474 8.316-23.372 18.829 4.099.221 8.081 1.276 11.628 3.084h25.181c.864 0 1.563.701 1.563 1.566 0 .864-.7 1.565-1.563 1.565h-20.38c5.039 4.13 7.986 9.694 8.443 15.613 3.285-.163 6.765-.836 9.205-1.808a1.562 1.562 0 0 1 1.73.397 14.09 14.09 0 0 0 7.013 4.169 12.678 12.678 0 0 1-.953-9.316 1.57 1.57 0 0 1 .383-.662zM40 40.696c.863 0 1.563.7 1.563 1.565 0 .864-.7 1.565-1.563 1.565H20.312c-.863 0-1.562-.7-1.562-1.565s.7-1.565 1.563-1.565H40zm0 9.391c.863 0 1.563.7 1.563 1.565s-.7 1.565-1.563 1.565H14.062c-.863 0-1.562-.7-1.562-1.565 0-.864.7-1.565 1.563-1.565H40zm25.938-34.435c.863 0 1.562.7 1.562 1.565s-.7 1.566-1.563 1.566H46.25c-.863 0-1.563-.701-1.563-1.566 0-.864.7-1.565 1.563-1.565h19.688z"/>
</svg>
