<svg xmlns="http://www.w3.org/2000/svg" width="72" height="72" viewBox="0 0 72 72">
    <path fill="#BE1D24" fill-rule="nonzero" d="M61.456 10.544C68.256 17.344 72 26.384 72 36s-3.745 18.656-10.544 25.456C54.656 68.256 45.616 72 36 72s-18.656-3.745-25.456-10.544C3.744 54.656 0 45.616 0 36s3.745-18.656 10.544-25.456C17.344 3.744 26.384 0 36 0s18.656 3.745 25.456 10.544zM36 69.496c18.47 0 33.496-15.026 33.496-33.496C69.496 17.53 54.47 2.504 36 2.504 17.53 2.504 2.504 17.53 2.504 36 2.504 54.47 17.53 69.496 36 69.496zm25.527-50.71A30.635 30.635 0 0 1 66.786 36c0 16.975-13.81 30.785-30.786 30.785-2.088 0-4.175-.21-6.203-.625a1.252 1.252 0 1 1 .502-2.453c1.863.381 3.781.575 5.701.575 15.595 0 28.282-12.688 28.282-28.282 0-5.668-1.67-11.135-4.83-15.812a1.252 1.252 0 1 1 2.075-1.401zm-3.758-4.554a1.252 1.252 0 1 1-1.771 1.77C50.657 10.66 43.554 7.718 36 7.718 20.405 7.718 7.718 20.405 7.718 36c0 12.096 7.684 22.852 19.12 26.765a1.252 1.252 0 1 1-.81 2.37C13.578 60.875 5.214 49.166 5.214 36 5.214 19.025 19.024 5.215 36 5.215c8.223 0 15.954 3.202 21.769 9.017zM59.863 36l2.606 5.225a1.252 1.252 0 0 1-.352 1.548l-4.613 3.582.072 5.838a1.252 1.252 0 0 1-.99 1.24l-5.708 1.224-2.46 5.296c-.252.54-.85.83-1.43.689l-5.676-1.374-4.52 3.696a1.25 1.25 0 0 1-1.584 0l-4.52-3.696-5.675 1.374a1.252 1.252 0 0 1-1.43-.69l-2.46-5.295-5.71-1.224a1.252 1.252 0 0 1-.989-1.24l.072-5.838-4.612-3.582a1.252 1.252 0 0 1-.353-1.548L12.138 36 9.53 30.774a1.252 1.252 0 0 1 .353-1.547l4.612-3.582-.072-5.838a1.252 1.252 0 0 1 .99-1.24l5.709-1.225 2.46-5.295c.251-.54.849-.83 1.43-.689l5.675 1.374 4.52-3.696a1.252 1.252 0 0 1 1.585 0l4.52 3.696 5.675-1.374c.58-.14 1.178.148 1.43.69l2.46 5.294 5.709 1.225c.582.125.996.644.989 1.24l-.072 5.838 4.613 3.582c.47.366.618 1.014.352 1.548L59.863 36zm-4.386-8.759a1.251 1.251 0 0 1-.484-1.004l.047-3.82-5.481 4.372a16.35 16.35 0 0 1 2.103 4.353l6.832-1.559-3.017-2.342zm-8.216-11.74l-3.041 6.316a16.507 16.507 0 0 1 3.775 3.016l5.482-4.372-3.734-.801a1.253 1.253 0 0 1-.873-.697l-1.609-3.462zm-10.009-2.855v7.005c1.651.125 3.234.496 4.714 1.076l3.04-6.313-3.71.898c-.38.092-.783 0-1.087-.248l-2.957-2.418zm-6.548 2.666l-3.71-.899 3.04 6.314c1.48-.58 3.063-.952 4.715-1.077v-7.005l-2.958 2.419c-.304.248-.707.34-1.087.248zm-8.447 4.348l-3.734.8 5.482 4.373c1.1-1.18 2.371-2.2 3.775-3.016L24.738 15.5l-1.608 3.462a1.253 1.253 0 0 1-.873.697zm-5.734 7.581l-3.016 2.342 6.83 1.559a16.34 16.34 0 0 1 2.104-4.353l-5.481-4.372.047 3.82c.005.392-.174.764-.484 1.004zm-1.866 8.2c.175.352.175.766 0 1.117l-1.704 3.416 6.829-1.557a16.462 16.462 0 0 1 0-4.834l-6.83-1.558 1.705 3.416zm1.866 9.318c.31.24.489.612.484 1.004l-.047 3.821 5.482-4.372a16.346 16.346 0 0 1-2.105-4.354l-6.83 1.558 3.016 2.343zm8.215 11.74l3.041-6.316a16.501 16.501 0 0 1-3.773-3.015l-5.482 4.372 3.733.8c.384.083.707.34.873.697l1.608 3.461zm10.01 2.855V52.35a16.273 16.273 0 0 1-4.715-1.076l-3.04 6.313 3.71-.898a1.257 1.257 0 0 1 1.088.248l2.957 2.418zM36 49.894c7.66 0 13.893-6.233 13.893-13.894 0-7.66-6.232-13.893-13.893-13.893-7.66 0-13.893 6.232-13.893 13.893 0 7.66 6.232 13.893 13.893 13.893zm5.296 6.794l3.712.899-3.041-6.314c-1.48.58-3.064.951-4.715 1.076v7.005l2.957-2.418c.304-.248.706-.34 1.087-.248zm8.447-4.348l3.734-.8-5.482-4.373a16.511 16.511 0 0 1-3.774 3.015l3.041 6.315 1.608-3.46c.166-.356.489-.614.873-.697zm5.734-7.581l3.017-2.343-6.831-1.558a16.346 16.346 0 0 1-2.105 4.354l5.482 4.371-.047-3.82a1.251 1.251 0 0 1 .484-1.004zm1.866-8.2a1.251 1.251 0 0 1 0-1.117l1.704-3.416-6.828 1.557a16.462 16.462 0 0 1 0 4.834l6.828 1.557-1.704-3.415zM36 26.243c5.38 0 9.757 4.377 9.757 9.757 0 1.979-.59 3.884-1.705 5.511a1.252 1.252 0 0 1-2.065-1.415A7.213 7.213 0 0 0 43.253 36c0-4-3.253-7.253-7.253-7.253S28.747 32 28.747 36 32 43.253 36 43.253c1.199 0 2.387-.298 3.434-.863a1.252 1.252 0 0 1 1.188 2.205A9.775 9.775 0 0 1 36 45.757c-5.38 0-9.757-4.377-9.757-9.757S30.62 26.243 36 26.243zm4.04 12.027a1.252 1.252 0 1 1-1.77 1.77L36 37.77l-2.27 2.27a1.248 1.248 0 0 1-1.77 0 1.252 1.252 0 0 1 0-1.77L34.23 36l-2.27-2.27a1.252 1.252 0 1 1 1.77-1.77L36 34.23l2.27-2.27a1.252 1.252 0 0 1 1.77 1.77L37.77 36l2.27 2.27z"/>
</svg>
