<svg xmlns="http://www.w3.org/2000/svg" width="72" height="72" viewBox="0 0 72 72">
    <path fill="#BE1D24" fill-rule="nonzero" d="M25.039 63.984a13.116 13.116 0 0 0 3.184 3.363l-1.243 1.685a15.189 15.189 0 0 1-3.293-3.32c-1.55.247-3.138.252-4.678.023l.309-2.072c1.525.227 3.11.188 4.632-.13l.698-.145.391.596zM8.81 54.698a13.15 13.15 0 0 0 3.215 5.272 12.941 12.941 0 0 0 5.272 3.223l-.635 1.996a15.223 15.223 0 0 1-6.118-3.738 15.256 15.256 0 0 1-3.729-6.116l1.995-.637zm-.352-6.664a13.115 13.115 0 0 0-.123 4.63l-2.07.313c-.236-1.559-.23-3.129.017-4.678a15.196 15.196 0 0 1-3.32-3.296l1.686-1.243a13.106 13.106 0 0 0 3.36 3.187l.594.391-.144.696zm-6.365-12.05c0 2.087.504 4.166 1.46 6.012l-1.86.962A15.256 15.256 0 0 1 0 35.984c0-2.414.582-4.82 1.682-6.956l1.861.96a13.148 13.148 0 0 0-1.45 5.996zm5.915-10.963a13.113 13.113 0 0 0-3.36 3.187l-1.685-1.242a15.164 15.164 0 0 1 3.319-3.297 15.188 15.188 0 0 1-.018-4.678l2.07.313a13.136 13.136 0 0 0 .123 4.63l.144.697-.593.39zm4.016-13.023a13.149 13.149 0 0 0-3.218 5.283l-1.995-.636a15.249 15.249 0 0 1 9.838-9.862l.638 1.995a12.961 12.961 0 0 0-5.263 3.22zM23.95 8.434a13.246 13.246 0 0 0-4.63-.13l-.31-2.072a15.315 15.315 0 0 1 4.678.024 15.208 15.208 0 0 1 3.293-3.32l1.243 1.685a13.107 13.107 0 0 0-3.185 3.363l-.391.595-.698-.145zm18.047-4.919c-3.69-1.903-8.323-1.9-12.01.009l-.962-1.861c4.279-2.214 9.65-2.218 13.931-.01l-.96 1.862zm4.964 4.47a13.136 13.136 0 0 0-3.185-3.364l1.243-1.685a15.194 15.194 0 0 1 3.294 3.32 15.368 15.368 0 0 1 4.678-.023l-.31 2.072a13.233 13.233 0 0 0-4.631.13l-.698.144-.391-.595zM63.19 17.27a13.163 13.163 0 0 0-3.216-5.273 12.96 12.96 0 0 0-5.272-3.223l.635-1.996c2.286.728 4.401 2.02 6.118 3.738a15.267 15.267 0 0 1 3.729 6.116l-1.994.638zm.35 6.664c.317-1.529.358-3.087.124-4.63l2.071-.313c.236 1.558.23 3.129-.018 4.679 1.27.92 2.385 2.026 3.32 3.296L67.35 28.21a13.118 13.118 0 0 0-3.36-3.188l-.593-.39.143-.697zm6.768 5.076A15.258 15.258 0 0 1 72 35.984a15.26 15.26 0 0 1-1.682 6.955l-1.862-.96a13.162 13.162 0 0 0 1.45-5.996c0-2.087-.505-4.165-1.458-6.01l1.86-.962zM63.99 46.948a13.102 13.102 0 0 0 3.36-3.188L69.034 45a15.168 15.168 0 0 1-3.318 3.298c.247 1.55.252 3.12.017 4.678l-2.07-.312a13.097 13.097 0 0 0-.123-4.63l-.143-.697.593-.39zm-4.016 13.021a13.16 13.16 0 0 0 3.218-5.282l1.995.637a15.255 15.255 0 0 1-3.732 6.126 15.221 15.221 0 0 1-6.105 3.735l-.639-1.995a12.957 12.957 0 0 0 5.263-3.221zm-11.927 3.565c1.536.317 3.118.356 4.632.128l.31 2.072c-1.53.23-3.12.227-4.678-.023a15.216 15.216 0 0 1-3.294 3.321l-1.243-1.685a13.138 13.138 0 0 0 3.186-3.363l.39-.595.697.145zm-18.045 4.918c3.692 1.904 8.323 1.9 12.01-.007l.96 1.86A15.237 15.237 0 0 1 36 72c-2.413 0-4.818-.583-6.957-1.686l.96-1.862zm20.707-7.576a10.24 10.24 0 0 1-4.93-1.273 10.18 10.18 0 0 1-9.781 7.37 10.18 10.18 0 0 1-9.782-7.37 10.223 10.223 0 0 1-4.93 1.273c-2.716 0-5.27-1.058-7.191-2.98a10.188 10.188 0 0 1-1.71-12.128 10.184 10.184 0 0 1-7.363-9.784c0-4.6 3.07-8.554 7.364-9.785a10.189 10.189 0 0 1 1.709-12.128 10.1 10.1 0 0 1 7.191-2.98c1.728 0 3.431.446 4.931 1.273A10.18 10.18 0 0 1 36 4.994a10.18 10.18 0 0 1 9.78 7.371 10.223 10.223 0 0 1 4.931-1.273c2.716 0 5.27 1.058 7.191 2.98a10.188 10.188 0 0 1 1.71 12.128 10.183 10.183 0 0 1-.001 19.568 10.187 10.187 0 0 1-1.709 12.127 10.103 10.103 0 0 1-7.192 2.981zm-6.467-4.98l1.467 1.156a8.11 8.11 0 0 0 5 1.729 8.026 8.026 0 0 0 5.71-2.367 8.088 8.088 0 0 0 .638-10.715l-1.156-1.468 1.855-.22a8.084 8.084 0 0 0 7.123-8.028 8.083 8.083 0 0 0-7.123-8.028l-1.854-.22 1.155-1.467a8.089 8.089 0 0 0-.637-10.716 8.022 8.022 0 0 0-5.71-2.367 8.113 8.113 0 0 0-5.001 1.73l-1.467 1.156-.22-1.855a8.084 8.084 0 0 0-8.025-7.127 8.082 8.082 0 0 0-8.025 7.126l-.22 1.855-1.467-1.156a8.113 8.113 0 0 0-5-1.73 8.025 8.025 0 0 0-5.711 2.367 8.088 8.088 0 0 0-.637 10.716l1.156 1.468-1.854.22a8.084 8.084 0 0 0-7.123 8.028 8.083 8.083 0 0 0 7.123 8.028l1.854.22-1.156 1.468a8.089 8.089 0 0 0 .638 10.716 8.022 8.022 0 0 0 5.71 2.366c1.81 0 3.586-.613 5-1.73l1.468-1.155.22 1.855a8.082 8.082 0 0 0 16.05 0l.22-1.855zm-9.29-45.3h2.093v3.002h-2.093v-3.002zm0 47.774h2.093v3.001h-2.093V58.37zm23.422-23.433h3.001v2.094h-3v-2.094zm-47.753 0h3v2.094h-3v-2.094zm42.582 19.74l-2.122-2.123 1.48-1.48 2.123 2.122-1.48 1.481zM44.763 43.27l7.01 7.012-1.481 1.481-7.01-7.012a11.346 11.346 0 0 1-6.236 2.586v9.914h-2.093v-9.915a11.346 11.346 0 0 1-6.236-2.586l-7.01 7.013-1.48-1.482 7.01-7.012a11.353 11.353 0 0 1-2.586-6.239h-9.91v-2.094h9.91a11.356 11.356 0 0 1 2.585-6.239l-7.01-7.012 1.48-1.481 7.01 7.012a11.346 11.346 0 0 1 6.236-2.586v-9.915h2.094v9.916a11.346 11.346 0 0 1 6.235 2.586l7.01-7.012 1.48 1.48-7.01 7.013a11.35 11.35 0 0 1 2.586 6.239h9.912v2.094h-9.911a11.359 11.359 0 0 1-2.585 6.239zM36 45.295c5.132 0 9.307-4.176 9.307-9.311 0-5.134-4.175-9.312-9.307-9.312-5.132 0-9.308 4.178-9.308 9.312 0 5.135 4.176 9.311 9.308 9.311zM18.796 17.291l2.121 2.122-1.48 1.482-2.122-2.123 1.48-1.481zm-.002 37.386l-1.48-1.48 2.122-2.124 1.48 1.481-2.122 2.123zm34.41-37.386l1.48 1.48-2.123 2.124-1.48-1.481 2.122-2.123z"/>
</svg>
