<svg xmlns="http://www.w3.org/2000/svg" width="17" height="11" viewBox="0 0 17 11">
    <path fill="#000" fill-rule="nonzero" d="M16.047 5.094c.128.2.192.419.192.656 0 .237-.064.456-.192.656a8.752 8.752 0 0 1-3.199 3.172c-1.367.802-2.862 1.203-4.484 1.203-1.623 0-3.118-.4-4.485-1.203A8.752 8.752 0 0 1 .68 6.406c-.128-.2-.191-.419-.191-.656 0-.237.063-.456.191-.656a8.752 8.752 0 0 1 3.2-3.172C5.245 1.12 6.74.719 8.363.719c1.622 0 3.117.4 4.484 1.203a8.752 8.752 0 0 1 3.2 3.172zM8.364 9.469c.674 0 1.294-.169 1.859-.506a3.85 3.85 0 0 0 1.354-1.354 3.561 3.561 0 0 0 .505-1.859c0-.674-.168-1.294-.505-1.86a3.85 3.85 0 0 0-1.354-1.353 3.561 3.561 0 0 0-1.86-.506c-.674 0-1.294.169-1.859.506a3.85 3.85 0 0 0-1.353 1.354 3.561 3.561 0 0 0-.506 1.859c0 .674.168 1.294.506 1.86a3.85 3.85 0 0 0 1.353 1.353 3.561 3.561 0 0 0 1.86.506zm2.843-3.719a2.74 2.74 0 0 1-.834 2.01 2.74 2.74 0 0 1-2.01.834 2.74 2.74 0 0 1-2.01-.834 2.74 2.74 0 0 1-.833-2.01c0-.474.11-.92.328-1.34 0 .328.114.606.342.834.228.228.506.342.834.342.328 0 .606-.114.834-.342.228-.228.342-.506.342-.834 0-.328-.114-.606-.342-.834a1.135 1.135 0 0 0-.834-.342c.419-.218.866-.328 1.34-.328a2.74 2.74 0 0 1 2.01.834 2.74 2.74 0 0 1 .833 2.01z" opacity=".6"/>
</svg>
