<svg xmlns="http://www.w3.org/2000/svg" width="17" height="15" viewBox="0 0 17 15">
    <path fill="#000" fill-rule="nonzero" d="M8.336 11.469l.875 1.285c-.273.018-.556.027-.847.027-1.623 0-3.118-.4-4.485-1.203A8.752 8.752 0 0 1 .68 8.406c-.128-.2-.191-.419-.191-.656 0-.237.063-.456.191-.656a8.612 8.612 0 0 1 2.625-2.817L4.864 6.52a3.575 3.575 0 0 0-.22 1.23c0 .674.165 1.294.493 1.86a3.74 3.74 0 0 0 1.34 1.353 3.561 3.561 0 0 0 1.86.506zm7.711-3.063a7.978 7.978 0 0 1-1.586 1.996 9.213 9.213 0 0 1-2.105 1.45l1.148 1.613c.091.146.123.31.096.492a.555.555 0 0 1-.26.41l-.355.274a.703.703 0 0 1-.492.095.646.646 0 0 1-.438-.26L3.223 2.037a.703.703 0 0 1-.096-.493.555.555 0 0 1 .26-.41l.356-.274a.703.703 0 0 1 .492-.095.646.646 0 0 1 .437.26L6.067 3.02c.747-.201 1.513-.301 2.297-.301 1.622 0 3.117.4 4.484 1.203a8.752 8.752 0 0 1 3.2 3.172c.127.2.19.419.19.656 0 .237-.063.456-.19.656zm-3.965-.656c0-.674-.168-1.294-.505-1.86a3.85 3.85 0 0 0-1.354-1.353 3.561 3.561 0 0 0-1.86-.506c-.473 0-.938.091-1.394.274l.547.738c.346-.11.71-.15 1.094-.123.383.027.747.132 1.093.314-.328 0-.606.114-.834.342a1.135 1.135 0 0 0-.341.834c0 .328.114.606.341.834.228.228.506.342.834.342.329 0 .607-.114.834-.342.228-.228.342-.506.342-.834.255.474.365.985.328 1.531a2.853 2.853 0 0 1-.547 1.504l.52.739a3.595 3.595 0 0 0 .902-2.434zM5.52 7.477l2.133 3.035A2.823 2.823 0 0 1 6.039 9.39a2.832 2.832 0 0 1-.52-1.914z" opacity=".6"/>
</svg>
