<svg xmlns="http://www.w3.org/2000/svg" width="36" height="51" viewBox="0 0 36 51">
    <g fill="#BE1D24" fill-rule="evenodd">
        <path d="M26.347 35.015a2.501 2.501 0 0 0 3.432-1.036c3.22-6.228 5.888-12.647 5.888-16.479 0-9.66-7.84-17.5-17.5-17.5C8.506 0 .667 7.84.667 17.5c0 7.51 10.87 24.97 15.709 31.49a2.758 2.758 0 0 0 2.23 1.12c.851 0 1.71-.39 2.261-1.18 1.073-1.529 2.444-3.642 3.925-6.081a2.5 2.5 0 0 0-.925-3.485 2.495 2.495 0 0 0-3.336.895 124.366 124.366 0 0 1-1.985 3.161C12.836 35.13 5.667 22.2 5.667 17.5c0-6.89 5.609-12.5 12.5-12.5 6.89 0 12.5 5.61 12.5 12.5 0 2.771-2.317 8.357-5.326 14.182a2.499 2.499 0 0 0 1.006 3.333"/>
        <path d="M18.167 9a8.5 8.5 0 1 0 0 17 8.5 8.5 0 0 0 0-17zm0 5c1.929 0 3.5 1.57 3.5 3.5s-1.571 3.5-3.5 3.5c-1.93 0-3.5-1.57-3.5-3.5s1.57-3.5 3.5-3.5z"/>
    </g>
</svg>
