<svg xmlns="http://www.w3.org/2000/svg" width="73" height="60" viewBox="0 0 73 60">
    <path fill="#BE1D24" fill-rule="nonzero" d="M.521 30.403a3.45 3.45 0 0 1 0-.763c.092-6.258 2.573-12.053 6.728-16.8.047-.066.1-.126.158-.179C13.957 5.296 24.563.5 36.51.5c5.322 0 10.378.952 14.928 2.659a1.11 1.11 0 0 1 .387.147c5.499 2.128 10.24 5.365 13.788 9.357.057.052.108.11.154.174C70.003 17.675 72.5 23.603 72.5 30c0 11.818-8.522 22.035-20.795 26.74-.05.023-.1.042-.152.058-4.58 1.734-9.676 2.702-15.044 2.702-5.369 0-10.467-.969-15.048-2.704a1.114 1.114 0 0 1-.138-.052c-5.55-2.126-10.335-5.38-13.911-9.4a1.124 1.124 0 0 1-.167-.189C3.101 42.42.624 36.642.521 30.403zm4.735-3.488c.62-3.97 2.42-7.653 5.112-10.822L8.4 14.949c-2.85 3.456-4.749 7.465-5.392 11.78a3.34 3.34 0 0 1 2.247.186zm.006 6.204a3.331 3.331 0 0 1-2.247.19c.648 4.301 2.545 8.297 5.387 11.743l1.966-1.144c-2.684-3.16-4.482-6.832-5.106-10.789zm-2.493-2.89c.098.525.556.923 1.105.923A1.13 1.13 0 0 0 5 30.018a1.13 1.13 0 0 0-1.125-1.134c-.55 0-1.009.4-1.106.926a22.657 22.657 0 0 0 0 .418zm62.98-.538c-.084-4.859-2.145-9.354-5.585-13.022a1.122 1.122 0 0 1-.157-.165c-2.915-3.049-6.79-5.513-11.274-7.121-.1-.02-.199-.055-.293-.104-3.514-1.223-7.393-1.924-11.473-1.973a3.361 3.361 0 0 1-.95 0c-4.078.053-7.957.757-11.47 1.984a1.117 1.117 0 0 1-.23.081c-4.49 1.605-8.37 4.067-11.289 7.115a1.119 1.119 0 0 1-.188.198C9.336 20.427 7.266 25.03 7.266 30c0 4.992 2.088 9.613 5.62 13.364.033.031.065.065.095.1 2.908 3.053 6.777 5.523 11.258 7.137.133.02.264.065.387.136 3.633 1.26 7.654 1.96 11.883 1.96 4.154 0 8.107-.676 11.69-1.893a1.13 1.13 0 0 1 .747-.264c9.799-3.588 16.633-11.28 16.802-20.2a3.455 3.455 0 0 1 .001-.649zm2.005 3.443c-.627 3.95-2.423 7.617-5.104 10.773l1.966 1.145c2.844-3.449 4.742-7.448 5.388-11.754a3.34 3.34 0 0 1-2.25-.164zM68 30.215c.093.532.554.937 1.108.937a1.13 1.13 0 0 0 1.124-1.134 1.13 1.13 0 0 0-1.124-1.134c-.554 0-1.014.404-1.108.935a20.179 20.179 0 0 1 0 .396zm-.24-3.315a3.33 3.33 0 0 1 2.25-.16c-.641-4.32-2.541-8.333-5.394-11.791l-1.965 1.144c2.688 3.166 4.487 6.844 5.109 10.807zM39.627 54.843a3.408 3.408 0 0 1 .086 2.267 40.11 40.11 0 0 0 9.874-2.007l-1.146-2a38.063 38.063 0 0 1-8.814 1.74zm-6.27-.003a38.057 38.057 0 0 1-8.78-1.737l-1.145 2a40.106 40.106 0 0 0 9.836 2.005 3.414 3.414 0 0 1 .088-2.268zm3.13 2.392h.006a1.13 1.13 0 0 0 1.123-1.134 1.13 1.13 0 0 0-1.125-1.134 1.13 1.13 0 0 0-1.125 1.134 1.13 1.13 0 0 0 1.121 1.134zM33.342 5.161a3.408 3.408 0 0 1-.062-2.27c-3.46.267-6.77.957-9.848 2.005l1.145 2a38.055 38.055 0 0 1 8.765-1.735zm2.87-.124a40.365 40.365 0 0 1 .56 0c.485-.127.844-.572.844-1.099a1.13 1.13 0 0 0-1.125-1.134 1.13 1.13 0 0 0-1.125 1.134c0 .529.36.973.845 1.099zm3.429.121c3.085.243 6.04.84 8.8 1.739l1.146-2a40.11 40.11 0 0 0-9.886-2.008 3.414 3.414 0 0 1-.06 2.27zm21.43 40.449c-2.83 2.794-6.403 5.097-10.478 6.719l1.133 1.976c4.433-1.815 8.305-4.398 11.348-7.53l-2.002-1.165zM11.948 14.393c2.83-2.794 6.403-5.097 10.478-6.719l-1.132-1.977c-4.434 1.816-8.307 4.399-11.35 7.531l2.004 1.165zm10.478 37.933c-4.075-1.622-7.647-3.925-10.478-6.718l-2.003 1.165c3.043 3.132 6.916 5.715 11.35 7.53l1.131-1.977zM50.593 7.674c4.076 1.622 7.648 3.925 10.48 6.72l2.001-1.166c-3.042-3.132-6.915-5.715-11.348-7.53l-1.133 1.976zm-25.331 12.12c0-.29.11-.58.33-.802a1.117 1.117 0 0 1 1.59 0l20.247 20.413c.44.443.44 1.16 0 1.603-.44.444-1.15.444-1.59 0L25.59 20.595c-.22-.22-.33-.511-.33-.801zm1.104 10.223c0-.29.11-.58.33-.802a1.117 1.117 0 0 1 1.59 0l9 9.074c.44.443.44 1.16 0 1.603-.44.444-1.15.444-1.59 0l-9-9.073a1.14 1.14 0 0 1-.33-.802zm8.998-9.071c0-.29.11-.58.33-.802a1.117 1.117 0 0 1 1.59 0l9 9.074c.44.443.44 1.16 0 1.603-.44.444-1.15.444-1.59 0l-9-9.073a1.14 1.14 0 0 1-.33-.802z"/>
</svg>
