<svg xmlns="http://www.w3.org/2000/svg" width="73" height="40" viewBox="0 0 73 40">
    <path fill="#BE1D24" fill-rule="nonzero" d="M39.984 20c0 1.897-1.563 3.441-3.484 3.441-1.92 0-3.484-1.544-3.484-3.441 0-1.897 1.563-3.441 3.484-3.441 1.92 0 3.484 1.544 3.484 3.441zm-4.645 0c0 .632.52 1.147 1.161 1.147.64 0 1.161-.515 1.161-1.147s-.52-1.147-1.161-1.147c-.64 0-1.161.515-1.161 1.147zm27.87 17.206V39.5H9.79v-2.294H5.145v-2.294H9.79v-2.294H5.145v-2.294H9.79v-2.295H5.145v-2.294H9.79v-2.294H5.145v-2.294H9.79v-2.294H5.145v-2.294H9.79v-2.294H5.145V11.97H9.79V9.676H5.145V7.382H9.79V5.088H5.145V2.794H9.79V.5h53.42v2.294h4.645v2.294H63.21v2.294h4.645v2.294H63.21v2.295h4.645v2.294H63.21v2.294h4.645v2.294H63.21v2.294h4.645v2.294H63.21v2.294h4.645v2.294H63.21v2.295h4.645v2.294H63.21v2.294h4.645v2.294H63.21zm-23.225-1.147c0 .404-.083.787-.214 1.147h5.317L36.5 29.572l-8.587 7.634h5.317a3.357 3.357 0 0 1-.214-1.147c0-1.897 1.563-3.441 3.484-3.441 1.92 0 3.484 1.544 3.484 3.44zM36.5 37.206c.64 0 1.161-.515 1.161-1.147s-.52-1.147-1.161-1.147c-.64 0-1.161.515-1.161 1.147s.52 1.147 1.161 1.147zM33.016 3.94c0-.404.083-.787.215-1.147h-5.318l8.587 7.634 8.587-7.634H39.77c.13.36.214.743.214 1.147 0 1.897-1.563 3.441-3.484 3.441-1.92 0-3.484-1.544-3.484-3.44zM36.5 2.794c-.64 0-1.161.515-1.161 1.147s.52 1.147 1.161 1.147c.64 0 1.161-.515 1.161-1.147s-.52-1.147-1.161-1.147zm-.09 23.773l.09-.08.09.08L46.088 20l-9.496-6.567-.091.08-.09-.08L26.912 20l9.496 6.567zm12.864-9.539v5.928l3.002-2.965-3.002-2.963zm-2.322.769V4.222l-8.59 7.636 8.59 5.939zm2.322-9.942v5.93l3.003-2.965-3.003-2.965zm-14.637 4.003l-8.589-7.636v13.575l8.59-5.939zm-10.911 1.926V7.855l-3.003 2.965 3.003 2.964zm0 9.172v-5.928l-3.002 2.964 3.002 2.964zm2.322-.753v13.575l8.59-7.636-8.59-5.939zm-2.322 9.932v-5.937l-3.003 2.966 3.003 2.97zm14.637-3.993l8.589 7.636V22.203l-8.59 5.939zm10.911-1.944v5.937l3.003-2.97-3.003-2.967zm0 11.008h1.844l-1.844-1.824v1.824zm1.641-3.447l3.004 2.97v-5.941l-3.004 2.971zm.001-9.182l3.003 2.965v-5.93l-3.003 2.965zm.001-9.17l3.002 2.962v-5.928l-3.002 2.965zm0-9.173l3.002 2.964V3.27l-3.003 2.965zm-1.643-1.622l1.84-1.818h-1.84v1.818zM23.726 2.794h-1.84l1.84 1.818V2.794zm-1.642 3.44L19.08 3.27V9.2l3.003-2.965zm-.001 9.172l-3.002-2.965v5.928l3.002-2.963zm0 9.171l-3.002-2.965v5.93l3.003-2.965zm.002 9.182l-3.004-2.971v5.942l3.004-2.97zm1.64 1.623l-1.843 1.824h1.844v-1.824zm37.162 1.824V2.794h-4.645v34.412h4.645zM12.113 2.794v34.412h4.645V2.794h-4.645zm60.387 0v2.294h-2.323V2.794H72.5zm0 4.588v2.294h-2.323V7.382H72.5zm0 4.589v2.294h-2.323V11.97H72.5zm0 4.588v2.294h-2.323v-2.294H72.5zm0 4.588v2.294h-2.323v-2.294H72.5zm0 4.588v2.294h-2.323v-2.294H72.5zm0 4.589v2.294h-2.323v-2.294H72.5zm0 4.588v2.294h-2.323v-2.294H72.5zM2.823 2.794v2.294H.5V2.794h2.323zm0 4.588v2.294H.5V7.382h2.323zm0 4.589v2.294H.5V11.97h2.323zm0 4.588v2.294H.5v-2.294h2.323zm0 4.588v2.294H.5v-2.294h2.323zm0 4.588v2.294H.5v-2.294h2.323zm0 4.589v2.294H.5v-2.294h2.323zm0 4.588v2.294H.5v-2.294h2.323z"/>
</svg>
