<svg xmlns="http://www.w3.org/2000/svg" width="64" height="78" viewBox="0 0 64 78">
    <path fill="#BE1D24" fill-rule="nonzero" d="M54.989 77c-.073.567-.488 1-.989 1-.502 0-.916-.433-.989-1H50.99c-.073.567-.488 1-.989 1-.502 0-.916-.433-.989-1H45.99c-.073.567-.488 1-.989 1-.502 0-.916-.433-.989-1H40.99c-.073.567-.488 1-.989 1-.502 0-.916-.433-.989-1H35.99c-.073.567-.488 1-.989 1-.502 0-.916-.433-.989-1H30.99c-.073.567-.487 1-.989 1-.501 0-.916-.433-.989-1H25.99c-.073.567-.487 1-.989 1-.501 0-.916-.433-.989-1H21.99c-.073.567-.488 1-.989 1-.502 0-.916-.433-.989-1h-4.43c-1.395.642-2.947 1-4.581 1-6.066 0-11-4.934-11-11a11.171 11.171 0 0 1 0-.208V11.208c0-.073.005-.145.016-.215A1.192 1.192 0 0 1 0 10.8C0 4.845 4.934 0 11 0c5.792 0 10.552 4.417 10.97 10h40.814c.041 0 .083.002.123.005a.91.91 0 0 1 .773.319.907.907 0 0 1 .315.768c.003.04.005.08.005.122v65.572c0 .67-.447 1.214-1 1.214-.493 0-.901-.431-.985-1H54.99zM53 75v-2h-2v2h2zm2 0h7v-6h-3v2.792c0 .04-.002.08-.005.118a.914.914 0 0 1-.321.774.91.91 0 0 1-.762.311 1.466 1.466 0 0 1-.115.005H55v2zm-6 0v-2h-3v2h3zm-5 0v-2h-3v2h3zm-5 0v-2h-3v2h3zm-5 0v-2h-3v2h3zm-12 0h2v-2h-2v2zm-2 0v-1.682A11.088 11.088 0 0 1 18.543 75H20zm6 0h3v-2h-3v2zm36-8v-3h-3v3h3zm0-5v-3h-3v3h3zm0-5v-3h-3v3h3zm0-5v-2h-3v2h3zm0-4v-3h-3v3h3zm0-5v-3h-3v3h3zm0-5v-3h-3v3h3zm0-5v-3h-3v3h3zm0-5v-3h-3v3h3zm0-5v-2h-3v2h3zm0-4v-7h-7v3h2.789c.04 0 .08.002.12.005a.912.912 0 0 1 .773.32.909.909 0 0 1 .313.764c.003.04.005.08.005.12V19h3zm-9-7h-2v3h2v-3zm-4 0h-3v3h3v-3zm-5 0h-3v3h3v-3zm-5 0h-3v3h3v-3zm-5 0h-3v3h3v-3zm-8 0v3h3v-3h-3zm-2 0h-2v3h2v-3zm-2.753 59H57V17H22v3h25.8c.066 0 .13.004.193.013a1.166 1.166 0 0 1 1.34 1.154 3.507 3.507 0 0 0 2.806 3.43c.174-.357.494-.597.861-.597.553 0 1 .545 1 1.219V61.78c0 .07-.005.138-.014.204a1.166 1.166 0 0 1-1.153 1.348c-1.93 0-3.5 1.57-3.5 3.5a1.166 1.166 0 0 1-1.34 1.154A1.448 1.448 0 0 1 47.8 68H21.955a10.917 10.917 0 0 1-.708 3zm-2.813.23a8.492 8.492 0 0 0 1.082-3.408c-.312-.18-.516-.481-.516-.822 0-.341.204-.642.516-.822-.415-4.333-4.077-7.734-8.516-7.734-4.716 0-8.556 3.84-8.556 8.556 0 4.43 3.387 8.086 7.707 8.514.204-.307.597-.514 1.05-.514h2.832a8.604 8.604 0 0 0 3.972-3.094.96.96 0 0 1 .43-.676zM20 16.985c-.569-.082-1-.492-1-.985 0-.494.431-.903 1-.985v-3.03c-.57-.084-1-.493-1-.985 0-.344.21-.648.532-.827C19.204 5.833 15.502 2.4 11 2.4c-4.716 0-8.556 3.77-8.556 8.4 0 .373-.172.706-.444.926v48.956A10.995 10.995 0 0 1 11 56c3.68 0 6.944 1.816 8.942 4.6a1.25 1.25 0 0 1 .058-.013V57.98c-.57-.105-1-.595-1-1.185 0-.59.43-1.08 1-1.186v-2.627c-.57-.1-1-.583-1-1.165 0-.582.43-1.066 1-1.166v-1.678c-.572-.118-1-.606-1-1.191 0-.586.428-1.073 1-1.192v-6.178c-.572-.119-1-.607-1-1.192s.428-1.073 1-1.191V36.35c-.57-.1-1-.583-1-1.166 0-.582.43-1.065 1-1.165v-2.627c-.57-.105-1-.595-1-1.186 0-.59.43-1.08 1-1.185v-2.608a1.22 1.22 0 0 1-1-1.196c0-.594.43-1.088 1-1.195v-2.036c-.568-.079-1-.49-1-.986s.432-.907 1-.986v-3.03zM39.451 66h2.578c.392-5.32 4.652-9.58 9.971-9.97V53.45C45.26 53.844 39.844 59.26 39.451 66zm-2.432 0c.398-8.08 6.9-14.583 14.981-14.98V36.98c-8.08-.396-14.583-6.898-14.98-14.98H22v2.077c10.074.884 18 9.258 18 19.423s-7.926 18.539-18 19.423V66h15.02zm7.419 0h2.621A5.847 5.847 0 0 1 52 61.06v-2.622A8.417 8.417 0 0 0 44.438 66zm-4.984-44c.393 6.74 5.807 12.154 12.546 12.546v-2.575c-5.32-.39-9.58-4.651-9.97-9.971h-2.576zm4.987 0A8.408 8.408 0 0 0 52 29.559v-2.618A5.847 5.847 0 0 1 47.06 22H44.44zM22 38.256c2.316.706 4 2.79 4 5.244 0 2.455-1.683 4.539-4 5.244v1.675c3.19-.775 5.561-3.583 5.561-6.919 0-3.336-2.37-6.144-5.561-6.92v1.676zm0 2.673v5.142c.877-.546 1.46-1.494 1.46-2.571 0-1.077-.583-2.025-1.46-2.571zm0-6.771c4.546.815 8 4.694 8 9.342 0 4.648-3.454 8.527-8 9.342v2.62c5.953-.845 10.542-5.887 10.542-11.962S27.953 32.383 22 31.537v2.62zm0-7.635v2.58c7.313.862 13 6.99 13 14.397s-5.687 13.535-13 14.396v2.581c8.711-.875 15.532-8.155 15.532-16.977 0-8.822-6.82-16.102-15.532-16.977zM11 74c-3.86 0-7-3.14-7-7s3.14-7 7-7 7 3.14 7 7-3.14 7-7 7zm0-11.667A4.671 4.671 0 0 0 6.333 67 4.671 4.671 0 0 0 11 71.667 4.671 4.671 0 0 0 15.667 67 4.671 4.671 0 0 0 11 62.333zM10.5 70C8.57 70 7 68.43 7 66.5S8.57 63 10.5 63s3.5 1.57 3.5 3.5-1.57 3.5-3.5 3.5zm0-4.667a1.167 1.167 0 1 0 0 2.334 1.167 1.167 0 0 0 0-2.334zM53.003 22A1.002 1.002 0 0 1 52 21c0-.553.441-1 .991-1h.012a.999.999 0 1 1 0 2zm0 46A1.002 1.002 0 0 1 52 67c0-.553.441-1 .991-1h.012a1 1 0 1 1 0 2zM45.5 47c-.298 0-.598-.114-.825-.342l-2.333-2.333a1.165 1.165 0 0 1 0-1.65l2.333-2.333a1.165 1.165 0 0 1 1.65 0l2.333 2.333a1.165 1.165 0 0 1 0 1.65l-2.333 2.333A1.165 1.165 0 0 1 45.5 47zm-.684-3.5l.684.684.684-.684-.684-.683-.684.683z"/>
</svg>
