<svg xmlns="http://www.w3.org/2000/svg" width="72" height="72" viewBox="0 0 72 72">
    <path fill="#BE1D24" fill-rule="nonzero" d="M10.56 14.779H9a1.406 1.406 0 1 1 0-2.813h1.56a1.407 1.407 0 0 1 0 2.813zm7.186 0h-1.56a1.406 1.406 0 1 1 0-2.813h1.56a1.407 1.407 0 0 1 0 2.813zm-4.373 4.372c-.777 0-1.406-.63-1.406-1.406v-1.56a1.406 1.406 0 1 1 2.812 0v1.56c0 .776-.63 1.406-1.406 1.406zm0-7.185c-.777 0-1.406-.63-1.406-1.406V9a1.406 1.406 0 1 1 2.812 0v1.56c0 .777-.63 1.406-1.406 1.406zm19.815 2.813h-1.56a1.407 1.407 0 0 1 0-2.813h1.56a1.406 1.406 0 1 1 0 2.813zm7.186 0h-1.56a1.406 1.406 0 1 1 0-2.813h1.56a1.407 1.407 0 0 1 0 2.813zM36 19.15c-.777 0-1.406-.63-1.406-1.406v-1.56a1.406 1.406 0 1 1 2.812 0v1.56c0 .776-.63 1.406-1.406 1.406zm0-7.185c-.777 0-1.406-.63-1.406-1.406V9a1.406 1.406 0 1 1 2.812 0v1.56c0 .777-.63 1.406-1.406 1.406zm19.816 2.813h-1.56a1.407 1.407 0 0 1 0-2.813h1.56a1.406 1.406 0 1 1 0 2.813zm7.185 0h-1.56a1.407 1.407 0 0 1 0-2.813h1.56a1.406 1.406 0 1 1 0 2.813zm-4.373 4.372c-.776 0-1.406-.63-1.406-1.406v-1.56a1.407 1.407 0 0 1 2.812 0v1.56c0 .776-.63 1.406-1.406 1.406zm0-7.185c-.776 0-1.406-.63-1.406-1.406V9a1.407 1.407 0 0 1 2.812 0v1.56c0 .777-.63 1.406-1.406 1.406zM10.56 37.406H9a1.406 1.406 0 1 1 0-2.812h1.56a1.407 1.407 0 0 1 0 2.812zm7.186 0h-1.56a1.406 1.406 0 1 1 0-2.812h1.56a1.407 1.407 0 0 1 0 2.812zm-4.373 4.373c-.777 0-1.406-.63-1.406-1.406v-1.56a1.406 1.406 0 1 1 2.812 0v1.56c0 .776-.63 1.406-1.406 1.406zm0-7.185c-.777 0-1.406-.63-1.406-1.407v-1.56a1.406 1.406 0 1 1 2.812 0v1.56c0 .777-.63 1.407-1.406 1.407zm19.815 2.812h-1.56a1.407 1.407 0 0 1 0-2.812h1.56a1.406 1.406 0 1 1 0 2.812zm7.186 0h-1.56a1.406 1.406 0 1 1 0-2.812h1.56a1.407 1.407 0 0 1 0 2.812zM36 41.78c-.777 0-1.406-.63-1.406-1.406v-1.56a1.406 1.406 0 1 1 2.812 0v1.56c0 .776-.63 1.406-1.406 1.406zm0-7.185c-.777 0-1.406-.63-1.406-1.407v-1.56a1.406 1.406 0 1 1 2.812 0v1.56c0 .777-.63 1.407-1.406 1.407zm19.816 2.812h-1.56a1.407 1.407 0 0 1 0-2.812h1.56a1.406 1.406 0 1 1 0 2.812zm7.185 0h-1.56a1.407 1.407 0 0 1 0-2.812h1.56a1.406 1.406 0 1 1 0 2.812zm-4.373 4.373c-.776 0-1.406-.63-1.406-1.406v-1.56a1.407 1.407 0 0 1 2.812 0v1.56c0 .776-.63 1.406-1.406 1.406zm0-7.185c-.776 0-1.406-.63-1.406-1.407v-1.56a1.407 1.407 0 0 1 2.812 0v1.56c0 .777-.63 1.407-1.406 1.407zM10.56 60.034H9a1.406 1.406 0 1 1 0-2.813h1.56a1.407 1.407 0 0 1 0 2.813zm7.186 0h-1.56a1.406 1.406 0 1 1 0-2.813h1.56a1.407 1.407 0 0 1 0 2.813zm-4.373 4.372c-.777 0-1.406-.63-1.406-1.406v-1.56a1.406 1.406 0 1 1 2.812 0V63c0 .777-.63 1.406-1.406 1.406zm0-7.185c-.777 0-1.406-.63-1.406-1.406v-1.56a1.406 1.406 0 1 1 2.812 0v1.56c0 .777-.63 1.406-1.406 1.406zm8.501-31.128h-1.56a1.407 1.407 0 0 1 0-2.813h1.56a1.407 1.407 0 0 1 0 2.813zm7.186 0H27.5a1.406 1.406 0 1 1 0-2.813h1.56a1.407 1.407 0 0 1 0 2.813zm-4.373 4.372c-.777 0-1.406-.63-1.406-1.406v-1.56a1.406 1.406 0 1 1 2.812 0v1.56c0 .776-.63 1.406-1.406 1.406zm0-7.185c-.777 0-1.406-.63-1.406-1.406v-1.56a1.406 1.406 0 1 1 2.812 0v1.56c0 .777-.63 1.406-1.406 1.406zm-2.813 25.44h-1.56a1.407 1.407 0 0 1 0-2.813h1.56a1.407 1.407 0 0 1 0 2.813zm7.186 0H27.5a1.406 1.406 0 1 1 0-2.813h1.56a1.407 1.407 0 0 1 0 2.813zm-4.373 4.373c-.777 0-1.406-.63-1.406-1.407v-1.56a1.406 1.406 0 1 1 2.812 0v1.56c0 .777-.63 1.407-1.406 1.407zm0-7.186c-.777 0-1.406-.629-1.406-1.406v-1.56a1.406 1.406 0 1 1 2.812 0v1.56c0 .777-.63 1.406-1.406 1.406zm27-19.814h-1.56a1.407 1.407 0 0 1 0-2.813h1.56a1.407 1.407 0 0 1 0 2.813zm-7.184 0h-1.56a1.407 1.407 0 0 1 0-2.813h1.56a1.406 1.406 0 1 1 0 2.813zm2.812 4.372c-.776 0-1.406-.63-1.406-1.406v-1.56a1.407 1.407 0 0 1 2.812 0v1.56c0 .776-.63 1.406-1.406 1.406zm0-7.185c-.776 0-1.406-.63-1.406-1.406v-1.56a1.407 1.407 0 0 1 2.812 0v1.56c0 .777-.63 1.406-1.406 1.406zm4.373 25.44h-1.56a1.407 1.407 0 0 1 0-2.813h1.56a1.407 1.407 0 0 1 0 2.813zm-7.185 0h-1.56a1.407 1.407 0 0 1 0-2.813h1.56a1.406 1.406 0 1 1 0 2.813zm2.812 4.373c-.776 0-1.406-.63-1.406-1.407v-1.56a1.407 1.407 0 0 1 2.812 0v1.56c0 .777-.63 1.407-1.406 1.407zm0-7.186c-.776 0-1.406-.629-1.406-1.406v-1.56a1.407 1.407 0 0 1 2.812 0v1.56c0 .777-.63 1.406-1.406 1.406zM33.188 60.034h-1.56a1.407 1.407 0 0 1 0-2.813h1.56a1.406 1.406 0 1 1 0 2.813zm7.186 0h-1.56a1.406 1.406 0 1 1 0-2.813h1.56a1.407 1.407 0 0 1 0 2.813zM36 64.406c-.777 0-1.406-.63-1.406-1.406v-1.56a1.406 1.406 0 1 1 2.812 0V63c0 .777-.63 1.406-1.406 1.406zm0-7.185c-.777 0-1.406-.63-1.406-1.406v-1.56a1.406 1.406 0 1 1 2.812 0v1.56c0 .777-.63 1.406-1.406 1.406zm19.816 2.813h-1.56a1.407 1.407 0 0 1 0-2.813h1.56a1.406 1.406 0 1 1 0 2.813zm7.185 0h-1.56a1.407 1.407 0 0 1 0-2.813h1.56a1.406 1.406 0 1 1 0 2.813zm-4.373 4.372c-.776 0-1.406-.63-1.406-1.406v-1.56a1.407 1.407 0 0 1 2.812 0V63c0 .777-.63 1.406-1.406 1.406zm0-7.185c-.776 0-1.406-.63-1.406-1.406v-1.56a1.407 1.407 0 0 1 2.812 0v1.56c0 .777-.63 1.406-1.406 1.406zM66.93 72c-1.335 0-2.59-.52-3.534-1.463l-.077-.077a2.186 2.186 0 0 0-3.089 0l-.077.077A4.963 4.963 0 0 1 56.619 72a4.964 4.964 0 0 1-3.533-1.463l-.077-.077a2.187 2.187 0 0 0-3.089 0l-.076.076A4.964 4.964 0 0 1 46.31 72a4.964 4.964 0 0 1-3.533-1.463l-.077-.078a2.187 2.187 0 0 0-3.089 0l-.078.078A4.963 4.963 0 0 1 36.001 72c-1.335 0-2.59-.52-3.533-1.463l-.077-.077a2.186 2.186 0 0 0-3.089 0l-.077.076A4.962 4.962 0 0 1 25.692 72c-1.335 0-2.59-.52-3.534-1.463l-.077-.078a2.169 2.169 0 0 0-1.544-.64 2.17 2.17 0 0 0-1.544.64l-.077.077A4.964 4.964 0 0 1 15.382 72a4.964 4.964 0 0 1-3.532-1.463l-.077-.077a2.186 2.186 0 0 0-3.09 0l-.077.077A4.961 4.961 0 0 1 5.074 72c-1.335 0-2.59-.52-3.534-1.463l-.077-.078a5.002 5.002 0 0 1 0-7.066l.077-.076a2.17 2.17 0 0 0 .64-1.545c0-.583-.227-1.132-.64-1.544l-.077-.078a5.002 5.002 0 0 1 0-7.065l.077-.077a2.17 2.17 0 0 0 .64-1.545c0-.583-.227-1.131-.64-1.544l-.077-.078a5.002 5.002 0 0 1 0-7.065l.077-.077a2.17 2.17 0 0 0 .64-1.545c0-.583-.227-1.131-.64-1.543l-.077-.078a5.002 5.002 0 0 1 0-7.066l.077-.077a2.17 2.17 0 0 0 .64-1.544c0-.584-.227-1.132-.64-1.544l-.077-.078A4.963 4.963 0 0 1 0 25.692c0-1.335.52-2.59 1.463-3.534l.077-.077c.413-.412.64-.96.64-1.544a2.17 2.17 0 0 0-.64-1.544l-.077-.078a5.002 5.002 0 0 1 0-7.065l.077-.077a2.17 2.17 0 0 0 .64-1.545c0-.583-.227-1.131-.64-1.544l-.078-.078a5.002 5.002 0 0 1 .001-7.065l.077-.077A4.963 4.963 0 0 1 5.074 0c1.335 0 2.59.52 3.533 1.463l.077.077a2.186 2.186 0 0 0 3.089 0l.077-.077A4.963 4.963 0 0 1 15.383 0c1.334 0 2.59.52 3.533 1.463l.078.078c.412.412.96.64 1.543.64a2.17 2.17 0 0 0 1.545-.64l.076-.077A4.964 4.964 0 0 1 25.692 0c1.335 0 2.59.52 3.533 1.463l.077.077c.413.413.961.64 1.545.64.583 0 1.131-.227 1.543-.64l.078-.077A4.965 4.965 0 0 1 36.001 0c1.334 0 2.59.52 3.533 1.463l.077.077a2.186 2.186 0 0 0 3.09 0l.076-.076A4.964 4.964 0 0 1 46.31 0c1.335 0 2.59.52 3.533 1.463l.078.078c.851.851 2.236.851 3.088 0l.078-.078A4.963 4.963 0 0 1 56.619 0c1.335 0 2.59.52 3.533 1.463l.077.077a2.186 2.186 0 0 0 3.089 0l.078-.077A4.963 4.963 0 0 1 66.928 0c1.335 0 2.59.52 3.534 1.463l.077.078a5.002 5.002 0 0 1 0 7.066l-.077.076a2.17 2.17 0 0 0-.64 1.545c0 .583.227 1.132.64 1.544l.077.078a5.002 5.002 0 0 1 0 7.065l-.077.077a2.17 2.17 0 0 0-.64 1.545c0 .583.227 1.131.64 1.544l.077.078a5.002 5.002 0 0 1 0 7.065l-.077.077a2.17 2.17 0 0 0-.64 1.545c0 .583.227 1.131.64 1.544l.077.077a5.002 5.002 0 0 1 0 7.066l-.077.077a2.17 2.17 0 0 0-.64 1.544c0 .584.227 1.132.64 1.544l.077.078a5.002 5.002 0 0 1 0 7.066l-.077.077a2.17 2.17 0 0 0-.64 1.544c0 .583.227 1.132.64 1.544l.077.078a5.002 5.002 0 0 1 0 7.065l-.077.077a2.17 2.17 0 0 0-.64 1.545c0 .583.227 1.131.64 1.544l.077.078a5.001 5.001 0 0 1 0 7.065l-.077.077A4.963 4.963 0 0 1 66.928 72zm-5.155-4.993c1.334 0 2.59.52 3.533 1.464l.077.077c.413.413.961.64 1.544.64.584 0 1.132-.227 1.545-.64l.077-.077a2.185 2.185 0 0 0 0-3.089l-.078-.078a4.963 4.963 0 0 1-1.463-3.532c0-1.335.52-2.59 1.464-3.533l.077-.077a2.186 2.186 0 0 0 0-3.089l-.078-.078a4.963 4.963 0 0 1-1.463-3.532c0-1.335.52-2.59 1.464-3.533l.077-.077a2.186 2.186 0 0 0 0-3.089l-.078-.077a4.963 4.963 0 0 1-1.463-3.533c0-1.335.52-2.59 1.464-3.533l.077-.076a2.186 2.186 0 0 0 0-3.09l-.078-.077a4.963 4.963 0 0 1-1.463-3.533c0-1.334.52-2.589 1.464-3.532l.077-.077a2.186 2.186 0 0 0 0-3.09l-.078-.077a4.963 4.963 0 0 1-1.463-3.533c0-1.334.52-2.589 1.464-3.532l.077-.077a2.186 2.186 0 0 0 0-3.09l-.078-.077a4.965 4.965 0 0 1-1.463-3.532c0-1.335.52-2.59 1.464-3.533l.077-.077a2.186 2.186 0 0 0 0-3.09l-.078-.077a2.17 2.17 0 0 0-1.544-.639c-.583 0-1.132.227-1.544.64l-.078.077a4.963 4.963 0 0 1-3.532 1.463A4.964 4.964 0 0 1 58.24 3.53l-.077-.077a2.17 2.17 0 0 0-1.545-.64c-.583 0-1.131.227-1.544.64l-.077.078a5.002 5.002 0 0 1-7.066 0l-.078-.078a2.168 2.168 0 0 0-1.544-.64 2.17 2.17 0 0 0-1.544.64l-.077.077a5.003 5.003 0 0 1-7.066 0l-.077-.077A2.17 2.17 0 0 0 36 2.812c-.583 0-1.132.227-1.544.64l-.078.078a5.003 5.003 0 0 1-7.066 0l-.077-.078a2.169 2.169 0 0 0-1.544-.64 2.17 2.17 0 0 0-1.544.64l-.077.077a5.003 5.003 0 0 1-7.067 0l-.077-.078a2.169 2.169 0 0 0-1.544-.639c-.583 0-1.132.227-1.544.64l-.078.078a4.963 4.963 0 0 1-3.533 1.463 4.964 4.964 0 0 1-3.533-1.464l-.077-.077a2.169 2.169 0 0 0-1.544-.64c-.584 0-1.132.227-1.545.64l-.076.077a2.186 2.186 0 0 0 0 3.089l.076.077a4.964 4.964 0 0 1 1.464 3.533c0 1.335-.52 2.59-1.464 3.533l-.076.077a2.186 2.186 0 0 0 0 3.089l.077.078a4.963 4.963 0 0 1 1.463 3.532c0 1.335-.52 2.59-1.464 3.533l-.076.077a2.186 2.186 0 0 0 0 3.089l.077.077a4.963 4.963 0 0 1 1.463 3.533c0 1.335-.52 2.59-1.464 3.533l-.076.076a2.186 2.186 0 0 0 0 3.09l.077.077a4.963 4.963 0 0 1 1.463 3.533c0 1.334-.52 2.589-1.464 3.532l-.076.077a2.186 2.186 0 0 0 0 3.09l.077.077a4.963 4.963 0 0 1 1.463 3.533c0 1.334-.52 2.589-1.464 3.532l-.076.077a2.186 2.186 0 0 0 0 3.09l.077.077a4.965 4.965 0 0 1 1.463 3.532c0 1.335-.52 2.59-1.464 3.533l-.076.077a2.186 2.186 0 0 0 0 3.09l.077.077c.412.412.96.639 1.544.639.583 0 1.132-.227 1.544-.64l.078-.077a4.963 4.963 0 0 1 3.533-1.463c1.334 0 2.589.52 3.532 1.463l.077.077c.413.413.962.64 1.545.64a2.17 2.17 0 0 0 1.544-.64l.077-.077a5.002 5.002 0 0 1 7.067 0l.077.078c.412.412.96.639 1.544.639a2.17 2.17 0 0 0 1.544-.64l.077-.076a5.003 5.003 0 0 1 7.066 0l.077.076c.413.413.962.64 1.545.64s1.132-.227 1.544-.64l.078-.077a5.003 5.003 0 0 1 7.066 0l.077.078c.412.412.961.639 1.544.639a2.17 2.17 0 0 0 1.545-.64l.076-.076a5.003 5.003 0 0 1 7.067 0l.077.076c.413.413.961.64 1.544.64.584 0 1.132-.227 1.544-.64l.078-.077a4.962 4.962 0 0 1 3.533-1.464z"/>
</svg>
