<svg xmlns="http://www.w3.org/2000/svg" width="48" height="48" viewBox="0 0 48 48">
    <defs>
        <linearGradient id="a" x1="50%" x2="50%" y1="0%" y2="99.635%">
            <stop offset="0%" stop-color="#41BCE7"/>
            <stop offset="100%" stop-color="#22A6DC"/>
        </linearGradient>
    </defs>
    <g fill="none" fill-rule="nonzero">
        <circle cx="24" cy="24" r="24" fill="url(#a)"/>
        <path fill="#FFF" d="M35.681 13.81l-4.284 21.609s-.6 1.5-2.25.778l-9.89-7.584-3.6-1.735L9.6 24.844s-.928-.328-1.022-1.05c-.094-.722 1.05-1.106 1.05-1.106l24.075-9.441c0-.01 1.978-.881 1.978.562z"/>
        <path fill="#D2E4F0" d="M18.488 35.175s-.291-.028-.647-1.163c-.357-1.134-2.185-7.134-2.185-7.134l14.54-9.234s.845-.507.807 0c0 0 .15.093-.3.506-.45.422-11.419 10.284-11.419 10.284"/>
        <path fill="#B5CFE4" d="M23.044 31.519l-3.91 3.572s-.309.234-.637.084l.75-6.628"/>
    </g>
</svg>
