<svg xmlns="http://www.w3.org/2000/svg" width="48" height="48" viewBox="0 0 48 48">
    <g fill="none" fill-rule="evenodd">
        <path d="M0 0h48v48H0z"/>
        <path fill="#7F4DA0" d="M26.775 16.787c.934.199 1.65.554 2.263 1.127.787.743 1.219 1.643 1.409 2.936.128.843.075 1.175-.223 1.45-.28.255-.797.265-1.11.023-.228-.17-.3-.35-.352-.838-.061-.65-.175-1.104-.37-1.525-.417-.895-1.152-1.36-2.395-1.511-.584-.071-.76-.137-.949-.36-.346-.412-.213-1.08.266-1.326.18-.09.256-.1.654-.076.247.014.613.057.807.1zm-1.01-3.577c2.88.422 5.109 1.757 6.57 3.927.821 1.222 1.333 2.657 1.509 4.196.061.564.061 1.592-.005 1.763a1.08 1.08 0 0 1-.432.468c-.185.095-.578.085-.797-.028-.365-.185-.474-.479-.474-1.274 0-1.227-.318-2.52-.868-3.525a7.205 7.205 0 0 0-2.647-2.752c-.954-.568-2.363-.99-3.648-1.094-.465-.038-.721-.133-.897-.336a.862.862 0 0 1-.071-1.071c.246-.383.626-.444 1.76-.274zm-11.172-2.922c.166.057.422.19.569.284.901.597 3.41 3.804 4.231 5.405.47.914.627 1.591.48 2.093-.152.54-.403.824-1.528 1.729-.45.364-.873.739-.94.838-.17.247-.308.73-.308 1.071.005.79.517 2.226 1.191 3.33.522.857 1.456 1.956 2.381 2.8 1.087.994 2.045 1.671 3.127 2.207 1.39.691 2.239.866 2.86.577a2.3 2.3 0 0 0 .375-.208c.047-.043.413-.488.81-.98.77-.967.945-1.123 1.472-1.303.669-.228 1.352-.166 2.04.184.522.27 1.66.976 2.395 1.488.968.677 3.036 2.363 3.316 2.7.493.606.579 1.383.247 2.24-.351.905-1.717 2.6-2.67 3.325-.864.654-1.476.905-2.283.943-.664.033-.939-.024-1.788-.374-6.66-2.743-11.978-6.835-16.2-12.458-2.206-2.936-3.885-5.982-5.033-9.142-.67-1.842-.702-2.643-.152-3.585.237-.398 1.247-1.383 1.983-1.933 1.224-.91 1.788-1.245 2.239-1.34.308-.067.845-.015 1.186.109zm10.844-.512c1.632.204 2.95.597 4.398 1.303 1.423.696 2.334 1.355 3.539 2.553 1.129 1.132 1.755 1.99 2.42 3.32.925 1.857 1.451 4.064 1.541 6.494.033.829.01 1.014-.18 1.25-.36.46-1.153.384-1.424-.132-.085-.17-.109-.317-.137-.98-.048-1.02-.119-1.677-.261-2.464-.56-3.083-2.04-5.546-4.403-7.313-1.968-1.478-4.003-2.198-6.67-2.354-.9-.053-1.057-.086-1.261-.242-.38-.299-.399-1-.034-1.326.224-.204.38-.232 1.153-.209.404.015.997.062 1.32.1zM24 0c13.255 0 24 10.745 24 24S37.255 48 24 48 0 37.255 0 24 10.745 0 24 0z"/>
    </g>
</svg>
